JetBrainsMoro-Italic.ufo
<glyph name="dollar" format="2">
  <advance width="600"/>
  <unicode hex="0024"/>
  <outline>
    <contour>
      <point x="209" y="-140" type="line"/>
      <point x="269" y="-140" type="line"/>
      <point x="290" y="-9" type="line"/>
      <point x="408" y="3"/>
      <point x="497" y="80"/>
      <point x="514" y="190" type="curve" smooth="yes"/>
      <point x="530" y="289"/>
      <point x="486" y="366"/>
      <point x="394" y="397" type="curve" smooth="yes"/>
      <point x="356" y="410" type="line"/>
      <point x="395" y="658" type="line"/>
      <point x="454" y="648"/>
      <point x="481" y="607"/>
      <point x="471" y="545" type="curve"/>
      <point x="561" y="545" type="line"/>
      <point x="577" y="654"/>
      <point x="517" y="728"/>
      <point x="408" y="739" type="curve"/>
      <point x="429" y="870" type="line"/>
      <point x="369" y="870" type="line"/>
      <point x="348" y="738" type="line"/>
      <point x="234" y="727"/>
      <point x="151" y="653"/>
      <point x="134" y="546" type="curve" smooth="yes"/>
      <point x="119" y="448"/>
      <point x="163" y="373"/>
      <point x="258" y="342" type="curve" smooth="yes"/>
      <point x="284" y="334" type="line"/>
      <point x="242" y="72" type="line"/>
      <point x="172" y="81"/>
      <point x="138" y="124"/>
      <point x="148" y="190" type="curve"/>
      <point x="58" y="190" type="line"/>
      <point x="42" y="75"/>
      <point x="105" y="1"/>
      <point x="230" y="-9" type="curve"/>
    </contour>
    <contour>
      <point x="302" y="72" type="curve"/>
      <point x="341" y="315" type="line"/>
      <point x="352" y="311" type="line" smooth="yes"/>
      <point x="407" y="293"/>
      <point x="433" y="246"/>
      <point x="424" y="188" type="curve" smooth="yes"/>
      <point x="414" y="124"/>
      <point x="369" y="82"/>
    </contour>
    <contour>
      <point x="293" y="389" type="line"/>
      <point x="329" y="422" type="line"/>
      <point x="251" y="434"/>
      <point x="215" y="484"/>
      <point x="226" y="554" type="curve" smooth="yes"/>
      <point x="235" y="611"/>
      <point x="275" y="649"/>
      <point x="335" y="658" type="curve"/>
    </contour>
  </outline>
</glyph>
<glyph name="percent" format="2">
  <advance width="600"/>
  <unicode hex="0025"/>
  <outline>
    <contour>
      <point x="-30" y="0" type="line"/>
      <point x="46" y="0" type="line"/>
      <point x="658" y="730" type="line"/>
      <point x="582" y="730" type="line"/>
    </contour>
    <contour>
      <point x="400" y="-5" type="curve" smooth="yes"/>
      <point x="484" y="-5"/>
      <point x="548" y="46"/>
      <point x="561" y="130" type="curve" smooth="yes"/>
      <point x="571" y="195" type="line" smooth="yes"/>
      <point x="584" y="279"/>
      <point x="537" y="330"/>
      <point x="453" y="330" type="curve" smooth="yes"/>
      <point x="369" y="330"/>
      <point x="306" y="279"/>
      <point x="293" y="195" type="curve" smooth="yes"/>
      <point x="283" y="130" type="line" smooth="yes"/>
      <point x="270" y="46"/>
      <point x="316" y="-5"/>
    </contour>
    <contour>
      <point x="411" y="64" type="curve" smooth="yes"/>
      <point x="367" y="64"/>
      <point x="350" y="85"/>
      <point x="357" y="130" type="curve" smooth="yes"/>
      <point x="367" y="195" type="line" smooth="yes"/>
      <point x="374" y="240"/>
      <point x="398" y="262"/>
      <point x="442" y="262" type="curve" smooth="yes"/>
      <point x="486" y="262"/>
      <point x="504" y="240"/>
      <point x="497" y="195" type="curve" smooth="yes"/>
      <point x="487" y="130" type="line" smooth="yes"/>
      <point x="480" y="85"/>
      <point x="455" y="64"/>
    </contour>
    <contour>
      <point x="174" y="400" type="curve" smooth="yes"/>
      <point x="258" y="400"/>
      <point x="322" y="451"/>
      <point x="335" y="535" type="curve" smooth="yes"/>
      <point x="345" y="600" type="line" smooth="yes"/>
      <point x="358" y="684"/>
      <point x="311" y="735"/>
      <point x="227" y="735" type="curve" smooth="yes"/>
      <point x="143" y="735"/>
      <point x="80" y="684"/>
      <point x="67" y="600" type="curve" smooth="yes"/>
      <point x="57" y="535" type="line" smooth="yes"/>
      <point x="44" y="451"/>
      <point x="90" y="400"/>
    </contour>
    <contour>
      <point x="185" y="468" type="curve" smooth="yes"/>
      <point x="142" y="468"/>
      <point x="124" y="490"/>
      <point x="131" y="535" type="curve" smooth="yes"/>
      <point x="141" y="600" type="line" smooth="yes"/>
      <point x="148" y="645"/>
      <point x="174" y="667"/>
      <point x="217" y="667" type="curve" smooth="yes"/>
      <point x="260" y="667"/>
      <point x="278" y="645"/>
      <point x="271" y="600" type="curve" smooth="yes"/>
      <point x="261" y="535" type="line" smooth="yes"/>
      <point x="254" y="490"/>
      <point x="228" y="468"/>
    </contour>
  </outline>
</glyph>
<glyph name="ampersand" format="2">
  <advance width="600"/>
  <unicode hex="0026"/>
  <outline>
    <contour>
      <point x="184" y="-10" type="curve" smooth="yes"/>
      <point x="249" y="-10"/>
      <point x="316" y="24"/>
      <point x="374" y="87" type="curve"/>
      <point x="423" y="0" type="line"/>
      <point x="522" y="0" type="line"/>
      <point x="430" y="161" type="line"/>
      <point x="575" y="360" type="line"/>
      <point x="481" y="360" type="line"/>
      <point x="390" y="233" type="line"/>
      <point x="255" y="470" type="line" smooth="yes"/>
      <point x="236" y="504"/>
      <point x="227" y="546"/>
      <point x="233" y="579" type="curve" smooth="yes"/>
      <point x="241" y="630"/>
      <point x="281" y="662"/>
      <point x="336" y="662" type="curve" smooth="yes"/>
      <point x="397" y="662"/>
      <point x="429" y="627"/>
      <point x="420" y="569" type="curve"/>
      <point x="510" y="569" type="line"/>
      <point x="527" y="674"/>
      <point x="464" y="740"/>
      <point x="348" y="740" type="curve" smooth="yes"/>
      <point x="240" y="740"/>
      <point x="158" y="677"/>
      <point x="143" y="581" type="curve" smooth="yes"/>
      <point x="135" y="533"/>
      <point x="146" y="487"/>
      <point x="178" y="431" type="curve" smooth="yes"/>
      <point x="184" y="421" type="line"/>
      <point x="113" y="401"/>
      <point x="66" y="350"/>
      <point x="55" y="280" type="curve" smooth="yes"/>
      <point x="36" y="155" type="line" smooth="yes"/>
      <point x="19" y="52"/>
      <point x="75" y="-10"/>
    </contour>
    <contour>
      <point x="202" y="70" type="curve" smooth="yes"/>
      <point x="145" y="70"/>
      <point x="117" y="101"/>
      <point x="126" y="155" type="curve" smooth="yes"/>
      <point x="145" y="280" type="line" smooth="yes"/>
      <point x="152" y="324"/>
      <point x="178" y="351"/>
      <point x="220" y="358" type="curve"/>
      <point x="335" y="155" type="line"/>
      <point x="297" y="102"/>
      <point x="247" y="70"/>
    </contour>
  </outline>
</glyph>
<glyph name="plus" format="2">
  <advance width="600"/>
  <unicode hex="002B"/>
  <outline>
    <contour>
      <point x="227" y="95" type="line"/>
      <point x="315" y="95" type="line"/>
      <point x="346" y="290" type="line"/>
      <point x="537" y="290" type="line"/>
      <point x="550" y="370" type="line"/>
      <point x="359" y="370" type="line"/>
      <point x="389" y="565" type="line"/>
      <point x="301" y="565" type="line"/>
      <point x="271" y="370" type="line"/>
      <point x="80" y="370" type="line"/>
      <point x="67" y="290" type="line"/>
      <point x="258" y="290" type="line"/>
    </contour>
  </outline>
</glyph>
<glyph name="zero" format="2">
  <advance width="600"/>
  <unicode hex="0030"/>
  <outline>
    <contour>
      <point x="254" y="-10" type="curve" smooth="yes"/>
      <point x="388" y="-10"/>
      <point x="487" y="75"/>
      <point x="508" y="205" type="curve" smooth="yes"/>
      <point x="559" y="525" type="line" smooth="yes"/>
      <point x="580" y="656"/>
      <point x="508" y="740"/>
      <point x="373" y="740" type="curve" smooth="yes"/>
      <point x="238" y="740"/>
      <point x="140" y="656"/>
      <point x="119" y="525" type="curve" smooth="yes"/>
      <point x="68" y="205" type="line" smooth="yes"/>
      <point x="47" y="74"/>
      <point x="119" y="-10"/>
    </contour>
    <contour>
      <point x="267" y="67" type="curve" smooth="yes"/>
      <point x="187" y="67"/>
      <point x="142" y="124"/>
      <point x="155" y="205" type="curve" smooth="yes"/>
      <point x="206" y="525" type="line" smooth="yes"/>
      <point x="219" y="606"/>
      <point x="281" y="663"/>
      <point x="361" y="663" type="curve" smooth="yes"/>
      <point x="441" y="663"/>
      <point x="485" y="606"/>
      <point x="472" y="525" type="curve" smooth="yes"/>
      <point x="421" y="205" type="line" smooth="yes"/>
      <point x="408" y="124"/>
      <point x="347" y="67"/>
    </contour>
    <contour>
      <point x="314" y="306" type="curve" smooth="yes"/>
      <point x="350" y="306"/>
      <point x="374" y="331"/>
      <point x="374" y="368" type="curve" smooth="yes"/>
      <point x="374" y="404"/>
      <point x="350" y="428"/>
      <point x="314" y="428" type="curve" smooth="yes"/>
      <point x="278" y="428"/>
      <point x="254" y="404"/>
      <point x="254" y="368" type="curve" smooth="yes"/>
      <point x="254" y="331"/>
      <point x="278" y="306"/>
    </contour>
  </outline>
</glyph>
<glyph name="two" format="2">
  <advance width="600"/>
  <unicode hex="0032"/>
  <outline>
    <contour>
      <point x="48" y="0" type="line"/>
      <point x="482" y="0" type="line"/>
      <point x="495" y="82" type="line"/>
      <point x="166" y="82" type="line"/>
      <point x="392" y="288" type="line" smooth="yes"/>
      <point x="498" y="385"/>
      <point x="543" y="458"/>
      <point x="554" y="528" type="curve" smooth="yes"/>
      <point x="574" y="658"/>
      <point x="502" y="740"/>
      <point x="367" y="740" type="curve" smooth="yes"/>
      <point x="235" y="740"/>
      <point x="136" y="657"/>
      <point x="111" y="525" type="curve"/>
      <point x="201" y="525" type="line"/>
      <point x="214" y="608"/>
      <point x="274" y="660"/>
      <point x="355" y="660" type="curve" smooth="yes"/>
      <point x="435" y="660"/>
      <point x="476" y="609"/>
      <point x="464" y="529" type="curve" smooth="yes"/>
      <point x="455" y="473"/>
      <point x="416" y="418"/>
      <point x="335" y="343" type="curve" smooth="yes"/>
      <point x="62" y="89" type="line"/>
    </contour>
  </outline>
</glyph>
<glyph name="three" format="2">
  <advance width="600"/>
  <unicode hex="0033"/>
  <outline>
    <contour>
      <point x="243" y="-10" type="curve" smooth="yes"/>
      <point x="380" y="-10"/>
      <point x="478" y="71"/>
      <point x="498" y="200" type="curve" smooth="yes"/>
      <point x="506" y="250" type="line" smooth="yes"/>
      <point x="526" y="378"/>
      <point x="454" y="460"/>
      <point x="321" y="460" type="curve"/>
      <point x="317" y="433" type="line"/>
      <point x="545" y="646" type="line"/>
      <point x="559" y="730" type="line"/>
      <point x="172" y="730" type="line"/>
      <point x="159" y="648" type="line"/>
      <point x="444" y="648" type="line"/>
      <point x="240" y="458" type="line"/>
      <point x="227" y="380" type="line"/>
      <point x="306" y="380" type="line" smooth="yes"/>
      <point x="388" y="380"/>
      <point x="429" y="332"/>
      <point x="416" y="250" type="curve" smooth="yes"/>
      <point x="408" y="200" type="line" smooth="yes"/>
      <point x="395" y="122"/>
      <point x="339" y="70"/>
      <point x="257" y="70" type="curve" smooth="yes"/>
      <point x="176" y="70"/>
      <point x="135" y="119"/>
      <point x="148" y="200" type="curve"/>
      <point x="58" y="200" type="line"/>
      <point x="38" y="74"/>
      <point x="111" y="-10"/>
    </contour>
  </outline>
</glyph>
<glyph name="four" format="2">
  <advance width="600"/>
  <unicode hex="0034"/>
  <outline>
    <contour>
      <point x="356" y="0" type="line"/>
      <point x="446" y="0" type="line"/>
      <point x="513" y="420" type="line"/>
      <point x="423" y="420" type="line"/>
      <point x="394" y="242" type="line"/>
      <point x="154" y="242" type="line"/>
      <point x="160" y="280" type="line"/>
      <point x="507" y="730" type="line"/>
      <point x="408" y="730" type="line"/>
      <point x="74" y="301" type="line"/>
      <point x="51" y="160" type="line"/>
      <point x="381" y="160" type="line"/>
    </contour>
  </outline>
</glyph>
<glyph name="six" format="2">
  <advance width="600"/>
  <unicode hex="0036"/>
  <outline>
    <contour>
      <point x="256" y="-10" type="curve" smooth="yes"/>
      <point x="397" y="-10"/>
      <point x="506" y="85"/>
      <point x="529" y="227" type="curve" smooth="yes"/>
      <point x="550" y="360"/>
      <point x="483" y="449"/>
      <point x="363" y="449" type="curve" smooth="yes"/>
      <point x="306" y="449"/>
      <point x="256" y="426"/>
      <point x="226" y="390" type="curve"/>
      <point x="223" y="393" type="line"/>
      <point x="474" y="730" type="line"/>
      <point x="375" y="730" type="line"/>
      <point x="152" y="427" type="line" smooth="yes"/>
      <point x="99" y="354"/>
      <point x="66" y="287"/>
      <point x="56" y="223" type="curve" smooth="yes"/>
      <point x="34" y="84"/>
      <point x="114" y="-10"/>
    </contour>
    <contour>
      <point x="268" y="70" type="curve" smooth="yes"/>
      <point x="181" y="70"/>
      <point x="131" y="132"/>
      <point x="146" y="225" type="curve" smooth="yes"/>
      <point x="161" y="318"/>
      <point x="230" y="380"/>
      <point x="317" y="380" type="curve" smooth="yes"/>
      <point x="404" y="380"/>
      <point x="453" y="318"/>
      <point x="438" y="225" type="curve" smooth="yes"/>
      <point x="423" y="132"/>
      <point x="355" y="70"/>
    </contour>
  </outline>
</glyph>
<glyph name="seven" format="2">
  <advance width="600"/>
  <unicode hex="0037"/>
  <outline>
    <contour>
      <point x="147" y="0" type="line"/>
      <point x="248" y="0" type="line"/>
      <point x="603" y="646" type="line"/>
      <point x="617" y="730" type="line"/>
      <point x="152" y="730" type="line"/>
      <point x="120" y="530" type="line"/>
      <point x="210" y="530" type="line"/>
      <point x="229" y="648" type="line"/>
      <point x="509" y="648" type="line"/>
    </contour>
  </outline>
</glyph>
<glyph name="eight" format="2">
  <advance width="600"/>
  <unicode hex="0038"/>
  <outline>
    <contour>
      <point x="254" y="-10" type="curve" smooth="yes"/>
      <point x="395" y="-10"/>
      <point x="501" y="69"/>
      <point x="519" y="183" type="curve" smooth="yes"/>
      <point x="533" y="272"/>
      <point x="480" y="354"/>
      <point x="386" y="391" type="curve" smooth="yes"/>
      <point x="294" y="427" type="line" smooth="yes"/>
      <point x="238" y="449"/>
      <point x="204" y="496"/>
      <point x="213" y="551" type="curve" smooth="yes"/>
      <point x="223" y="615"/>
      <point x="283" y="661"/>
      <point x="360" y="661" type="curve" smooth="yes"/>
      <point x="437" y="661"/>
      <point x="483" y="616"/>
      <point x="473" y="551" type="curve" smooth="yes"/>
      <point x="464" y="498"/>
      <point x="414" y="450"/>
      <point x="348" y="426" type="curve" smooth="yes"/>
      <point x="245" y="389" type="line" smooth="yes"/>
      <point x="141" y="352"/>
      <point x="65" y="271"/>
      <point x="51" y="183" type="curve" smooth="yes"/>
      <point x="33" y="69"/>
      <point x="113" y="-10"/>
    </contour>
    <contour>
      <point x="267" y="70" type="curve" smooth="yes"/>
      <point x="179" y="70"/>
      <point x="129" y="120"/>
      <point x="140" y="195" type="curve" smooth="yes"/>
      <point x="149" y="252"/>
      <point x="194" y="303"/>
      <point x="262" y="328" type="curve" smooth="yes"/>
      <point x="363" y="365" type="line" smooth="yes"/>
      <point x="482" y="408"/>
      <point x="549" y="478"/>
      <point x="561" y="554" type="curve" smooth="yes"/>
      <point x="579" y="663"/>
      <point x="499" y="741"/>
      <point x="373" y="741" type="curve" smooth="yes"/>
      <point x="247" y="741"/>
      <point x="143" y="663"/>
      <point x="125" y="554" type="curve" smooth="yes"/>
      <point x="113" y="477"/>
      <point x="157" y="408"/>
      <point x="261" y="366" type="curve" smooth="yes"/>
      <point x="351" y="329" type="line" smooth="yes"/>
      <point x="412" y="304"/>
      <point x="442" y="254"/>
      <point x="432" y="195" type="curve" smooth="yes"/>
      <point x="421" y="120"/>
      <point x="355" y="70"/>
    </contour>
  </outline>
</glyph>
<glyph name="nine" format="2">
  <advance width="600"/>
  <unicode hex="0039"/>
  <outline>
    <contour>
      <point x="154" y="0" type="line"/>
      <point x="258" y="0" type="line"/>
      <point x="477" y="303" type="line" smooth="yes"/>
      <point x="530" y="376"/>
      <point x="563" y="443"/>
      <point x="573" y="507" type="curve" smooth="yes"/>
      <point x="595" y="646"/>
      <point x="515" y="740"/>
      <point x="373" y="740" type="curve" smooth="yes"/>
      <point x="232" y="740"/>
      <point x="123" y="645"/>
      <point x="101" y="503" type="curve" smooth="yes"/>
      <point x="80" y="370"/>
      <point x="147" y="281"/>
      <point x="267" y="281" type="curve" smooth="yes"/>
      <point x="324" y="281"/>
      <point x="370" y="304"/>
      <point x="400" y="340" type="curve"/>
      <point x="403" y="337" type="line"/>
    </contour>
    <contour>
      <point x="312" y="350" type="curve" smooth="yes"/>
      <point x="225" y="350"/>
      <point x="176" y="412"/>
      <point x="191" y="505" type="curve" smooth="yes"/>
      <point x="206" y="598"/>
      <point x="275" y="660"/>
      <point x="362" y="660" type="curve" smooth="yes"/>
      <point x="449" y="660"/>
      <point x="498" y="598"/>
      <point x="483" y="505" type="curve" smooth="yes"/>
      <point x="468" y="412"/>
      <point x="399" y="350"/>
    </contour>
  </outline>
</glyph>
<glyph name="colon" format="2">
  <advance width="600"/>
  <unicode hex="003A"/>
  <outline>
    <contour>
      <point x="321" y="410" type="curve" smooth="yes"/>
      <point x="371" y="410"/>
      <point x="409" y="440"/>
      <point x="416" y="485" type="curve" smooth="yes"/>
      <point x="423" y="530"/>
      <point x="395" y="560"/>
      <point x="345" y="560" type="curve" smooth="yes"/>
      <point x="295" y="560"/>
      <point x="257" y="530"/>
      <point x="250" y="485" type="curve" smooth="yes"/>
      <point x="243" y="440"/>
      <point x="271" y="410"/>
    </contour>
    <contour>
      <point x="254" y="-10" type="curve" smooth="yes"/>
      <point x="304" y="-10"/>
      <point x="342" y="20"/>
      <point x="349" y="65" type="curve" smooth="yes"/>
      <point x="356" y="110"/>
      <point x="328" y="140"/>
      <point x="278" y="140" type="curve" smooth="yes"/>
      <point x="228" y="140"/>
      <point x="190" y="110"/>
      <point x="183" y="65" type="curve" smooth="yes"/>
      <point x="176" y="20"/>
      <point x="204" y="-10"/>
    </contour>
  </outline>
</glyph>
<glyph name="less" format="2">
  <advance width="600"/>
  <unicode hex="003C"/>
  <outline>
    <contour>
      <point x="481" y="65" type="line"/>
      <point x="496" y="149" type="line"/>
      <point x="210" y="302" type="line" smooth="yes"/>
      <point x="189" y="314"/>
      <point x="165" y="323"/>
      <point x="154" y="326" type="curve"/>
      <point x="165" y="329"/>
      <point x="190" y="338"/>
      <point x="217" y="350" type="curve" smooth="yes"/>
      <point x="551" y="502" type="line"/>
      <point x="565" y="595" type="line"/>
      <point x="101" y="380" type="line"/>
      <point x="85" y="280" type="line"/>
    </contour>
  </outline>
</glyph>
<glyph name="greater" format="2">
  <advance width="600"/>
  <unicode hex="003E"/>
  <outline>
    <contour>
      <point x="51" y="65" type="line"/>
      <point x="515" y="280" type="line"/>
      <point x="531" y="380" type="line"/>
      <point x="135" y="595" type="line"/>
      <point x="121" y="509" type="line"/>
      <point x="407" y="356" type="line" smooth="yes"/>
      <point x="428" y="344"/>
      <point x="451" y="335"/>
      <point x="463" y="332" type="curve"/>
      <point x="451" y="329"/>
      <point x="426" y="320"/>
      <point x="399" y="308" type="curve" smooth="yes"/>
      <point x="65" y="156" type="line"/>
    </contour>
  </outline>
</glyph>
<glyph name="B" format="2">
  <advance width="600"/>
  <unicode hex="0042"/>
  <anchor x="256" y="0" name="bottom"/>
  <anchor x="372" y="730" name="top"/>
  <outline>
    <contour>
      <point x="49" y="0" type="line"/>
      <point x="271" y="0" type="line" smooth="yes"/>
      <point x="404" y="0"/>
      <point x="498" y="78"/>
      <point x="518" y="203" type="curve" smooth="yes"/>
      <point x="537" y="320"/>
      <point x="474" y="395"/>
      <point x="358" y="393" type="curve"/>
      <point x="356" y="378" type="line"/>
      <point x="463" y="376"/>
      <point x="539" y="440"/>
      <point x="555" y="541" type="curve" smooth="yes"/>
      <point x="573" y="659"/>
      <point x="505" y="730"/>
      <point x="372" y="730" type="curve" smooth="yes"/>
      <point x="165" y="730" type="line"/>
    </contour>
    <contour>
      <point x="150" y="81" type="line"/>
      <point x="191" y="341" type="line"/>
      <point x="315" y="341" type="line" smooth="yes"/>
      <point x="399" y="341"/>
      <point x="442" y="286"/>
      <point x="430" y="206" type="curve" smooth="yes"/>
      <point x="417" y="129"/>
      <point x="358" y="81"/>
      <point x="274" y="81" type="curve" smooth="yes"/>
    </contour>
    <contour>
      <point x="203" y="419" type="line"/>
      <point x="240" y="649" type="line"/>
      <point x="359" y="649" type="line" smooth="yes"/>
      <point x="436" y="649"/>
      <point x="476" y="605"/>
      <point x="465" y="534" type="curve" smooth="yes"/>
      <point x="453" y="463"/>
      <point x="398" y="419"/>
      <point x="321" y="419" type="curve" smooth="yes"/>
    </contour>
  </outline>
</glyph>
<glyph name="D" format="2">
  <advance width="600"/>
  <unicode hex="0044"/>
  <anchor x="256" y="0" name="bottom"/>
  <anchor x="314" y="365" name="center"/>
  <anchor x="372" y="730" name="top"/>
  <outline>
    <contour>
      <point x="48" y="0" type="line"/>
      <point x="237" y="0" type="line" smooth="yes"/>
      <point x="378" y="0"/>
      <point x="482" y="86"/>
      <point x="503" y="220" type="curve" smooth="yes"/>
      <point x="549" y="511" type="line" smooth="yes"/>
      <point x="570" y="644"/>
      <point x="494" y="730"/>
      <point x="353" y="730" type="curve" smooth="yes"/>
      <point x="164" y="730" type="line"/>
    </contour>
    <contour>
      <point x="151" y="80" type="line"/>
      <point x="241" y="650" type="line"/>
      <point x="340" y="650" type="line" smooth="yes"/>
      <point x="428" y="650"/>
      <point x="473" y="598"/>
      <point x="459" y="511" type="curve" smooth="yes"/>
      <point x="413" y="220" type="line" smooth="yes"/>
      <point x="399" y="132"/>
      <point x="338" y="80"/>
      <point x="250" y="80" type="curve" smooth="yes"/>
    </contour>
  </outline>
</glyph>
<glyph name="F" format="2">
  <advance width="600"/>
  <unicode hex="0046"/>
  <anchor x="256" y="0" name="bottom"/>
  <anchor x="372" y="730" name="top"/>
  <outline>
    <contour>
      <point x="51" y="0" type="line"/>
      <point x="141" y="0" type="line"/>
      <point x="192" y="324" type="line"/>
      <point x="506" y="324" type="line"/>
      <point x="519" y="406" type="line"/>
      <point x="203" y="406" type="line"/>
      <point x="242" y="648" type="line"/>
      <point x="584" y="648" type="line"/>
      <point x="597" y="730" type="line"/>
      <point x="167" y="730" type="line"/>
    </contour>
  </outline>
</glyph>
<glyph name="H" format="2">
  <advance width="600"/>
  <unicode hex="0048"/>
  <anchor x="256" y="0" name="bottom"/>
  <anchor x="314" y="365" name="center"/>
  <anchor x="372" y="730" name="top"/>
  <anchor x="92" y="730" name="topleft"/>
  <outline>
    <contour>
      <point x="49" y="0" type="line"/>
      <point x="139" y="0" type="line"/>
      <point x="192" y="336" type="line"/>
      <point x="426" y="336" type="line"/>
      <point x="373" y="0" type="line"/>
      <point x="463" y="0" type="line"/>
      <point x="579" y="730" type="line"/>
      <point x="489" y="730" type="line"/>
      <point x="439" y="418" type="line"/>
      <point x="205" y="418" type="line"/>
      <point x="255" y="730" type="line"/>
      <point x="165" y="730" type="line"/>
    </contour>
  </outline>
</glyph>
<glyph name="K" format="2">
  <advance width="600"/>
  <unicode hex="004B"/>
  <anchor x="256" y="0" name="bottom"/>
  <anchor x="372" y="730" name="top"/>
  <outline>
    <contour>
      <point x="48" y="0" type="line"/>
      <point x="138" y="0" type="line"/>
      <point x="192" y="338" type="line"/>
      <point x="300" y="338" type="line"/>
      <point x="416" y="0" type="line"/>
      <point x="516" y="0" type="line"/>
      <point x="385" y="376" type="line"/>
      <point x="622" y="730" type="line"/>
      <point x="522" y="730" type="line"/>
      <point x="310" y="417" type="line"/>
      <point x="204" y="417" type="line"/>
      <point x="254" y="730" type="line"/>
      <point x="164" y="730" type="line"/>
    </contour>
  </outline>
</glyph>
<glyph name="M" format="2">
  <advance width="600"/>
  <unicode hex="004D"/>
  <anchor x="256" y="0" name="bottom"/>
  <anchor x="372" y="730" name="top"/>
  <outline>
    <contour>
      <point x="32" y="0" type="line"/>
      <point x="120" y="0" type="line"/>
      <point x="162" y="265" type="line" smooth="yes"/>
      <point x="183" y="396"/>
      <point x="195" y="582"/>
      <point x="199" y="685" type="curve"/>
      <point x="261" y="320" type="line"/>
      <point x="356" y="320" type="line"/>
      <point x="531" y="685" type="line"/>
      <point x="502" y="578"/>
      <point x="454" y="389"/>
      <point x="434" y="265" type="curve" smooth="yes"/>
      <point x="392" y="0" type="line"/>
      <point x="480" y="0" type="line"/>
      <point x="596" y="730" type="line"/>
      <point x="476" y="730" type="line"/>
      <point x="366" y="495" type="line" smooth="yes"/>
      <point x="346" y="451"/>
      <point x="327" y="405"/>
      <point x="318" y="382" type="curve"/>
      <point x="315" y="405"/>
      <point x="309" y="451"/>
      <point x="302" y="494" type="curve" smooth="yes"/>
      <point x="264" y="730" type="line"/>
      <point x="148" y="730" type="line"/>
    </contour>
  </outline>
</glyph>
<glyph name="N" format="2">
  <advance width="600"/>
  <unicode hex="004E"/>
  <anchor x="256" y="0" name="bottom"/>
  <anchor x="372" y="730" name="top"/>
  <outline>
    <contour>
      <point x="46" y="0" type="line"/>
      <point x="133" y="0" type="line"/>
      <point x="198" y="410" type="line" smooth="yes"/>
      <point x="210" y="483"/>
      <point x="219" y="576"/>
      <point x="223" y="625" type="curve"/>
      <point x="347" y="0" type="line"/>
      <point x="466" y="0" type="line"/>
      <point x="582" y="730" type="line"/>
      <point x="495" y="730" type="line"/>
      <point x="430" y="320" type="line" smooth="yes"/>
      <point x="418" y="247"/>
      <point x="409" y="154"/>
      <point x="406" y="105" type="curve"/>
      <point x="281" y="730" type="line"/>
      <point x="162" y="730" type="line"/>
    </contour>
  </outline>
</glyph>
<glyph name="P" format="2">
  <advance width="600"/>
  <unicode hex="0050"/>
  <anchor x="256" y="0" name="bottom"/>
  <anchor x="372" y="730" name="top"/>
  <outline>
    <contour>
      <point x="48" y="0" type="line"/>
      <point x="138" y="0" type="line"/>
      <point x="186" y="300" type="line"/>
      <point x="331" y="300" type="line" smooth="yes"/>
      <point x="467" y="300"/>
      <point x="567" y="384"/>
      <point x="588" y="515" type="curve" smooth="yes"/>
      <point x="608" y="646"/>
      <point x="535" y="730"/>
      <point x="399" y="730" type="curve" smooth="yes"/>
      <point x="164" y="730" type="line"/>
    </contour>
    <contour>
      <point x="198" y="381" type="line"/>
      <point x="241" y="649" type="line"/>
      <point x="386" y="649" type="line" smooth="yes"/>
      <point x="465" y="649"/>
      <point x="508" y="597"/>
      <point x="495" y="515" type="curve" smooth="yes"/>
      <point x="482" y="433"/>
      <point x="422" y="381"/>
      <point x="343" y="381" type="curve" smooth="yes"/>
    </contour>
  </outline>
</glyph>
<glyph name="Q" format="2">
  <advance width="600"/>
  <unicode hex="0051"/>
  <anchor x="256" y="0" name="bottom"/>
  <anchor x="372" y="730" name="top"/>
  <outline>
    <contour>
      <point x="352" y="-180" type="line"/>
      <point x="450" y="-180" type="line"/>
      <point x="348" y="50" type="line"/>
      <point x="342" y="4" type="line"/>
      <point x="430" y="31"/>
      <point x="492" y="105"/>
      <point x="508" y="205" type="curve" smooth="yes"/>
      <point x="559" y="525" type="line" smooth="yes"/>
      <point x="580" y="656"/>
      <point x="508" y="740"/>
      <point x="373" y="740" type="curve" smooth="yes"/>
      <point x="238" y="740"/>
      <point x="140" y="656"/>
      <point x="119" y="525" type="curve" smooth="yes"/>
      <point x="68" y="205" type="line" smooth="yes"/>
      <point x="47" y="74"/>
      <point x="119" y="-10"/>
      <point x="254" y="-10" type="curve" smooth="yes"/>
      <point x="264" y="-10"/>
      <point x="275" y="-9"/>
      <point x="286" y="-7" type="curve"/>
      <point x="274" y="-3" type="line"/>
    </contour>
    <contour>
      <point x="267" y="70" type="curve" smooth="yes"/>
      <point x="188" y="70"/>
      <point x="145" y="123"/>
      <point x="158" y="205" type="curve" smooth="yes"/>
      <point x="209" y="525" type="line" smooth="yes"/>
      <point x="222" y="607"/>
      <point x="282" y="660"/>
      <point x="361" y="660" type="curve" smooth="yes"/>
      <point x="440" y="660"/>
      <point x="482" y="607"/>
      <point x="469" y="525" type="curve" smooth="yes"/>
      <point x="418" y="205" type="line" smooth="yes"/>
      <point x="405" y="123"/>
      <point x="346" y="70"/>
    </contour>
  </outline>
</glyph>
<glyph name="U" format="2">
  <advance width="600"/>
  <unicode hex="0055"/>
  <anchor x="256" y="0" name="bottom"/>
  <anchor x="457" y="730" name="horn"/>
  <anchor x="305" y="0" name="ogonek"/>
  <anchor x="372" y="730" name="top"/>
  <anchor x="652" y="730" name="topright"/>
  <outline>
    <contour>
      <point x="254" y="-10" type="curve" smooth="yes"/>
      <point x="391" y="-10"/>
      <point x="477" y="69"/>
      <point x="498" y="200" type="curve" smooth="yes"/>
      <point x="582" y="730" type="line"/>
      <point x="492" y="730" type="line"/>
      <point x="408" y="200" type="line" smooth="yes"/>
      <point x="395" y="120"/>
      <point x="347" y="70"/>
      <point x="267" y="70" type="curve" smooth="yes"/>
      <point x="186" y="70"/>
      <point x="155" y="120"/>
      <point x="168" y="200" type="curve" smooth="yes"/>
      <point x="252" y="730" type="line"/>
      <point x="162" y="730" type="line"/>
      <point x="78" y="200" type="line" smooth="yes"/>
      <point x="57" y="70"/>
      <point x="118" y="-10"/>
    </contour>
  </outline>
</glyph>
<glyph name="X" format="2">
  <advance width="600"/>
  <unicode hex="0058"/>
  <anchor x="256" y="0" name="bottom"/>
  <anchor x="372" y="730" name="top"/>
  <outline>
    <contour>
      <point x="-4" y="0" type="line"/>
      <point x="100" y="0" type="line"/>
      <point x="262" y="233" type="line" smooth="yes"/>
      <point x="277" y="255"/>
      <point x="295" y="284"/>
      <point x="305" y="300" type="curve"/>
      <point x="309" y="284"/>
      <point x="319" y="255"/>
      <point x="328" y="232" type="curve" smooth="yes"/>
      <point x="417" y="0" type="line"/>
      <point x="516" y="0" type="line"/>
      <point x="367" y="374" type="line"/>
      <point x="621" y="730" type="line"/>
      <point x="518" y="730" type="line"/>
      <point x="369" y="514" type="line" smooth="yes"/>
      <point x="353" y="491"/>
      <point x="336" y="462"/>
      <point x="327" y="447" type="curve"/>
      <point x="321" y="462"/>
      <point x="310" y="491"/>
      <point x="302" y="514" type="curve" smooth="yes"/>
      <point x="223" y="730" type="line"/>
      <point x="123" y="730" type="line"/>
      <point x="264" y="372" type="line"/>
    </contour>
  </outline>
</glyph>
<glyph name="Y" format="2">
  <advance width="600"/>
  <unicode hex="0059"/>
  <anchor x="256" y="0" name="bottom"/>
  <anchor x="372" y="730" name="top"/>
  <anchor x="92" y="730" name="topleft"/>
  <outline>
    <contour>
      <point x="211" y="0" type="line"/>
      <point x="301" y="0" type="line"/>
      <point x="344" y="273" type="line"/>
      <point x="637" y="730" type="line"/>
      <point x="542" y="730" type="line"/>
      <point x="352" y="430" type="line" smooth="yes"/>
      <point x="331" y="397"/>
      <point x="318" y="372"/>
      <point x="313" y="362" type="curve"/>
      <point x="312" y="372"/>
      <point x="306" y="397"/>
      <point x="295" y="430" type="curve" smooth="yes"/>
      <point x="198" y="730" type="line"/>
      <point x="107" y="730" type="line"/>
      <point x="254" y="273" type="line"/>
    </contour>
  </outline>
</glyph>
<glyph name="Z" format="2">
  <advance width="600"/>
  <unicode hex="005A"/>
  <anchor x="256" y="0" name="bottom"/>
  <anchor x="314" y="365" name="center"/>
  <anchor x="372" y="730" name="top"/>
  <outline>
    <contour>
      <point x="41" y="0" type="line"/>
      <point x="471" y="0" type="line"/>
      <point x="484" y="82" type="line"/>
      <point x="148" y="82" type="line"/>
      <point x="562" y="640" type="line"/>
      <point x="577" y="730" type="line"/>
      <point x="162" y="730" type="line"/>
      <point x="149" y="648" type="line"/>
      <point x="470" y="648" type="line"/>
      <point x="55" y="90" type="line"/>
    </contour>
  </outline>
</glyph>
<glyph name="bracketleft" format="2">
  <advance width="600"/>
  <unicode hex="005B"/>
  <outline>
    <contour>
      <point x="144" y="-110" type="line"/>
      <point x="389" y="-110" type="line"/>
      <point x="401" y="-30" type="line"/>
      <point x="246" y="-30" type="line"/>
      <point x="370" y="750" type="line"/>
      <point x="525" y="750" type="line"/>
      <point x="537" y="830" type="line"/>
      <point x="292" y="830" type="line"/>
    </contour>
  </outline>
</glyph>
<glyph name="backslash" format="2">
  <advance width="600"/>
  <unicode hex="005C"/>
  <outline>
    <contour>
      <point x="374" y="-110" type="line"/>
      <point x="464" y="-110" type="line"/>
      <point x="252" y="830" type="line"/>
      <point x="162" y="830" type="line"/>
    </contour>
  </outline>
</glyph>
<glyph name="a" format="2">
  <advance width="600"/>
  <unicode hex="0061"/>
  <anchor x="261" y="0" name="bottom"/>
  <anchor x="420" y="0" name="ogonek"/>
  <anchor x="348" y="550" name="top"/>
  <outline>
    <contour>
      <point x="223" y="-10" type="curve" smooth="yes"/>
      <point x="314" y="-10"/>
      <point x="382" y="42"/>
      <point x="395" y="126" type="curve"/>
      <point x="374" y="105" type="line"/>
      <point x="392" y="105" type="line"/>
      <point x="375" y="0" type="line"/>
      <point x="465" y="0" type="line"/>
      <point x="552" y="550" type="line"/>
      <point x="462" y="550" type="line"/>
      <point x="447" y="445" type="line"/>
      <point x="427" y="445" type="line"/>
      <point x="442" y="424" type="line"/>
      <point x="455" y="507"/>
      <point x="404" y="560"/>
      <point x="314" y="560" type="curve" smooth="yes"/>
      <point x="203" y="560"/>
      <point x="121" y="482"/>
      <point x="101" y="355" type="curve" smooth="yes"/>
      <point x="76" y="194" type="line" smooth="yes"/>
      <point x="56" y="68"/>
      <point x="113" y="-10"/>
    </contour>
    <contour>
      <point x="266" y="68" type="curve" smooth="yes"/>
      <point x="190" y="68"/>
      <point x="154" y="115"/>
      <point x="167" y="200" type="curve" smooth="yes"/>
      <point x="190" y="350" type="line" smooth="yes"/>
      <point x="203" y="435"/>
      <point x="255" y="482"/>
      <point x="331" y="482" type="curve" smooth="yes"/>
      <point x="405" y="482"/>
      <point x="443" y="433"/>
      <point x="430" y="350" type="curve" smooth="yes"/>
      <point x="407" y="200" type="line" smooth="yes"/>
      <point x="394" y="117"/>
      <point x="340" y="68"/>
    </contour>
  </outline>
</glyph>
<glyph name="b" format="2">
  <advance width="600"/>
  <unicode hex="0062"/>
  <anchor x="256" y="0" name="bottom"/>
  <anchor x="372" y="730" name="top"/>
  <outline>
    <contour>
      <point x="286" y="-10" type="curve" smooth="yes"/>
      <point x="396" y="-10"/>
      <point x="479" y="68"/>
      <point x="499" y="194" type="curve" smooth="yes"/>
      <point x="524" y="355" type="line" smooth="yes"/>
      <point x="544" y="482"/>
      <point x="488" y="560"/>
      <point x="377" y="560" type="curve" smooth="yes"/>
      <point x="287" y="560"/>
      <point x="218" y="507"/>
      <point x="205" y="424" type="curve"/>
      <point x="226" y="445" type="line"/>
      <point x="206" y="445" type="line"/>
      <point x="228" y="570" type="line"/>
      <point x="254" y="730" type="line"/>
      <point x="164" y="730" type="line"/>
      <point x="48" y="0" type="line"/>
      <point x="138" y="0" type="line"/>
      <point x="155" y="105" type="line"/>
      <point x="173" y="105" type="line"/>
      <point x="158" y="126" type="line"/>
      <point x="145" y="42"/>
      <point x="195" y="-10"/>
    </contour>
    <contour>
      <point x="269" y="68" type="curve" smooth="yes"/>
      <point x="195" y="68"/>
      <point x="157" y="117"/>
      <point x="170" y="200" type="curve" smooth="yes"/>
      <point x="193" y="350" type="line" smooth="yes"/>
      <point x="207" y="433"/>
      <point x="260" y="482"/>
      <point x="334" y="482" type="curve" smooth="yes"/>
      <point x="410" y="482"/>
      <point x="447" y="435"/>
      <point x="433" y="350" type="curve" smooth="yes"/>
      <point x="410" y="200" type="line" smooth="yes"/>
      <point x="396" y="115"/>
      <point x="345" y="68"/>
    </contour>
  </outline>
</glyph>
<glyph name="d" format="2">
  <advance width="600"/>
  <unicode hex="0064"/>
  <anchor x="256" y="0" name="bottom"/>
  <anchor x="300" y="275" name="center"/>
  <anchor x="372" y="730" name="top"/>
  <anchor x="624" y="550" name="topright"/>
  <outline>
    <contour>
      <point x="223" y="-10" type="curve" smooth="yes"/>
      <point x="314" y="-10"/>
      <point x="382" y="42"/>
      <point x="395" y="126" type="curve"/>
      <point x="374" y="105" type="line"/>
      <point x="392" y="105" type="line"/>
      <point x="375" y="0" type="line"/>
      <point x="465" y="0" type="line"/>
      <point x="581" y="730" type="line"/>
      <point x="491" y="730" type="line"/>
      <point x="465" y="570" type="line"/>
      <point x="447" y="445" type="line"/>
      <point x="427" y="445" type="line"/>
      <point x="442" y="424" type="line"/>
      <point x="455" y="507"/>
      <point x="404" y="560"/>
      <point x="314" y="560" type="curve" smooth="yes"/>
      <point x="203" y="560"/>
      <point x="121" y="482"/>
      <point x="101" y="355" type="curve" smooth="yes"/>
      <point x="76" y="194" type="line" smooth="yes"/>
      <point x="56" y="68"/>
      <point x="113" y="-10"/>
    </contour>
    <contour>
      <point x="266" y="68" type="curve" smooth="yes"/>
      <point x="190" y="68"/>
      <point x="153" y="115"/>
      <point x="167" y="200" type="curve" smooth="yes"/>
      <point x="190" y="350" type="line" smooth="yes"/>
      <point x="204" y="435"/>
      <point x="255" y="482"/>
      <point x="331" y="482" type="curve" smooth="yes"/>
      <point x="405" y="482"/>
      <point x="444" y="433"/>
      <point x="430" y="350" type="curve" smooth="yes"/>
      <point x="407" y="200" type="line" smooth="yes"/>
      <point x="394" y="117"/>
      <point x="340" y="68"/>
    </contour>
  </outline>
</glyph>
<glyph name="f" format="2">
  <advance width="600"/>
  <unicode hex="0066"/>
  <anchor x="256" y="0" name="bottom"/>
  <anchor x="372" y="730" name="top"/>
  <outline>
    <contour>
      <point x="0" y="-180" type="line"/>
      <point x="73" y="-180" type="line" smooth="yes"/>
      <point x="181" y="-180"/>
      <point x="255" y="-119"/>
      <point x="271" y="-20" type="curve" smooth="yes"/>
      <point x="342" y="413" type="line"/>
      <point x="556" y="413" type="line"/>
      <point x="569" y="495" type="line"/>
      <point x="355" y="495" type="line"/>
      <point x="367" y="570" type="line" smooth="yes"/>
      <point x="375" y="623"/>
      <point x="405" y="648"/>
      <point x="461" y="648" type="curve" smooth="yes"/>
      <point x="587" y="648" type="line"/>
      <point x="600" y="730" type="line"/>
      <point x="475" y="730" type="line" smooth="yes"/>
      <point x="367" y="730"/>
      <point x="293" y="669"/>
      <point x="277" y="570" type="curve" smooth="yes"/>
      <point x="265" y="495" type="line"/>
      <point x="94" y="495" type="line"/>
      <point x="81" y="413" type="line"/>
      <point x="252" y="413" type="line"/>
      <point x="181" y="-20" type="line" smooth="yes"/>
      <point x="172" y="-73"/>
      <point x="143" y="-98"/>
      <point x="87" y="-98" type="curve" smooth="yes"/>
      <point x="13" y="-98" type="line"/>
    </contour>
  </outline>
</glyph>
<glyph name="g" format="2">
  <advance width="600"/>
  <unicode hex="0067"/>
  <anchor x="214" y="-270" name="bottom"/>
  <anchor x="340" y="550" name="top"/>
  <outline>
    <contour>
      <point x="90" y="-180" type="line"/>
      <point x="264" y="-180" type="line" smooth="yes"/>
      <point x="372" y="-180"/>
      <point x="446" y="-119"/>
      <point x="462" y="-20" type="curve" smooth="yes"/>
      <point x="552" y="550" type="line"/>
      <point x="463" y="550" type="line"/>
      <point x="446" y="445" type="line"/>
      <point x="429" y="445" type="line"/>
      <point x="444" y="430" type="line"/>
      <point x="457" y="510"/>
      <point x="407" y="560"/>
      <point x="318" y="560" type="curve" smooth="yes"/>
      <point x="205" y="560"/>
      <point x="122" y="481"/>
      <point x="102" y="356" type="curve" smooth="yes"/>
      <point x="84" y="240" type="line" smooth="yes"/>
      <point x="64" y="114"/>
      <point x="122" y="35"/>
      <point x="235" y="35" type="curve" smooth="yes"/>
      <point x="324" y="35"/>
      <point x="389" y="85"/>
      <point x="402" y="165" type="curve"/>
      <point x="383" y="150" type="line"/>
      <point x="401" y="150" type="line"/>
      <point x="383" y="50" type="line"/>
      <point x="372" y="-20" type="line" smooth="yes"/>
      <point x="363" y="-73"/>
      <point x="334" y="-98"/>
      <point x="278" y="-98" type="curve" smooth="yes"/>
      <point x="103" y="-98" type="line"/>
    </contour>
    <contour>
      <point x="274" y="113" type="curve" smooth="yes"/>
      <point x="198" y="113"/>
      <point x="161" y="160"/>
      <point x="175" y="245" type="curve" smooth="yes"/>
      <point x="191" y="350" type="line" smooth="yes"/>
      <point x="205" y="435"/>
      <point x="256" y="482"/>
      <point x="332" y="482" type="curve" smooth="yes"/>
      <point x="406" y="482"/>
      <point x="445" y="433"/>
      <point x="431" y="350" type="curve" smooth="yes"/>
      <point x="415" y="245" type="line" smooth="yes"/>
      <point x="402" y="162"/>
      <point x="348" y="113"/>
    </contour>
  </outline>
</glyph>
<glyph name="k" format="2">
  <advance width="600"/>
  <unicode hex="006B"/>
  <anchor x="256" y="0" name="bottom"/>
  <anchor x="372" y="730" name="top"/>
  <outline>
    <contour>
      <point x="51" y="0" type="line"/>
      <point x="141" y="0" type="line"/>
      <point x="180" y="245" type="line"/>
      <point x="279" y="245" type="line"/>
      <point x="400" y="0" type="line"/>
      <point x="503" y="0" type="line"/>
      <point x="361" y="285" type="line"/>
      <point x="587" y="550" type="line"/>
      <point x="482" y="550" type="line"/>
      <point x="286" y="323" type="line"/>
      <point x="192" y="323" type="line"/>
      <point x="257" y="730" type="line"/>
      <point x="167" y="730" type="line"/>
    </contour>
  </outline>
</glyph>
<glyph name="l" format="2">
  <advance width="600"/>
  <unicode hex="006C"/>
  <anchor x="240" y="0" name="bottom"/>
  <anchor x="314" y="365" name="center"/>
  <anchor x="312" y="730" name="top"/>
  <anchor x="652" y="730" name="topright"/>
  <outline>
    <contour>
      <point x="321" y="0" type="curve" smooth="yes"/>
      <point x="506" y="0" type="line"/>
      <point x="519" y="82" type="line"/>
      <point x="334" y="82" type="line" smooth="yes"/>
      <point x="291" y="82"/>
      <point x="269" y="110"/>
      <point x="276" y="155" type="curve" smooth="yes"/>
      <point x="367" y="730" type="line"/>
      <point x="112" y="730" type="line"/>
      <point x="99" y="648" type="line"/>
      <point x="264" y="648" type="line"/>
      <point x="186" y="155" type="line" smooth="yes"/>
      <point x="171" y="61"/>
      <point x="224" y="0"/>
    </contour>
  </outline>
</glyph>
<glyph name="m" format="2">
  <advance width="600"/>
  <unicode hex="006D"/>
  <anchor x="256" y="0" name="bottom"/>
  <anchor x="344" y="550" name="top"/>
  <outline>
    <contour>
      <point x="22" y="0" type="line"/>
      <point x="105" y="0" type="line"/>
      <point x="171" y="420" type="line" smooth="yes"/>
      <point x="178" y="465"/>
      <point x="201" y="491"/>
      <point x="238" y="491" type="curve" smooth="yes"/>
      <point x="275" y="491"/>
      <point x="293" y="465"/>
      <point x="286" y="419" type="curve" smooth="yes"/>
      <point x="220" y="0" type="line"/>
      <point x="292" y="0" type="line"/>
      <point x="358" y="420" type="line" smooth="yes"/>
      <point x="365" y="465"/>
      <point x="391" y="491"/>
      <point x="427" y="491" type="curve" smooth="yes"/>
      <point x="464" y="491"/>
      <point x="480" y="464"/>
      <point x="473" y="419" type="curve" smooth="yes"/>
      <point x="407" y="0" type="line"/>
      <point x="490" y="0" type="line"/>
      <point x="556" y="418" type="line" smooth="yes"/>
      <point x="569" y="503"/>
      <point x="538" y="560"/>
      <point x="469" y="560" type="curve" smooth="yes"/>
      <point x="413" y="560"/>
      <point x="370" y="521"/>
      <point x="361" y="460" type="curve"/>
      <point x="383" y="484" type="line"/>
      <point x="341" y="484" type="line"/>
      <point x="360" y="430" type="line"/>
      <point x="373" y="513"/>
      <point x="345" y="560"/>
      <point x="284" y="560" type="curve" smooth="yes"/>
      <point x="228" y="560"/>
      <point x="187" y="521"/>
      <point x="178" y="460" type="curve"/>
      <point x="195" y="484" type="line"/>
      <point x="177" y="484" type="line"/>
      <point x="188" y="550" type="line"/>
      <point x="109" y="550" type="line"/>
    </contour>
  </outline>
</glyph>
<glyph name="n" format="2">
  <advance width="600"/>
  <unicode hex="006E"/>
  <anchor x="256" y="0" name="bottom"/>
  <anchor x="344" y="550" name="top"/>
  <outline>
    <contour>
      <point x="48" y="0" type="line"/>
      <point x="138" y="0" type="line"/>
      <point x="193" y="350" type="line" smooth="yes"/>
      <point x="207" y="435"/>
      <point x="261" y="484"/>
      <point x="336" y="484" type="curve" smooth="yes"/>
      <point x="408" y="484"/>
      <point x="445" y="438"/>
      <point x="433" y="360" type="curve" smooth="yes"/>
      <point x="376" y="0" type="line"/>
      <point x="466" y="0" type="line"/>
      <point x="525" y="370" type="line" smooth="yes"/>
      <point x="543" y="487"/>
      <point x="484" y="560"/>
      <point x="374" y="560" type="curve" smooth="yes"/>
      <point x="282" y="560"/>
      <point x="219" y="510"/>
      <point x="205" y="424" type="curve"/>
      <point x="227" y="445" type="line"/>
      <point x="208" y="445" type="line"/>
      <point x="225" y="550" type="line"/>
      <point x="135" y="550" type="line"/>
    </contour>
  </outline>
</glyph>
<glyph name="p" format="2">
  <advance width="600"/>
  <unicode hex="0070"/>
  <anchor x="256" y="0" name="bottom"/>
  <anchor x="344" y="550" name="top"/>
  <outline>
    <contour>
      <point x="19" y="-180" type="line"/>
      <point x="109" y="-180" type="line"/>
      <point x="135" y="-20" type="line"/>
      <point x="153" y="105" type="line"/>
      <point x="173" y="105" type="line"/>
      <point x="158" y="126" type="line"/>
      <point x="145" y="43"/>
      <point x="197" y="-10"/>
      <point x="287" y="-10" type="curve" smooth="yes"/>
      <point x="398" y="-10"/>
      <point x="479" y="68"/>
      <point x="499" y="195" type="curve" smooth="yes"/>
      <point x="524" y="356" type="line" smooth="yes"/>
      <point x="544" y="482"/>
      <point x="488" y="560"/>
      <point x="378" y="560" type="curve" smooth="yes"/>
      <point x="287" y="560"/>
      <point x="218" y="508"/>
      <point x="205" y="424" type="curve"/>
      <point x="226" y="445" type="line"/>
      <point x="208" y="445" type="line"/>
      <point x="225" y="550" type="line"/>
      <point x="135" y="550" type="line"/>
    </contour>
    <contour>
      <point x="270" y="68" type="curve" smooth="yes"/>
      <point x="196" y="68"/>
      <point x="157" y="117"/>
      <point x="170" y="200" type="curve" smooth="yes"/>
      <point x="193" y="350" type="line" smooth="yes"/>
      <point x="207" y="433"/>
      <point x="261" y="482"/>
      <point x="335" y="482" type="curve" smooth="yes"/>
      <point x="411" y="482"/>
      <point x="447" y="435"/>
      <point x="433" y="350" type="curve" smooth="yes"/>
      <point x="410" y="200" type="line" smooth="yes"/>
      <point x="396" y="115"/>
      <point x="346" y="68"/>
    </contour>
  </outline>
</glyph>
<glyph name="r" format="2">
  <advance width="600"/>
  <unicode hex="0072"/>
  <anchor x="91" y="0" name="bottom"/>
  <anchor x="363" y="550" name="top"/>
  <outline>
    <contour>
      <point x="67" y="0" type="line"/>
      <point x="157" y="0" type="line"/>
      <point x="212" y="350" type="line" smooth="yes"/>
      <point x="226" y="435"/>
      <point x="280" y="484"/>
      <point x="356" y="484" type="curve" smooth="yes"/>
      <point x="433" y="484"/>
      <point x="469" y="436"/>
      <point x="455" y="350" type="curve" smooth="yes"/>
      <point x="451" y="325" type="line"/>
      <point x="541" y="325" type="line"/>
      <point x="547" y="358" type="line" smooth="yes"/>
      <point x="566" y="482"/>
      <point x="505" y="560"/>
      <point x="389" y="560" type="curve" smooth="yes"/>
      <point x="288" y="560"/>
      <point x="226" y="499"/>
      <point x="207" y="380" type="curve"/>
      <point x="246" y="445" type="line"/>
      <point x="225" y="445" type="line"/>
      <point x="242" y="550" type="line"/>
      <point x="154" y="550" type="line"/>
    </contour>
  </outline>
</glyph>
<glyph name="u" format="2">
  <advance width="600"/>
  <unicode hex="0075"/>
  <anchor x="256" y="0" name="bottom"/>
  <anchor x="463" y="550" name="horn"/>
  <anchor x="305" y="0" name="ogonek"/>
  <anchor x="343" y="550" name="top"/>
  <anchor x="624" y="550" name="topright"/>
  <outline>
    <contour>
      <point x="253" y="-10" type="curve" smooth="yes"/>
      <point x="380" y="-10"/>
      <point x="478" y="71"/>
      <point x="498" y="200" type="curve" smooth="yes"/>
      <point x="553" y="550" type="line"/>
      <point x="463" y="550" type="line"/>
      <point x="408" y="200" type="line" smooth="yes"/>
      <point x="395" y="117"/>
      <point x="341" y="69"/>
      <point x="266" y="69" type="curve" smooth="yes"/>
      <point x="192" y="69"/>
      <point x="155" y="117"/>
      <point x="168" y="200" type="curve" smooth="yes"/>
      <point x="223" y="550" type="line"/>
      <point x="133" y="550" type="line"/>
      <point x="78" y="200" type="line" smooth="yes"/>
      <point x="58" y="71"/>
      <point x="126" y="-10"/>
    </contour>
  </outline>
</glyph>
<glyph name="v" format="2">
  <advance width="600"/>
  <unicode hex="0076"/>
  <anchor x="256" y="0" name="bottom"/>
  <anchor x="344" y="550" name="top"/>
  <outline>
    <contour>
      <point x="195" y="0" type="line"/>
      <point x="317" y="0" type="line"/>
      <point x="583" y="550" type="line"/>
      <point x="489" y="550" type="line"/>
      <point x="317" y="180" type="line" smooth="yes"/>
      <point x="296" y="136"/>
      <point x="275" y="91"/>
      <point x="266" y="69" type="curve"/>
      <point x="263" y="91"/>
      <point x="258" y="136"/>
      <point x="251" y="180" type="curve" smooth="yes"/>
      <point x="192" y="550" type="line"/>
      <point x="103" y="550" type="line"/>
    </contour>
  </outline>
</glyph>
<glyph name="w" format="2">
  <advance width="600"/>
  <unicode hex="0077"/>
  <anchor x="256" y="0" name="bottom"/>
  <anchor x="343" y="550" name="top"/>
  <outline>
    <contour>
      <point x="79" y="0" type="line"/>
      <point x="178" y="0" type="line"/>
      <point x="300" y="380" type="line" smooth="yes"/>
      <point x="312" y="417"/>
      <point x="325" y="459"/>
      <point x="331" y="480" type="curve"/>
      <point x="331" y="459"/>
      <point x="331" y="417"/>
      <point x="331" y="380" type="curve" smooth="yes"/>
      <point x="330" y="0" type="line"/>
      <point x="429" y="0" type="line"/>
      <point x="608" y="550" type="line"/>
      <point x="532" y="550" type="line"/>
      <point x="413" y="160" type="line" smooth="yes"/>
      <point x="404" y="131"/>
      <point x="392" y="92"/>
      <point x="385" y="70" type="curve"/>
      <point x="386" y="92"/>
      <point x="385" y="131"/>
      <point x="385" y="160" type="curve" smooth="yes"/>
      <point x="386" y="550" type="line"/>
      <point x="298" y="550" type="line"/>
      <point x="174" y="160" type="line" smooth="yes"/>
      <point x="165" y="131"/>
      <point x="153" y="92"/>
      <point x="146" y="70" type="curve"/>
      <point x="147" y="92"/>
      <point x="147" y="131"/>
      <point x="148" y="160" type="curve" smooth="yes"/>
      <point x="155" y="550" type="line"/>
      <point x="78" y="550" type="line"/>
    </contour>
  </outline>
</glyph>
<glyph name="x" format="2">
  <advance width="600"/>
  <unicode hex="0078"/>
  <anchor x="256" y="0" name="bottom"/>
  <anchor x="344" y="550" name="top"/>
  <outline>
    <contour>
      <point x="11" y="0" type="line"/>
      <point x="118" y="0" type="line"/>
      <point x="260" y="180" type="line" smooth="yes"/>
      <point x="272" y="195"/>
      <point x="285" y="217"/>
      <point x="293" y="229" type="curve"/>
      <point x="297" y="217"/>
      <point x="305" y="195"/>
      <point x="312" y="180" type="curve" smooth="yes"/>
      <point x="397" y="0" type="line"/>
      <point x="501" y="0" type="line"/>
      <point x="357" y="279" type="line"/>
      <point x="577" y="550" type="line"/>
      <point x="470" y="550" type="line"/>
      <point x="339" y="380" type="line" smooth="yes"/>
      <point x="328" y="365"/>
      <point x="316" y="346"/>
      <point x="310" y="335" type="curve"/>
      <point x="307" y="346"/>
      <point x="299" y="365"/>
      <point x="292" y="380" type="curve" smooth="yes"/>
      <point x="214" y="550" type="line"/>
      <point x="110" y="550" type="line"/>
      <point x="246" y="286" type="line"/>
    </contour>
  </outline>
</glyph>
<glyph name="y" format="2">
  <advance width="600"/>
  <unicode hex="0079"/>
  <anchor x="256" y="0" name="bottom"/>
  <anchor x="343" y="550" name="top"/>
  <outline>
    <contour>
      <point x="90" y="-180" type="line"/>
      <point x="264" y="-180" type="line" smooth="yes"/>
      <point x="372" y="-180"/>
      <point x="447" y="-119"/>
      <point x="462" y="-20" type="curve" smooth="yes"/>
      <point x="553" y="550" type="line"/>
      <point x="463" y="550" type="line"/>
      <point x="416" y="250" type="line" smooth="yes"/>
      <point x="403" y="165"/>
      <point x="348" y="116"/>
      <point x="273" y="116" type="curve" smooth="yes"/>
      <point x="201" y="116"/>
      <point x="163" y="162"/>
      <point x="176" y="240" type="curve" smooth="yes"/>
      <point x="225" y="550" type="line"/>
      <point x="135" y="550" type="line"/>
      <point x="84" y="230" type="line" smooth="yes"/>
      <point x="65" y="113"/>
      <point x="125" y="40"/>
      <point x="235" y="40" type="curve" smooth="yes"/>
      <point x="327" y="40"/>
      <point x="390" y="90"/>
      <point x="404" y="176" type="curve"/>
      <point x="382" y="155" type="line"/>
      <point x="401" y="155" type="line"/>
      <point x="384" y="55" type="line"/>
      <point x="372" y="-20" type="line" smooth="yes"/>
      <point x="364" y="-74"/>
      <point x="334" y="-98"/>
      <point x="278" y="-98" type="curve" smooth="yes"/>
      <point x="103" y="-98" type="line"/>
    </contour>
  </outline>
</glyph>
<glyph name="z" format="2">
  <advance width="600"/>
  <unicode hex="007A"/>
  <anchor x="256" y="0" name="bottom"/>
  <anchor x="300" y="275" name="center"/>
  <anchor x="343" y="550" name="top"/>
  <outline>
    <contour>
      <point x="46" y="0" type="line"/>
      <point x="466" y="0" type="line"/>
      <point x="479" y="82" type="line"/>
      <point x="158" y="82" type="line"/>
      <point x="528" y="460" type="line"/>
      <point x="542" y="550" type="line"/>
      <point x="141" y="550" type="line"/>
      <point x="128" y="468" type="line"/>
      <point x="424" y="468" type="line"/>
      <point x="60" y="90" type="line"/>
    </contour>
  </outline>
</glyph>
<glyph name="asciitilde" format="2">
  <advance width="600"/>
  <unicode hex="007E"/>
  <outline>
    <contour>
      <point x="66" y="255" type="line"/>
      <point x="151" y="255" type="line"/>
      <point x="162" y="325" type="line" smooth="yes"/>
      <point x="168" y="361"/>
      <point x="188" y="380"/>
      <point x="218" y="380" type="curve" smooth="yes"/>
      <point x="286" y="380"/>
      <point x="271" y="250"/>
      <point x="396" y="250" type="curve" smooth="yes"/>
      <point x="474" y="250"/>
      <point x="534" y="303"/>
      <point x="546" y="380" type="curve" smooth="yes"/>
      <point x="557" y="450" type="line"/>
      <point x="472" y="450" type="line"/>
      <point x="461" y="380" type="line" smooth="yes"/>
      <point x="455" y="344"/>
      <point x="435" y="325"/>
      <point x="405" y="325" type="curve" smooth="yes"/>
      <point x="337" y="325"/>
      <point x="353" y="455"/>
      <point x="228" y="455" type="curve" smooth="yes"/>
      <point x="150" y="455"/>
      <point x="90" y="403"/>
      <point x="77" y="325" type="curve" smooth="yes"/>
    </contour>
  </outline>
</glyph>
<glyph name="cent" format="2">
  <advance width="600"/>
  <unicode hex="00A2"/>
  <anchor x="260" y="0" name="bottom"/>
  <anchor x="347" y="550" name="top"/>
  <outline>
    <contour>
      <point x="214" y="-140" type="line"/>
      <point x="274" y="-140" type="line"/>
      <point x="405" y="690" type="line"/>
      <point x="345" y="690" type="line"/>
    </contour>
    <component base="c"/>
  </outline>
</glyph>
<glyph name="sterling" format="2">
  <advance width="600"/>
  <unicode hex="00A3"/>
  <outline>
    <contour>
      <point x="31" y="0" type="line"/>
      <point x="491" y="0" type="line"/>
      <point x="504" y="80" type="line"/>
      <point x="134" y="80" type="line"/>
      <point x="185" y="108"/>
      <point x="259" y="176"/>
      <point x="273" y="263" type="curve" smooth="yes"/>
      <point x="298" y="422"/>
      <point x="204" y="446"/>
      <point x="220" y="550" type="curve" smooth="yes"/>
      <point x="231" y="620"/>
      <point x="282" y="660"/>
      <point x="360" y="660" type="curve" smooth="yes"/>
      <point x="433" y="660"/>
      <point x="474" y="617"/>
      <point x="463" y="550" type="curve"/>
      <point x="558" y="550" type="line"/>
      <point x="575" y="669"/>
      <point x="505" y="740"/>
      <point x="373" y="740" type="curve" smooth="yes"/>
      <point x="242" y="740"/>
      <point x="148" y="668"/>
      <point x="130" y="555" type="curve" smooth="yes"/>
      <point x="110" y="429"/>
      <point x="203" y="398"/>
      <point x="180" y="254" type="curve" smooth="yes"/>
      <point x="172" y="204"/>
      <point x="100" y="137"/>
      <point x="47" y="100" type="curve"/>
    </contour>
    <contour>
      <point x="79" y="305" type="line"/>
      <point x="439" y="305" type="line"/>
      <point x="452" y="385" type="line"/>
      <point x="92" y="385" type="line"/>
    </contour>
  </outline>
</glyph>
<glyph name="currency" format="2">
  <advance width="600"/>
  <unicode hex="00A4"/>
  <outline>
    <contour>
      <point x="471" y="113" type="line"/>
      <point x="542" y="174" type="line"/>
      <point x="444" y="290" type="line"/>
      <point x="453" y="241" type="line"/>
      <point x="487" y="277"/>
      <point x="511" y="322"/>
      <point x="520" y="373" type="curve" smooth="yes"/>
      <point x="529" y="424"/>
      <point x="519" y="470"/>
      <point x="495" y="506" type="curve"/>
      <point x="476" y="456" type="line"/>
      <point x="603" y="565" type="line"/>
      <point x="549" y="628" type="line"/>
      <point x="421" y="517" type="line"/>
      <point x="473" y="528" type="line"/>
      <point x="443" y="558"/>
      <point x="400" y="575"/>
      <point x="348" y="575" type="curve" smooth="yes"/>
      <point x="299" y="575"/>
      <point x="252" y="560"/>
      <point x="215" y="533" type="curve"/>
      <point x="261" y="516" type="line"/>
      <point x="161" y="635" type="line"/>
      <point x="90" y="574" type="line"/>
      <point x="188" y="457" type="line"/>
      <point x="181" y="506" type="line"/>
      <point x="143" y="470"/>
      <point x="119" y="425"/>
      <point x="110" y="373" type="curve" smooth="yes"/>
      <point x="101" y="321"/>
      <point x="113" y="274"/>
      <point x="138" y="241" type="curve"/>
      <point x="155" y="290" type="line"/>
      <point x="29" y="179" type="line"/>
      <point x="82" y="114" type="line"/>
      <point x="212" y="225" type="line"/>
      <point x="161" y="216" type="line"/>
      <point x="191" y="187"/>
      <point x="233" y="171"/>
      <point x="284" y="171" type="curve" smooth="yes"/>
      <point x="333" y="171"/>
      <point x="381" y="186"/>
      <point x="418" y="215" type="curve"/>
      <point x="372" y="231" type="line"/>
    </contour>
    <contour>
      <point x="295" y="240" type="curve" smooth="yes"/>
      <point x="220" y="240"/>
      <point x="172" y="297"/>
      <point x="184" y="373" type="curve" smooth="yes"/>
      <point x="196" y="449"/>
      <point x="262" y="506"/>
      <point x="337" y="506" type="curve" smooth="yes"/>
      <point x="411" y="506"/>
      <point x="458" y="449"/>
      <point x="446" y="373" type="curve" smooth="yes"/>
      <point x="434" y="297"/>
      <point x="369" y="240"/>
    </contour>
  </outline>
</glyph>
<glyph name="guillemetleft" format="2">
  <advance width="600"/>
  <unicode hex="00AB"/>
  <outline>
    <contour>
      <point x="427" y="40" type="line"/>
      <point x="528" y="40" type="line"/>
      <point x="365" y="277" type="line"/>
      <point x="612" y="520" type="line"/>
      <point x="502" y="520" type="line"/>
      <point x="263" y="280" type="line"/>
    </contour>
    <contour>
      <point x="194" y="40" type="line"/>
      <point x="295" y="40" type="line"/>
      <point x="132" y="277" type="line"/>
      <point x="379" y="520" type="line"/>
      <point x="269" y="520" type="line"/>
      <point x="30" y="280" type="line"/>
    </contour>
  </outline>
</glyph>
<glyph name="threesuperior" format="2">
  <advance width="600"/>
  <unicode hex="00B3"/>
  <outline>
    <contour>
      <point x="303" y="395" type="curve" smooth="yes"/>
      <point x="394" y="395"/>
      <point x="459" y="449"/>
      <point x="473" y="535" type="curve" smooth="yes"/>
      <point x="486" y="617"/>
      <point x="438" y="669"/>
      <point x="350" y="669" type="curve"/>
      <point x="346" y="639" type="line"/>
      <point x="480" y="754" type="line"/>
      <point x="493" y="831" type="line"/>
      <point x="253" y="831" type="line"/>
      <point x="242" y="767" type="line"/>
      <point x="422" y="767" type="line"/>
      <point x="318" y="678" type="line"/>
      <point x="308" y="611" type="line"/>
      <point x="338" y="611" type="line" smooth="yes"/>
      <point x="384" y="611"/>
      <point x="408" y="582"/>
      <point x="401" y="535" type="curve" smooth="yes"/>
      <point x="393" y="488"/>
      <point x="360" y="458"/>
      <point x="313" y="458" type="curve" smooth="yes"/>
      <point x="264" y="458"/>
      <point x="238" y="488"/>
      <point x="246" y="535" type="curve"/>
      <point x="177" y="535" type="line"/>
      <point x="163" y="449"/>
      <point x="212" y="395"/>
    </contour>
  </outline>
</glyph>
<glyph name="onesuperior" format="2">
  <advance width="600"/>
  <unicode hex="00B9"/>
  <outline>
    <contour>
      <point x="175" y="405" type="line"/>
      <point x="480" y="405" type="line"/>
      <point x="490" y="469" type="line"/>
      <point x="386" y="469" type="line"/>
      <point x="443" y="830" type="line"/>
      <point x="348" y="830" type="line"/>
      <point x="240" y="759" type="line"/>
      <point x="228" y="680" type="line"/>
      <point x="363" y="767" type="line"/>
      <point x="316" y="469" type="line"/>
      <point x="185" y="469" type="line"/>
    </contour>
  </outline>
</glyph>
<glyph name="guillemetright" format="2">
  <advance width="600"/>
  <unicode hex="00BB"/>
  <outline>
    <contour>
      <point x="222" y="40" type="line"/>
      <point x="331" y="40" type="line"/>
      <point x="570" y="280" type="line"/>
      <point x="406" y="520" type="line"/>
      <point x="305" y="520" type="line"/>
      <point x="467" y="286" type="line"/>
    </contour>
    <contour>
      <point x="-11" y="40" type="line"/>
      <point x="98" y="40" type="line"/>
      <point x="337" y="280" type="line"/>
      <point x="173" y="520" type="line"/>
      <point x="72" y="520" type="line"/>
      <point x="234" y="286" type="line"/>
    </contour>
  </outline>
</glyph>
<glyph name="onequarter" format="2">
  <advance width="600"/>
  <unicode hex="00BC"/>
  <outline>
    <contour>
      <point x="50" y="405" type="line"/>
      <point x="325" y="405" type="line"/>
      <point x="333" y="455" type="line"/>
      <point x="236" y="455" type="line"/>
      <point x="280" y="730" type="line"/>
      <point x="195" y="730" type="line"/>
      <point x="115" y="669" type="line"/>
      <point x="104" y="599" type="line"/>
      <point x="174" y="653" type="line" smooth="yes"/>
      <point x="191" y="666"/>
      <point x="206" y="682"/>
      <point x="213" y="691" type="curve"/>
      <point x="176" y="455" type="line"/>
      <point x="58" y="455" type="line"/>
    </contour>
    <contour>
      <point x="436" y="0" type="line"/>
      <point x="496" y="0" type="line"/>
      <point x="529" y="209" type="line"/>
      <point x="469" y="209" type="line"/>
      <point x="455" y="120" type="line"/>
      <point x="340" y="120" type="line"/>
      <point x="343" y="136" type="line"/>
      <point x="507" y="325" type="line"/>
      <point x="438" y="325" type="line"/>
      <point x="285" y="150" type="line"/>
      <point x="272" y="70" type="line"/>
      <point x="447" y="70" type="line"/>
    </contour>
    <component base="fraction"/>
  </outline>
</glyph>
<glyph name="onehalf" format="2">
  <advance width="600"/>
  <unicode hex="00BD"/>
  <outline>
    <contour>
      <point x="271" y="0" type="line"/>
      <point x="526" y="0" type="line"/>
      <point x="534" y="50" type="line"/>
      <point x="425" y="50" type="line" smooth="yes"/>
      <point x="396" y="50"/>
      <point x="364" y="45"/>
      <point x="349" y="42" type="curve"/>
      <point x="350" y="52" type="line"/>
      <point x="451" y="104" type="line" smooth="yes"/>
      <point x="511" y="135"/>
      <point x="549" y="177"/>
      <point x="556" y="218" type="curve" smooth="yes"/>
      <point x="566" y="285"/>
      <point x="523" y="330"/>
      <point x="448" y="330" type="curve" smooth="yes"/>
      <point x="376" y="330"/>
      <point x="319" y="285"/>
      <point x="305" y="216" type="curve"/>
      <point x="365" y="216" type="line"/>
      <point x="371" y="255"/>
      <point x="401" y="280"/>
      <point x="440" y="280" type="curve" smooth="yes"/>
      <point x="479" y="280"/>
      <point x="501" y="255"/>
      <point x="495" y="216" type="curve" smooth="yes"/>
      <point x="491" y="187"/>
      <point x="463" y="160"/>
      <point x="412" y="133" type="curve" smooth="yes"/>
      <point x="281" y="64" type="line"/>
    </contour>
    <contour>
      <point x="50" y="405" type="line"/>
      <point x="335" y="405" type="line"/>
      <point x="343" y="455" type="line"/>
      <point x="236" y="455" type="line"/>
      <point x="280" y="730" type="line"/>
      <point x="195" y="730" type="line"/>
      <point x="115" y="669" type="line"/>
      <point x="104" y="599" type="line"/>
      <point x="174" y="653" type="line" smooth="yes"/>
      <point x="191" y="666"/>
      <point x="206" y="682"/>
      <point x="213" y="691" type="curve"/>
      <point x="176" y="455" type="line"/>
      <point x="58" y="455" type="line"/>
    </contour>
    <component base="fraction"/>
  </outline>
</glyph>
<glyph name="threequarters" format="2">
  <advance width="600"/>
  <unicode hex="00BE"/>
  <outline>
    <contour>
      <point x="436" y="0" type="line"/>
      <point x="496" y="0" type="line"/>
      <point x="529" y="209" type="line"/>
      <point x="469" y="209" type="line"/>
      <point x="455" y="120" type="line"/>
      <point x="340" y="120" type="line"/>
      <point x="343" y="136" type="line"/>
      <point x="507" y="325" type="line"/>
      <point x="438" y="325" type="line"/>
      <point x="285" y="150" type="line"/>
      <point x="272" y="70" type="line"/>
      <point x="447" y="70" type="line"/>
    </contour>
    <contour>
      <point x="173" y="400" type="curve" smooth="yes"/>
      <point x="249" y="400"/>
      <point x="307" y="442"/>
      <point x="317" y="505" type="curve" smooth="yes"/>
      <point x="327" y="568"/>
      <point x="284" y="610"/>
      <point x="211" y="610" type="curve"/>
      <point x="208" y="592" type="line"/>
      <point x="328" y="675" type="line"/>
      <point x="337" y="730" type="line"/>
      <point x="122" y="730" type="line"/>
      <point x="114" y="680" type="line"/>
      <point x="270" y="680" type="line"/>
      <point x="179" y="617" type="line"/>
      <point x="170" y="560" type="line"/>
      <point x="200" y="560" type="line" smooth="yes"/>
      <point x="239" y="560"/>
      <point x="262" y="538"/>
      <point x="257" y="505" type="curve" smooth="yes"/>
      <point x="252" y="472"/>
      <point x="221" y="450"/>
      <point x="181" y="450" type="curve" smooth="yes"/>
      <point x="140" y="450"/>
      <point x="117" y="472"/>
      <point x="122" y="505" type="curve"/>
      <point x="62" y="505" type="line"/>
      <point x="52" y="442"/>
      <point x="96" y="400"/>
    </contour>
    <component base="fraction"/>
  </outline>
</glyph>
<glyph name="Ccedilla" format="2">
  <advance width="600"/>
  <unicode hex="00C7"/>
  <anchor x="261" y="0" name="bottom"/>
  <anchor x="377" y="730" name="top"/>
  <outline>
    <contour>
      <point x="134" y="-203" type="line"/>
      <point x="219" y="-203" type="line" smooth="yes"/>
      <point x="291" y="-203"/>
      <point x="345" y="-166"/>
      <point x="352" y="-120" type="curve" smooth="yes"/>
      <point x="360" y="-68"/>
      <point x="297" y="-41"/>
      <point x="245" y="-35" type="curve"/>
      <point x="276" y="26" type="line"/>
      <point x="219" y="26" type="line"/>
      <point x="169" y="-69" type="line"/>
      <point x="236" y="-69"/>
      <point x="271" y="-89"/>
      <point x="267" y="-112" type="curve" smooth="yes"/>
      <point x="264" y="-130"/>
      <point x="242" y="-148"/>
      <point x="213" y="-148" type="curve" smooth="yes"/>
      <point x="143" y="-148" type="line"/>
    </contour>
    <component base="C"/>
  </outline>
</glyph>
<glyph name="Eth" format="2">
  <advance width="600"/>
  <unicode hex="00D0"/>
  <anchor x="256" y="0" name="bottom"/>
  <anchor x="314" y="365" name="center"/>
  <anchor x="372" y="730" name="top"/>
  <outline>
    <contour>
      <point x="10" y="335" type="line"/>
      <point x="290" y="335" type="line"/>
      <point x="290" y="410" type="line"/>
      <point x="10" y="410" type="line"/>
    </contour>
    <component base="D"/>
  </outline>
</glyph>
<glyph name="multiply" format="2">
  <advance width="600"/>
  <unicode hex="00D7"/>
  <outline>
    <contour>
      <point x="135" y="135" type="line"/>
      <point x="300" y="278" type="line"/>
      <point x="418" y="137" type="line"/>
      <point x="476" y="187" type="line"/>
      <point x="357" y="327" type="line"/>
      <point x="526" y="473" type="line"/>
      <point x="481" y="527" type="line"/>
      <point x="312" y="381" type="line"/>
      <point x="194" y="521" type="line"/>
      <point x="137" y="472" type="line"/>
      <point x="254" y="331" type="line"/>
      <point x="90" y="189" type="line"/>
    </contour>
  </outline>
</glyph>
<glyph name="Oslash" format="2">
  <advance width="600"/>
  <unicode hex="00D8"/>
  <anchor x="256" y="0" name="bottom"/>
  <anchor x="392" y="730" name="horn"/>
  <anchor x="372" y="730" name="top"/>
  <outline>
    <contour>
      <point x="-15" y="-40" type="line"/>
      <point x="71" y="-40" type="line"/>
      <point x="640" y="750" type="line"/>
      <point x="554" y="750" type="line"/>
    </contour>
    <contour>
      <point x="254" y="-10" type="curve" smooth="yes"/>
      <point x="385" y="-10"/>
      <point x="479" y="69"/>
      <point x="500" y="200" type="curve" smooth="yes"/>
      <point x="552" y="531" type="line" smooth="yes"/>
      <point x="572" y="661"/>
      <point x="504" y="740"/>
      <point x="373" y="740" type="curve" smooth="yes"/>
      <point x="242" y="740"/>
      <point x="149" y="661"/>
      <point x="128" y="530" type="curve" smooth="yes"/>
      <point x="76" y="200" type="line" smooth="yes"/>
      <point x="55" y="69"/>
      <point x="123" y="-10"/>
    </contour>
    <contour>
      <point x="267" y="71" type="curve" smooth="yes"/>
      <point x="189" y="71"/>
      <point x="153" y="117"/>
      <point x="166" y="200" type="curve" smooth="yes"/>
      <point x="218" y="530" type="line" smooth="yes"/>
      <point x="231" y="613"/>
      <point x="282" y="659"/>
      <point x="360" y="659" type="curve" smooth="yes"/>
      <point x="438" y="659"/>
      <point x="475" y="613"/>
      <point x="462" y="530" type="curve" smooth="yes"/>
      <point x="410" y="200" type="line" smooth="yes"/>
      <point x="397" y="117"/>
      <point x="345" y="71"/>
    </contour>
  </outline>
</glyph>
<glyph name="germandbls" format="2">
  <advance width="600"/>
  <unicode hex="00DF"/>
  <outline>
    <contour>
      <point x="-132" y="-180" type="line"/>
      <point x="-63" y="-180" type="line" smooth="yes"/>
      <point x="45" y="-180"/>
      <point x="119" y="-119"/>
      <point x="135" y="-20" type="curve" smooth="yes"/>
      <point x="223" y="534" type="line" smooth="yes"/>
      <point x="235" y="611"/>
      <point x="289" y="658"/>
      <point x="363" y="658" type="curve" smooth="yes"/>
      <point x="436" y="658"/>
      <point x="475" y="613"/>
      <point x="463" y="536" type="curve" smooth="yes"/>
      <point x="452" y="465"/>
      <point x="398" y="413"/>
      <point x="324" y="413" type="curve" smooth="yes"/>
      <point x="282" y="413" type="line"/>
      <point x="270" y="335" type="line"/>
      <point x="314" y="335" type="line" smooth="yes"/>
      <point x="395" y="335"/>
      <point x="437" y="288"/>
      <point x="424" y="211" type="curve" smooth="yes"/>
      <point x="412" y="134"/>
      <point x="354" y="82"/>
      <point x="274" y="82" type="curve" smooth="yes"/>
      <point x="218" y="82" type="line"/>
      <point x="205" y="0" type="line"/>
      <point x="271" y="0" type="line" smooth="yes"/>
      <point x="400" y="0"/>
      <point x="500" y="86"/>
      <point x="519" y="208" type="curve" smooth="yes"/>
      <point x="537" y="325"/>
      <point x="474" y="400"/>
      <point x="359" y="398" type="curve"/>
      <point x="357" y="383" type="line"/>
      <point x="463" y="381"/>
      <point x="544" y="453"/>
      <point x="560" y="554" type="curve" smooth="yes"/>
      <point x="579" y="674"/>
      <point x="504" y="740"/>
      <point x="376" y="740" type="curve" smooth="yes"/>
      <point x="248" y="740"/>
      <point x="153" y="658"/>
      <point x="133" y="534" type="curve" smooth="yes"/>
      <point x="45" y="-20" type="line" smooth="yes"/>
      <point x="37" y="-73"/>
      <point x="7" y="-98"/>
      <point x="-49" y="-98" type="curve" smooth="yes"/>
      <point x="-119" y="-98" type="line"/>
    </contour>
  </outline>
</glyph>
<glyph name="ccedilla" format="2">
  <advance width="600"/>
  <unicode hex="00E7"/>
  <anchor x="260" y="0" name="_bottom"/>
  <anchor x="260" y="0" name="bottom"/>
  <anchor x="347" y="550" name="top"/>
  <outline>
    <contour>
      <point x="133" y="-203" type="line"/>
      <point x="218" y="-203" type="line" smooth="yes"/>
      <point x="290" y="-203"/>
      <point x="344" y="-166"/>
      <point x="351" y="-120" type="curve" smooth="yes"/>
      <point x="359" y="-68"/>
      <point x="296" y="-41"/>
      <point x="244" y="-35" type="curve"/>
      <point x="275" y="26" type="line"/>
      <point x="218" y="26" type="line"/>
      <point x="168" y="-69" type="line"/>
      <point x="235" y="-69"/>
      <point x="270" y="-89"/>
      <point x="266" y="-112" type="curve" smooth="yes"/>
      <point x="263" y="-130"/>
      <point x="241" y="-148"/>
      <point x="212" y="-148" type="curve" smooth="yes"/>
      <point x="142" y="-148" type="line"/>
    </contour>
    <component base="c"/>
  </outline>
</glyph>
<glyph name="eth" format="2">
  <advance width="600"/>
  <unicode hex="00F0"/>
  <outline>
    <contour>
      <point x="253" y="-10" type="curve" smooth="yes"/>
      <point x="392" y="-10"/>
      <point x="499" y="83"/>
      <point x="521" y="223" type="curve" smooth="yes"/>
      <point x="535" y="308"/>
      <point x="515" y="410"/>
      <point x="466" y="493" type="curve" smooth="yes"/>
      <point x="401" y="604" type="line"/>
      <point x="521" y="653" type="line"/>
      <point x="533" y="735" type="line"/>
      <point x="366" y="668" type="line"/>
      <point x="332" y="730" type="line"/>
      <point x="237" y="730" type="line"/>
      <point x="292" y="633" type="line"/>
      <point x="164" y="577" type="line"/>
      <point x="151" y="496" type="line"/>
      <point x="327" y="569" type="line"/>
      <point x="377" y="480" type="line" smooth="yes"/>
      <point x="405" y="430"/>
      <point x="421" y="393"/>
      <point x="425" y="380" type="curve"/>
      <point x="411" y="380" type="line"/>
      <point x="400" y="404"/>
      <point x="364" y="436"/>
      <point x="306" y="436" type="curve" smooth="yes"/>
      <point x="179" y="436"/>
      <point x="81" y="348"/>
      <point x="60" y="215" type="curve" smooth="yes"/>
      <point x="39" y="80"/>
      <point x="116" y="-10"/>
    </contour>
    <contour>
      <point x="266" y="70" type="curve" smooth="yes"/>
      <point x="183" y="70"/>
      <point x="136" y="128"/>
      <point x="150" y="215" type="curve" smooth="yes"/>
      <point x="164" y="302"/>
      <point x="229" y="360"/>
      <point x="312" y="360" type="curve" smooth="yes"/>
      <point x="397" y="360"/>
      <point x="444" y="302"/>
      <point x="430" y="215" type="curve" smooth="yes"/>
      <point x="416" y="128"/>
      <point x="351" y="70"/>
    </contour>
  </outline>
</glyph>
<glyph name="oslash" format="2">
  <advance width="600"/>
  <unicode hex="00F8"/>
  <anchor x="256" y="0" name="bottom"/>
  <anchor x="375" y="550" name="horn"/>
  <anchor x="343" y="550" name="top"/>
  <outline>
    <contour>
      <point x="-14" y="-30" type="line"/>
      <point x="78" y="-30" type="line"/>
      <point x="614" y="590" type="line"/>
      <point x="521" y="590" type="line"/>
    </contour>
    <contour>
      <point x="254" y="-10" type="curve" smooth="yes"/>
      <point x="385" y="-10"/>
      <point x="479" y="69"/>
      <point x="500" y="200" type="curve" smooth="yes"/>
      <point x="524" y="351" type="line" smooth="yes"/>
      <point x="545" y="481"/>
      <point x="476" y="560"/>
      <point x="345" y="560" type="curve" smooth="yes"/>
      <point x="214" y="560"/>
      <point x="119" y="481"/>
      <point x="99" y="350" type="curve" smooth="yes"/>
      <point x="76" y="200" type="line" smooth="yes"/>
      <point x="56" y="69"/>
      <point x="123" y="-10"/>
    </contour>
    <contour>
      <point x="267" y="70" type="curve" smooth="yes"/>
      <point x="187" y="70"/>
      <point x="148" y="118"/>
      <point x="161" y="200" type="curve" smooth="yes"/>
      <point x="184" y="350" type="line" smooth="yes"/>
      <point x="197" y="432"/>
      <point x="252" y="480"/>
      <point x="332" y="480" type="curve" smooth="yes"/>
      <point x="412" y="480"/>
      <point x="451" y="432"/>
      <point x="438" y="350" type="curve" smooth="yes"/>
      <point x="415" y="200" type="line" smooth="yes"/>
      <point x="402" y="118"/>
      <point x="347" y="70"/>
    </contour>
  </outline>
</glyph>
<glyph name="thorn" format="2">
  <advance width="600"/>
  <unicode hex="00FE"/>
  <anchor x="251" y="0" name="bottom"/>
  <anchor x="367" y="730" name="top"/>
  <outline>
    <contour>
      <point x="14" y="-180" type="line"/>
      <point x="104" y="-180" type="line"/>
      <point x="142" y="59" type="line"/>
      <point x="52" y="59" type="line"/>
    </contour>
    <component base="b" xOffset="-5"/>
  </outline>
</glyph>
<glyph name="aogonek" format="2">
  <advance width="600"/>
  <unicode hex="0105"/>
  <anchor x="261" y="0" name="bottom"/>
  <anchor x="420" y="0" name="ogonek"/>
  <anchor x="348" y="550" name="top"/>
  <outline>
    <contour>
      <point x="405" y="-203" type="curve" smooth="yes"/>
      <point x="483" y="-203" type="line"/>
      <point x="492" y="-143" type="line"/>
      <point x="432" y="-143" type="line" smooth="yes"/>
      <point x="398" y="-143"/>
      <point x="381" y="-122"/>
      <point x="385" y="-93" type="curve" smooth="yes"/>
      <point x="390" y="-65"/>
      <point x="413" y="-37"/>
      <point x="464" y="0" type="curve"/>
      <point x="402" y="10" type="line"/>
      <point x="332" y="-34"/>
      <point x="304" y="-72"/>
      <point x="298" y="-110" type="curve" smooth="yes"/>
      <point x="289" y="-164"/>
      <point x="331" y="-203"/>
    </contour>
    <component base="a"/>
  </outline>
</glyph>
<glyph name="Dcroat" format="2">
  <advance width="600"/>
  <unicode hex="0110"/>
  <anchor x="256" y="0" name="bottom"/>
  <anchor x="314" y="365" name="center"/>
  <anchor x="372" y="730" name="top"/>
  <outline>
    <contour>
      <point x="10" y="335" type="line"/>
      <point x="290" y="335" type="line"/>
      <point x="302" y="410" type="line"/>
      <point x="22" y="410" type="line"/>
    </contour>
    <component base="D"/>
  </outline>
</glyph>
<glyph name="dcroat" format="2">
  <advance width="600"/>
  <unicode hex="0111"/>
  <outline>
    <contour>
      <point x="77" y="194" type="line" smooth="yes"/>
      <point x="57" y="68"/>
      <point x="112" y="-10"/>
      <point x="222" y="-10" type="curve" smooth="yes"/>
      <point x="306" y="-10"/>
      <point x="367" y="33"/>
      <point x="387" y="105" type="curve"/>
      <point x="389" y="105" type="line"/>
      <point x="372" y="0" type="line"/>
      <point x="462" y="0" type="line"/>
      <point x="552" y="570" type="line"/>
      <point x="646" y="570" type="line"/>
      <point x="658" y="645" type="line"/>
      <point x="564" y="645" type="line"/>
      <point x="578" y="730" type="line"/>
      <point x="488" y="730" type="line"/>
      <point x="474" y="645" type="line"/>
      <point x="308" y="645" type="line"/>
      <point x="296" y="570" type="line"/>
      <point x="462" y="570" type="line"/>
      <point x="453" y="510" type="line"/>
      <point x="435" y="385" type="line"/>
      <point x="432" y="385" type="line"/>
      <point x="434" y="456"/>
      <point x="385" y="500"/>
      <point x="303" y="500" type="curve" smooth="yes"/>
      <point x="192" y="500"/>
      <point x="113" y="422"/>
      <point x="93" y="295" type="curve" smooth="yes"/>
    </contour>
    <contour>
      <point x="168" y="200" type="curve" smooth="yes"/>
      <point x="182" y="290" type="line" smooth="yes"/>
      <point x="195" y="375"/>
      <point x="245" y="422"/>
      <point x="321" y="422" type="curve" smooth="yes"/>
      <point x="395" y="422"/>
      <point x="431" y="373"/>
      <point x="418" y="290" type="curve" smooth="yes"/>
      <point x="404" y="200" type="line" smooth="yes"/>
      <point x="391" y="117"/>
      <point x="339" y="68"/>
      <point x="265" y="68" type="curve" smooth="yes"/>
      <point x="189" y="68"/>
      <point x="154" y="115"/>
    </contour>
  </outline>
</glyph>
<glyph name="Eogonek" format="2">
  <advance width="600"/>
  <unicode hex="0118"/>
  <anchor x="320" y="0" name="bottom"/>
  <anchor x="390" y="0" name="ogonek"/>
  <anchor x="392" y="730" name="top"/>
  <anchor x="92" y="730" name="topleft"/>
  <outline>
    <contour>
      <point x="371" y="-203" type="curve" smooth="yes"/>
      <point x="449" y="-203" type="line"/>
      <point x="458" y="-143" type="line"/>
      <point x="398" y="-143" type="line" smooth="yes"/>
      <point x="364" y="-143"/>
      <point x="347" y="-122"/>
      <point x="351" y="-93" type="curve" smooth="yes"/>
      <point x="356" y="-65"/>
      <point x="379" y="-36"/>
      <point x="430" y="1" type="curve"/>
      <point x="443" y="10" type="line"/>
      <point x="368" y="10" type="line"/>
      <point x="298" y="-34"/>
      <point x="270" y="-72"/>
      <point x="264" y="-110" type="curve" smooth="yes"/>
      <point x="255" y="-164"/>
      <point x="297" y="-203"/>
    </contour>
    <component base="E"/>
  </outline>
</glyph>
<glyph name="eogonek" format="2">
  <advance width="600"/>
  <unicode hex="0119"/>
  <anchor x="343" y="550" name="top"/>
  <outline>
    <contour>
      <point x="297" y="-203" type="curve" smooth="yes"/>
      <point x="375" y="-203" type="line"/>
      <point x="384" y="-143" type="line"/>
      <point x="324" y="-143" type="line" smooth="yes"/>
      <point x="290" y="-143"/>
      <point x="273" y="-122"/>
      <point x="277" y="-93" type="curve" smooth="yes"/>
      <point x="282" y="-65"/>
      <point x="305" y="-36"/>
      <point x="356" y="1" type="curve" smooth="yes"/>
      <point x="374" y="14" type="line"/>
      <point x="430" y="39"/>
      <point x="472" y="83"/>
      <point x="488" y="140" type="curve"/>
      <point x="398" y="140" type="line"/>
      <point x="380" y="91"/>
      <point x="335" y="66"/>
      <point x="266" y="66" type="curve" smooth="yes"/>
      <point x="184" y="66"/>
      <point x="150" y="113"/>
      <point x="164" y="200" type="curve" smooth="yes"/>
      <point x="172" y="253" type="line"/>
      <point x="508" y="253" type="line"/>
      <point x="523" y="350" type="line" smooth="yes"/>
      <point x="544" y="477"/>
      <point x="475" y="560"/>
      <point x="345" y="560" type="curve" smooth="yes"/>
      <point x="215" y="560"/>
      <point x="120" y="477"/>
      <point x="99" y="350" type="curve" smooth="yes"/>
      <point x="76" y="200" type="line" smooth="yes"/>
      <point x="56" y="73"/>
      <point x="124" y="-10"/>
      <point x="254" y="-10" type="curve" smooth="yes"/>
      <point x="257" y="-10"/>
      <point x="261" y="-10"/>
      <point x="264" y="-10" type="curve"/>
      <point x="220" y="-45"/>
      <point x="194" y="-80"/>
      <point x="190" y="-110" type="curve" smooth="yes"/>
      <point x="181" y="-164"/>
      <point x="223" y="-203"/>
    </contour>
    <contour>
      <point x="425" y="281" type="line"/>
      <point x="471" y="321" type="line"/>
      <point x="183" y="321" type="line"/>
      <point x="187" y="350" type="line" smooth="yes"/>
      <point x="201" y="437"/>
      <point x="251" y="485"/>
      <point x="333" y="485" type="curve" smooth="yes"/>
      <point x="415" y="485"/>
      <point x="449" y="437"/>
      <point x="435" y="350" type="curve" smooth="yes"/>
    </contour>
  </outline>
</glyph>
<glyph name="Hbar" format="2">
  <advance width="600"/>
  <unicode hex="0126"/>
  <anchor x="256" y="0" name="bottom"/>
  <anchor x="314" y="365" name="center"/>
  <anchor x="372" y="730" name="top"/>
  <anchor x="92" y="730" name="topleft"/>
  <outline>
    <contour>
      <point x="50" y="525" type="line"/>
      <point x="629" y="525" type="line"/>
      <point x="641" y="600" type="line"/>
      <point x="62" y="600" type="line"/>
    </contour>
    <component base="H"/>
  </outline>
</glyph>
<glyph name="iogonek" format="2">
  <advance width="600"/>
  <unicode hex="012F"/>
  <anchor x="271" y="0" name="bottom"/>
  <anchor x="290" y="0" name="ogonek"/>
  <anchor x="394" y="777" name="top"/>
  <outline>
    <contour>
      <point x="246" y="-203" type="curve" smooth="yes"/>
      <point x="324" y="-203" type="line"/>
      <point x="333" y="-143" type="line"/>
      <point x="273" y="-143" type="line" smooth="yes"/>
      <point x="239" y="-143"/>
      <point x="222" y="-122"/>
      <point x="226" y="-93" type="curve" smooth="yes"/>
      <point x="231" y="-65"/>
      <point x="254" y="-36"/>
      <point x="305" y="1" type="curve"/>
      <point x="318" y="10" type="line"/>
      <point x="243" y="10" type="line"/>
      <point x="173" y="-34"/>
      <point x="145" y="-72"/>
      <point x="139" y="-110" type="curve" smooth="yes"/>
      <point x="130" y="-164"/>
      <point x="172" y="-203"/>
    </contour>
    <component base="idotless"/>
    <component base="dotaccentcomb" xOffset="615"/>
  </outline>
</glyph>
<glyph name="Lslash" format="2">
  <advance width="600"/>
  <unicode hex="0141"/>
  <anchor x="296" y="0" name="bottom"/>
  <anchor x="314" y="365" name="center"/>
  <anchor x="253" y="730" name="top"/>
  <anchor x="652" y="730" name="topright"/>
  <outline>
    <contour>
      <point x="12" y="226" type="line"/>
      <point x="422" y="480" type="line"/>
      <point x="435" y="564" type="line"/>
      <point x="25" y="310" type="line"/>
    </contour>
    <component base="L"/>
  </outline>
</glyph>
<glyph name="scedilla" format="2">
  <advance width="600"/>
  <unicode hex="015F"/>
  <anchor x="257" y="0" name="bottom"/>
  <anchor x="344" y="550" name="top"/>
  <outline>
    <contour>
      <point x="215" y="-203" type="line"/>
      <point x="300" y="-203" type="line" smooth="yes"/>
      <point x="372" y="-203"/>
      <point x="420" y="-166"/>
      <point x="420" y="-120" type="curve" smooth="yes"/>
      <point x="420" y="-68"/>
      <point x="352" y="-41"/>
      <point x="300" y="-35" type="curve"/>
      <point x="321" y="26" type="line"/>
      <point x="264" y="26" type="line"/>
      <point x="229" y="-69" type="line"/>
      <point x="296" y="-69"/>
      <point x="334" y="-89"/>
      <point x="334" y="-112" type="curve" smooth="yes"/>
      <point x="334" y="-130"/>
      <point x="314" y="-148"/>
      <point x="285" y="-148" type="curve" smooth="yes"/>
      <point x="215" y="-148" type="line"/>
    </contour>
    <component base="s"/>
  </outline>
</glyph>
<glyph name="Tcedilla" format="2">
  <advance width="600"/>
  <unicode hex="0162"/>
  <anchor x="256" y="0" name="bottom"/>
  <anchor x="314" y="365" name="center"/>
  <anchor x="372" y="730" name="top"/>
  <outline>
    <contour>
      <point x="172" y="-203" type="line"/>
      <point x="257" y="-203" type="line" smooth="yes"/>
      <point x="329" y="-203"/>
      <point x="383" y="-166"/>
      <point x="390" y="-120" type="curve" smooth="yes"/>
      <point x="398" y="-68"/>
      <point x="335" y="-41"/>
      <point x="283" y="-35" type="curve"/>
      <point x="301" y="0" type="line"/>
      <point x="257" y="26" type="line"/>
      <point x="207" y="-69" type="line"/>
      <point x="274" y="-69"/>
      <point x="309" y="-89"/>
      <point x="305" y="-112" type="curve" smooth="yes"/>
      <point x="302" y="-130"/>
      <point x="280" y="-148"/>
      <point x="251" y="-148" type="curve" smooth="yes"/>
      <point x="181" y="-148" type="line"/>
    </contour>
    <component base="T"/>
  </outline>
</glyph>
<glyph name="tcaron" format="2">
  <advance width="600"/>
  <unicode hex="0165"/>
  <anchor x="316" y="0" name="bottom"/>
  <anchor x="300" y="275" name="center"/>
  <anchor x="375" y="700" name="top"/>
  <anchor x="624" y="550" name="topright"/>
  <outline>
    <contour>
      <point x="423" y="620" type="line"/>
      <point x="509" y="620" type="line"/>
      <point x="634" y="776" type="line"/>
      <point x="538" y="776" type="line"/>
    </contour>
    <component base="t"/>
  </outline>
</glyph>
<glyph name="Tbar" format="2">
  <advance width="600"/>
  <unicode hex="0166"/>
  <anchor x="256" y="0" name="bottom"/>
  <anchor x="314" y="365" name="center"/>
  <anchor x="372" y="730" name="top"/>
  <outline>
    <contour>
      <point x="113" y="295" type="line"/>
      <point x="493" y="295" type="line"/>
      <point x="505" y="370" type="line"/>
      <point x="125" y="370" type="line"/>
    </contour>
    <component base="T"/>
  </outline>
</glyph>
<glyph name="uogonek" format="2">
  <advance width="600"/>
  <unicode hex="0173"/>
  <anchor x="463" y="550" name="horn"/>
  <anchor x="343" y="550" name="top"/>
  <outline>
    <contour>
      <point x="296" y="-203" type="curve" smooth="yes"/>
      <point x="374" y="-203" type="line"/>
      <point x="383" y="-143" type="line"/>
      <point x="323" y="-143" type="line" smooth="yes"/>
      <point x="289" y="-143"/>
      <point x="272" y="-122"/>
      <point x="276" y="-93" type="curve" smooth="yes"/>
      <point x="281" y="-65"/>
      <point x="304" y="-36"/>
      <point x="355" y="1" type="curve" smooth="yes"/>
      <point x="382" y="21" type="line"/>
      <point x="445" y="55"/>
      <point x="485" y="117"/>
      <point x="498" y="200" type="curve" smooth="yes"/>
      <point x="553" y="550" type="line"/>
      <point x="463" y="550" type="line"/>
      <point x="408" y="200" type="line" smooth="yes"/>
      <point x="394" y="115"/>
      <point x="345" y="70"/>
      <point x="267" y="70" type="curve" smooth="yes"/>
      <point x="189" y="70"/>
      <point x="154" y="115"/>
      <point x="168" y="200" type="curve" smooth="yes"/>
      <point x="223" y="550" type="line"/>
      <point x="133" y="550" type="line"/>
      <point x="78" y="200" type="line" smooth="yes"/>
      <point x="57" y="69"/>
      <point x="123" y="-10"/>
      <point x="254" y="-10" type="curve" smooth="yes"/>
      <point x="257" y="-10"/>
      <point x="260" y="-10"/>
      <point x="263" y="-10" type="curve"/>
      <point x="211" y="-51"/>
      <point x="193" y="-81"/>
      <point x="189" y="-110" type="curve" smooth="yes"/>
      <point x="180" y="-164"/>
      <point x="222" y="-203"/>
    </contour>
  </outline>
</glyph>
<glyph name="longs" format="2">
  <advance width="600"/>
  <unicode hex="017F"/>
  <outline>
    <contour>
      <point x="-47" y="-180" type="line"/>
      <point x="65" y="-180" type="line" smooth="yes"/>
      <point x="173" y="-180"/>
      <point x="248" y="-119"/>
      <point x="263" y="-20" type="curve"/>
      <point x="356" y="570" type="line"/>
      <point x="364" y="623"/>
      <point x="394" y="648"/>
      <point x="450" y="648" type="curve" smooth="yes"/>
      <point x="625" y="648" type="line"/>
      <point x="638" y="730" type="line"/>
      <point x="464" y="730" type="line" smooth="yes"/>
      <point x="356" y="730"/>
      <point x="281" y="669"/>
      <point x="266" y="570" type="curve"/>
      <point x="173" y="-20" type="line"/>
      <point x="165" y="-73"/>
      <point x="135" y="-98"/>
      <point x="79" y="-98" type="curve" smooth="yes"/>
      <point x="-34" y="-98" type="line"/>
    </contour>
  </outline>
</glyph>
<glyph name="Eopen" format="2">
  <advance width="600"/>
  <unicode hex="0190"/>
  <outline>
    <contour>
      <point x="267" y="-10" type="curve" smooth="yes"/>
      <point x="406" y="-10"/>
      <point x="513" y="71"/>
      <point x="534" y="192" type="curve"/>
      <point x="444" y="192" type="line"/>
      <point x="431" y="119"/>
      <point x="365" y="70"/>
      <point x="280" y="70" type="curve" smooth="yes"/>
      <point x="190" y="70"/>
      <point x="139" y="124"/>
      <point x="151" y="205" type="curve" smooth="yes"/>
      <point x="164" y="286"/>
      <point x="233" y="340"/>
      <point x="323" y="340" type="curve" smooth="yes"/>
      <point x="414" y="340" type="line"/>
      <point x="427" y="420" type="line"/>
      <point x="337" y="420" type="line" smooth="yes"/>
      <point x="256" y="420"/>
      <point x="209" y="468"/>
      <point x="221" y="540" type="curve" smooth="yes"/>
      <point x="232" y="612"/>
      <point x="294" y="660"/>
      <point x="375" y="660" type="curve" smooth="yes"/>
      <point x="457" y="660"/>
      <point x="503" y="610"/>
      <point x="491" y="535" type="curve"/>
      <point x="581" y="535" type="line"/>
      <point x="600" y="658"/>
      <point x="522" y="740"/>
      <point x="384" y="740" type="curve" smooth="yes"/>
      <point x="250" y="740"/>
      <point x="150" y="663"/>
      <point x="131" y="546" type="curve" smooth="yes"/>
      <point x="115" y="444"/>
      <point x="173" y="380"/>
      <point x="281" y="382" type="curve"/>
      <point x="282" y="392" type="line"/>
      <point x="165" y="394"/>
      <point x="79" y="321"/>
      <point x="60" y="205" type="curve" smooth="yes"/>
      <point x="40" y="76"/>
      <point x="122" y="-10"/>
    </contour>
  </outline>
</glyph>
<glyph name="florin" format="2">
  <advance width="600"/>
  <unicode hex="0192"/>
  <outline>
    <contour>
      <point x="-73" y="-180" type="line"/>
      <point x="32" y="-180" type="line" smooth="yes"/>
      <point x="156" y="-180"/>
      <point x="250" y="-103"/>
      <point x="268" y="15" type="curve" smooth="yes"/>
      <point x="316" y="313" type="line"/>
      <point x="541" y="313" type="line"/>
      <point x="554" y="395" type="line"/>
      <point x="329" y="395" type="line"/>
      <point x="359" y="590" type="line" smooth="yes"/>
      <point x="366" y="630"/>
      <point x="390" y="650"/>
      <point x="433" y="650" type="curve" smooth="yes"/>
      <point x="594" y="650" type="line"/>
      <point x="607" y="730" type="line"/>
      <point x="446" y="730" type="line" smooth="yes"/>
      <point x="349" y="730"/>
      <point x="284" y="679"/>
      <point x="270" y="591" type="curve" smooth="yes"/>
      <point x="239" y="395" type="line"/>
      <point x="79" y="395" type="line"/>
      <point x="66" y="313" type="line"/>
      <point x="226" y="313" type="line"/>
      <point x="178" y="15" type="line" smooth="yes"/>
      <point x="167" y="-55"/>
      <point x="116" y="-98"/>
      <point x="45" y="-98" type="curve" smooth="yes"/>
      <point x="-60" y="-98" type="line"/>
    </contour>
  </outline>
</glyph>
<glyph name="lambdastroke" format="2">
  <advance width="600"/>
  <unicode hex="019B"/>
  <outline>
    <contour>
      <point x="119" y="470" type="line"/>
      <point x="529" y="660" type="line"/>
      <point x="542" y="740" type="line"/>
      <point x="132" y="550" type="line"/>
    </contour>
    <component base="lambda"/>
  </outline>
</glyph>
<glyph name="Ohorn" format="2">
  <advance width="600"/>
  <unicode hex="01A0"/>
  <anchor x="362" y="730" name="top"/>
  <anchor x="256" y="0" name="bottom"/>
  <anchor x="314" y="365" name="center"/>
  <anchor x="387" y="700" name="horn"/>
  <anchor x="305" y="0" name="ogonek"/>
  <anchor x="92" y="730" name="topleft"/>
  <anchor x="652" y="730" name="topright"/>
  <outline>
    <contour>
      <point x="457" y="635" type="line"/>
      <point x="482" y="635" type="line" smooth="yes"/>
      <point x="546" y="635"/>
      <point x="592" y="672"/>
      <point x="602" y="730" type="curve" smooth="yes"/>
      <point x="614" y="810" type="line"/>
      <point x="539" y="810" type="line"/>
      <point x="527" y="735" type="line" smooth="yes"/>
      <point x="524" y="714"/>
      <point x="508" y="700"/>
      <point x="487" y="700" type="curve" smooth="yes"/>
      <point x="467" y="700" type="line"/>
    </contour>
    <component base="O"/>
  </outline>
</glyph>
<glyph name="uhorn" format="2">
  <advance width="600"/>
  <unicode hex="01B0"/>
  <anchor x="255" y="0" name="bottom"/>
  <anchor x="343" y="550" name="top"/>
  <outline>
    <contour>
      <point x="78" y="200" type="line" smooth="yes"/>
      <point x="57" y="71"/>
      <point x="126" y="-10"/>
      <point x="253" y="-10" type="curve" smooth="yes"/>
      <point x="380" y="-10"/>
      <point x="477" y="71"/>
      <point x="498" y="200" type="curve" smooth="yes"/>
      <point x="543" y="485" type="line"/>
      <point x="606" y="485"/>
      <point x="639" y="523"/>
      <point x="648" y="580" type="curve" smooth="yes"/>
      <point x="661" y="660" type="line"/>
      <point x="586" y="660" type="line"/>
      <point x="574" y="585" type="line" smooth="yes"/>
      <point x="570" y="562"/>
      <point x="556" y="550"/>
      <point x="533" y="550" type="curve" smooth="yes"/>
      <point x="463" y="550" type="line"/>
      <point x="408" y="200" type="line" smooth="yes"/>
      <point x="395" y="117"/>
      <point x="341" y="69"/>
      <point x="266" y="69" type="curve" smooth="yes"/>
      <point x="192" y="69"/>
      <point x="155" y="117"/>
      <point x="168" y="200" type="curve" smooth="yes"/>
      <point x="223" y="550" type="line"/>
      <point x="133" y="550" type="line"/>
    </contour>
  </outline>
</glyph>
<glyph name="Oogonek" format="2">
  <advance width="600"/>
  <unicode hex="01EA"/>
  <anchor x="387" y="700" name="horn"/>
  <anchor x="372" y="730" name="top"/>
  <outline>
    <contour>
      <point x="303" y="-203" type="curve" smooth="yes"/>
      <point x="381" y="-203" type="line"/>
      <point x="390" y="-143" type="line"/>
      <point x="330" y="-143" type="line" smooth="yes"/>
      <point x="296" y="-143"/>
      <point x="279" y="-122"/>
      <point x="283" y="-93" type="curve" smooth="yes"/>
      <point x="288" y="-65"/>
      <point x="307" y="-36"/>
      <point x="357" y="1" type="curve" smooth="yes"/>
      <point x="390" y="25" type="line"/>
      <point x="448" y="60"/>
      <point x="487" y="121"/>
      <point x="500" y="200" type="curve" smooth="yes"/>
      <point x="552" y="531" type="line" smooth="yes"/>
      <point x="573" y="661"/>
      <point x="504" y="740"/>
      <point x="373" y="740" type="curve" smooth="yes"/>
      <point x="242" y="740"/>
      <point x="149" y="661"/>
      <point x="128" y="530" type="curve" smooth="yes"/>
      <point x="76" y="200" type="line" smooth="yes"/>
      <point x="55" y="69"/>
      <point x="123" y="-10"/>
      <point x="254" y="-10" type="curve" smooth="yes"/>
      <point x="258" y="-10"/>
      <point x="263" y="-10"/>
      <point x="267" y="-10" type="curve"/>
      <point x="226" y="-45"/>
      <point x="200" y="-82"/>
      <point x="196" y="-110" type="curve" smooth="yes"/>
      <point x="187" y="-164"/>
      <point x="229" y="-203"/>
    </contour>
    <contour>
      <point x="267" y="71" type="curve" smooth="yes"/>
      <point x="189" y="71"/>
      <point x="153" y="117"/>
      <point x="166" y="200" type="curve" smooth="yes"/>
      <point x="218" y="530" type="line" smooth="yes"/>
      <point x="231" y="613"/>
      <point x="282" y="659"/>
      <point x="360" y="659" type="curve" smooth="yes"/>
      <point x="438" y="659"/>
      <point x="475" y="613"/>
      <point x="462" y="530" type="curve" smooth="yes"/>
      <point x="410" y="200" type="line" smooth="yes"/>
      <point x="397" y="117"/>
      <point x="345" y="71"/>
    </contour>
  </outline>
</glyph>
<glyph name="oogonek" format="2">
  <advance width="600"/>
  <unicode hex="01EB"/>
  <anchor x="375" y="550" name="horn"/>
  <anchor x="343" y="550" name="top"/>
  <outline>
    <contour>
      <point x="296" y="-203" type="curve" smooth="yes"/>
      <point x="374" y="-203" type="line"/>
      <point x="383" y="-143" type="line"/>
      <point x="323" y="-143" type="line" smooth="yes"/>
      <point x="289" y="-143"/>
      <point x="272" y="-122"/>
      <point x="276" y="-93" type="curve" smooth="yes"/>
      <point x="281" y="-65"/>
      <point x="304" y="-36"/>
      <point x="355" y="1" type="curve" smooth="yes"/>
      <point x="382" y="21" type="line"/>
      <point x="445" y="55"/>
      <point x="487" y="117"/>
      <point x="500" y="200" type="curve" smooth="yes"/>
      <point x="524" y="351" type="line" smooth="yes"/>
      <point x="544" y="481"/>
      <point x="476" y="560"/>
      <point x="345" y="560" type="curve" smooth="yes"/>
      <point x="214" y="560"/>
      <point x="120" y="481"/>
      <point x="99" y="350" type="curve" smooth="yes"/>
      <point x="76" y="200" type="line" smooth="yes"/>
      <point x="55" y="69"/>
      <point x="123" y="-10"/>
      <point x="254" y="-10" type="curve" smooth="yes"/>
      <point x="257" y="-10"/>
      <point x="260" y="-10"/>
      <point x="263" y="-10" type="curve"/>
      <point x="211" y="-51"/>
      <point x="193" y="-81"/>
      <point x="189" y="-110" type="curve" smooth="yes"/>
      <point x="180" y="-164"/>
      <point x="222" y="-203"/>
    </contour>
    <contour>
      <point x="267" y="70" type="curve" smooth="yes"/>
      <point x="189" y="70"/>
      <point x="152" y="115"/>
      <point x="166" y="200" type="curve" smooth="yes"/>
      <point x="189" y="350" type="line" smooth="yes"/>
      <point x="203" y="435"/>
      <point x="254" y="480"/>
      <point x="332" y="480" type="curve" smooth="yes"/>
      <point x="410" y="480"/>
      <point x="447" y="435"/>
      <point x="433" y="350" type="curve" smooth="yes"/>
      <point x="410" y="200" type="line" smooth="yes"/>
      <point x="396" y="115"/>
      <point x="345" y="70"/>
    </contour>
  </outline>
</glyph>
<glyph name="jdotless" format="2">
  <advance width="600"/>
  <unicode hex="0237"/>
  <anchor x="428" y="550" name="top"/>
  <outline>
    <contour>
      <point x="12" y="-180" type="line"/>
      <point x="141" y="-180" type="line" smooth="yes"/>
      <point x="276" y="-180"/>
      <point x="375" y="-98"/>
      <point x="396" y="31" type="curve" smooth="yes"/>
      <point x="478" y="550" type="line"/>
      <point x="158" y="550" type="line"/>
      <point x="145" y="468" type="line"/>
      <point x="375" y="468" type="line"/>
      <point x="306" y="31" type="line" smooth="yes"/>
      <point x="293" y="-51"/>
      <point x="238" y="-97"/>
      <point x="155" y="-97" type="curve" smooth="yes"/>
      <point x="26" y="-97" type="line"/>
    </contour>
  </outline>
</glyph>
<glyph name="gravecomb" format="2">
  <unicode hex="0300"/>
  <anchor x="-243" y="550" name="_top"/>
  <anchor x="-249" y="785" name="top"/>
  <outline>
    <contour>
      <point x="-258" y="645" type="line"/>
      <point x="-169" y="645" type="line"/>
      <point x="-257" y="785" type="line"/>
      <point x="-351" y="785" type="line"/>
    </contour>
  </outline>
</glyph>
<glyph name="acutecomb" format="2">
  <unicode hex="0301"/>
  <anchor x="-268" y="550" name="_top"/>
  <anchor x="-188" y="785" name="top"/>
  <outline>
    <contour>
      <point x="-314" y="645" type="line"/>
      <point x="-217" y="645" type="line"/>
      <point x="-84" y="785" type="line"/>
      <point x="-186" y="785" type="line"/>
    </contour>
  </outline>
</glyph>
<glyph name="circumflexcomb" format="2">
  <unicode hex="0302"/>
  <anchor x="-256" y="550" name="_top"/>
  <anchor x="-219" y="785" name="top"/>
  <outline>
    <contour>
      <point x="-422" y="645" type="line"/>
      <point x="-319" y="645" type="line"/>
      <point x="-226" y="723" type="line"/>
      <point x="-157" y="645" type="line"/>
      <point x="-60" y="645" type="line"/>
      <point x="-178" y="785" type="line"/>
      <point x="-261" y="785" type="line"/>
    </contour>
  </outline>
</glyph>
<glyph name="tildecomb" format="2">
  <unicode hex="0303"/>
  <anchor x="-257" y="550" name="_top"/>
  <anchor x="-221" y="780" name="top"/>
  <outline>
    <contour>
      <point x="-171" y="650" type="curve" smooth="yes"/>
      <point x="-117" y="650"/>
      <point x="-76" y="685"/>
      <point x="-66" y="745" type="curve" smooth="yes"/>
      <point x="-61" y="775" type="line"/>
      <point x="-126" y="775" type="line"/>
      <point x="-131" y="745" type="line" smooth="yes"/>
      <point x="-135" y="721"/>
      <point x="-149" y="710"/>
      <point x="-167" y="710" type="curve" smooth="yes"/>
      <point x="-212" y="710"/>
      <point x="-210" y="780"/>
      <point x="-290" y="780" type="curve" smooth="yes"/>
      <point x="-344" y="780"/>
      <point x="-386" y="745"/>
      <point x="-396" y="685" type="curve" smooth="yes"/>
      <point x="-400" y="655" type="line"/>
      <point x="-335" y="655" type="line"/>
      <point x="-331" y="685" type="line" smooth="yes"/>
      <point x="-327" y="709"/>
      <point x="-313" y="720"/>
      <point x="-295" y="720" type="curve" smooth="yes"/>
      <point x="-250" y="720"/>
      <point x="-251" y="650"/>
    </contour>
  </outline>
</glyph>
<glyph name="macroncomb" format="2">
  <unicode hex="0304"/>
  <anchor x="-257" y="550" name="_top"/>
  <anchor x="-226" y="745" name="top"/>
  <outline>
    <contour>
      <point x="-398" y="670" type="line"/>
      <point x="-78" y="670" type="line"/>
      <point x="-66" y="745" type="line"/>
      <point x="-386" y="745" type="line"/>
    </contour>
  </outline>
</glyph>
<glyph name="brevecomb" format="2">
  <unicode hex="0306"/>
  <anchor x="-256" y="550" name="_top"/>
  <anchor x="-219" y="785" name="top"/>
  <outline>
    <contour>
      <point x="-242" y="640" type="curve" smooth="yes"/>
      <point x="-146" y="640"/>
      <point x="-72" y="698"/>
      <point x="-59" y="785" type="curve"/>
      <point x="-131" y="785" type="line"/>
      <point x="-139" y="733"/>
      <point x="-180" y="698"/>
      <point x="-234" y="698" type="curve" smooth="yes"/>
      <point x="-287" y="698"/>
      <point x="-317" y="733"/>
      <point x="-309" y="785" type="curve"/>
      <point x="-379" y="785" type="line"/>
      <point x="-392" y="698"/>
      <point x="-338" y="640"/>
    </contour>
  </outline>
</glyph>
<glyph name="dotaccentcomb" format="2">
  <unicode hex="0307"/>
  <anchor x="-257" y="550" name="_top"/>
  <anchor x="-221" y="777" name="top"/>
  <outline>
    <contour>
      <point x="-241" y="649" type="curve" smooth="yes"/>
      <point x="-197" y="649"/>
      <point x="-166" y="673"/>
      <point x="-160" y="712" type="curve" smooth="yes"/>
      <point x="-154" y="752"/>
      <point x="-177" y="777"/>
      <point x="-221" y="777" type="curve" smooth="yes"/>
      <point x="-265" y="777"/>
      <point x="-296" y="752"/>
      <point x="-302" y="712" type="curve" smooth="yes"/>
      <point x="-308" y="673"/>
      <point x="-285" y="649"/>
    </contour>
  </outline>
</glyph>
<glyph name="dieresiscomb" format="2">
  <unicode hex="0308"/>
  <anchor x="-257" y="550" name="_top"/>
  <anchor x="-221" y="777" name="top"/>
  <outline>
    <contour>
      <point x="-130" y="649" type="curve" smooth="yes"/>
      <point x="-91" y="649"/>
      <point x="-62" y="673"/>
      <point x="-56" y="712" type="curve" smooth="yes"/>
      <point x="-50" y="752"/>
      <point x="-71" y="777"/>
      <point x="-110" y="777" type="curve" smooth="yes"/>
      <point x="-149" y="777"/>
      <point x="-178" y="752"/>
      <point x="-184" y="712" type="curve" smooth="yes"/>
      <point x="-190" y="673"/>
      <point x="-169" y="649"/>
    </contour>
    <contour>
      <point x="-352" y="649" type="curve" smooth="yes"/>
      <point x="-313" y="649"/>
      <point x="-284" y="673"/>
      <point x="-278" y="712" type="curve" smooth="yes"/>
      <point x="-272" y="752"/>
      <point x="-293" y="777"/>
      <point x="-332" y="777" type="curve" smooth="yes"/>
      <point x="-371" y="777"/>
      <point x="-400" y="752"/>
      <point x="-406" y="712" type="curve" smooth="yes"/>
      <point x="-412" y="673"/>
      <point x="-391" y="649"/>
    </contour>
  </outline>
</glyph>
<glyph name="hookabovecomb" format="2">
  <unicode hex="0309"/>
  <anchor x="-257" y="550" name="_top"/>
  <anchor x="-208" y="825" name="top"/>
  <outline>
    <contour>
      <point x="-290" y="645" type="line"/>
      <point x="-199" y="645" type="line"/>
      <point x="-151" y="697" type="line" smooth="yes"/>
      <point x="-138" y="712"/>
      <point x="-128" y="731"/>
      <point x="-125" y="751" type="curve" smooth="yes"/>
      <point x="-118" y="797"/>
      <point x="-147" y="825"/>
      <point x="-198" y="825" type="curve" smooth="yes"/>
      <point x="-303" y="825" type="line"/>
      <point x="-314" y="760" type="line"/>
      <point x="-236" y="760" type="line" smooth="yes"/>
      <point x="-218" y="760"/>
      <point x="-209" y="753"/>
      <point x="-211" y="740" type="curve" smooth="yes"/>
      <point x="-212" y="732"/>
      <point x="-219" y="720"/>
      <point x="-230" y="708" type="curve" smooth="yes"/>
    </contour>
  </outline>
</glyph>
<glyph name="ringcomb" format="2">
  <unicode hex="030A"/>
  <anchor x="-256" y="550" name="_top"/>
  <anchor x="-211" y="836" name="top"/>
  <outline>
    <contour>
      <point x="-247" y="608" type="curve" smooth="yes"/>
      <point x="-175" y="608"/>
      <point x="-119" y="654"/>
      <point x="-109" y="722" type="curve" smooth="yes"/>
      <point x="-98" y="790"/>
      <point x="-139" y="836"/>
      <point x="-211" y="836" type="curve" smooth="yes"/>
      <point x="-283" y="836"/>
      <point x="-338" y="790"/>
      <point x="-349" y="722" type="curve" smooth="yes"/>
      <point x="-359" y="654"/>
      <point x="-319" y="608"/>
    </contour>
    <contour>
      <point x="-238" y="661" type="curve" smooth="yes"/>
      <point x="-274" y="661"/>
      <point x="-295" y="685"/>
      <point x="-289" y="722" type="curve" smooth="yes"/>
      <point x="-283" y="759"/>
      <point x="-255" y="784"/>
      <point x="-219" y="784" type="curve" smooth="yes"/>
      <point x="-183" y="784"/>
      <point x="-163" y="759"/>
      <point x="-169" y="722" type="curve" smooth="yes"/>
      <point x="-175" y="685"/>
      <point x="-202" y="661"/>
    </contour>
  </outline>
</glyph>
<glyph name="hungarumlautcomb" format="2">
  <unicode hex="030B"/>
  <anchor x="-257" y="550" name="_top"/>
  <anchor x="-182" y="785" name="top"/>
  <outline>
    <contour>
      <point x="-216" y="645" type="line"/>
      <point x="-127" y="645" type="line"/>
      <point x="10" y="785" type="line"/>
      <point x="-84" y="785" type="line"/>
    </contour>
    <contour>
      <point x="-397" y="645" type="line"/>
      <point x="-308" y="645" type="line"/>
      <point x="-171" y="785" type="line"/>
      <point x="-265" y="785" type="line"/>
    </contour>
  </outline>
</glyph>
<glyph name="caroncomb" format="2">
  <unicode hex="030C"/>
  <anchor x="-257" y="550" name="_top"/>
  <anchor x="-219" y="785" name="top"/>
  <outline>
    <contour>
      <point x="-282" y="645" type="line"/>
      <point x="-199" y="645" type="line"/>
      <point x="-38" y="785" type="line"/>
      <point x="-141" y="785" type="line"/>
      <point x="-233" y="707" type="line"/>
      <point x="-303" y="785" type="line"/>
      <point x="-400" y="785" type="line"/>
    </contour>
  </outline>
</glyph>
<glyph name="dblgravecomb" format="2">
  <unicode hex="030F"/>
  <anchor x="-257" y="550" name="_top"/>
  <anchor x="-257" y="785" name="top"/>
  <outline>
    <contour>
      <point x="-268" y="645" type="line"/>
      <point x="-356" y="785" type="line"/>
      <point x="-445" y="785" type="line"/>
      <point x="-352" y="645" type="line"/>
    </contour>
    <contour>
      <point x="-92" y="645" type="line"/>
      <point x="-180" y="785" type="line"/>
      <point x="-269" y="785" type="line"/>
      <point x="-176" y="645" type="line"/>
    </contour>
  </outline>
</glyph>
<glyph name="commaturnedabovecomb" format="2">
  <unicode hex="0312"/>
  <anchor x="-257" y="550" name="_top"/>
  <anchor x="-192" y="880" name="top"/>
  <outline>
    <contour>
      <point x="-93" y="880" type="line"/>
      <point x="-162" y="880" type="line"/>
      <point x="-329" y="645" type="line"/>
      <point x="-210" y="645" type="line"/>
    </contour>
  </outline>
</glyph>
<glyph name="horncomb" format="2">
  <unicode hex="031B"/>
  <anchor x="-233" y="550" name="_horn"/>
  <anchor x="-209" y="550" name="_topright"/>
  <anchor x="-15" y="660" name="topright"/>
  <outline>
    <contour>
      <point x="-199" y="485" type="line"/>
      <point x="-168" y="485" type="line" smooth="yes"/>
      <point x="-105" y="485"/>
      <point x="-57" y="523"/>
      <point x="-48" y="580" type="curve" smooth="yes"/>
      <point x="-35" y="660" type="line"/>
      <point x="-110" y="660" type="line"/>
      <point x="-122" y="585" type="line" smooth="yes"/>
      <point x="-126" y="562"/>
      <point x="-140" y="550"/>
      <point x="-163" y="550" type="curve" smooth="yes"/>
      <point x="-189" y="550" type="line"/>
    </contour>
  </outline>
</glyph>
<glyph name="dotbelowcomb" format="2">
  <unicode hex="0323"/>
  <anchor x="-343" y="0" name="_bottom"/>
  <anchor x="-377" y="-213" name="bottom"/>
  <outline>
    <contour>
      <point x="-377" y="-213" type="curve" smooth="yes"/>
      <point x="-333" y="-213"/>
      <point x="-302" y="-189"/>
      <point x="-296" y="-150" type="curve" smooth="yes"/>
      <point x="-289" y="-110"/>
      <point x="-312" y="-85"/>
      <point x="-356" y="-85" type="curve" smooth="yes"/>
      <point x="-400" y="-85"/>
      <point x="-431" y="-110"/>
      <point x="-438" y="-150" type="curve" smooth="yes"/>
      <point x="-444" y="-189"/>
      <point x="-421" y="-213"/>
    </contour>
  </outline>
</glyph>
<glyph name="ringbelowcomb" format="2">
  <unicode hex="0325"/>
  <anchor x="-343" y="0" name="_bottom"/>
  <anchor x="-383" y="-250" name="bottom"/>
  <outline>
    <contour>
      <point x="-383" y="-250" type="curve" smooth="yes"/>
      <point x="-311" y="-250"/>
      <point x="-256" y="-210"/>
      <point x="-247" y="-150" type="curve" smooth="yes"/>
      <point x="-237" y="-90"/>
      <point x="-279" y="-50"/>
      <point x="-351" y="-50" type="curve" smooth="yes"/>
      <point x="-423" y="-50"/>
      <point x="-477" y="-90"/>
      <point x="-487" y="-150" type="curve" smooth="yes"/>
      <point x="-496" y="-210"/>
      <point x="-455" y="-250"/>
    </contour>
    <contour>
      <point x="-376" y="-199" type="curve" smooth="yes"/>
      <point x="-411" y="-199"/>
      <point x="-431" y="-179"/>
      <point x="-427" y="-150" type="curve" smooth="yes"/>
      <point x="-422" y="-120"/>
      <point x="-395" y="-100"/>
      <point x="-360" y="-100" type="curve" smooth="yes"/>
      <point x="-322" y="-100"/>
      <point x="-301" y="-116"/>
      <point x="-307" y="-150" type="curve" smooth="yes"/>
      <point x="-311" y="-179"/>
      <point x="-339" y="-199"/>
    </contour>
  </outline>
</glyph>
<glyph name="commaaccentcomb" format="2">
  <unicode hex="0326"/>
  <anchor x="-344" y="0" name="_bottom"/>
  <anchor x="-392" y="-240" name="bottom"/>
  <outline>
    <contour>
      <point x="-492" y="-240" type="line"/>
      <point x="-397" y="-240" type="line"/>
      <point x="-269" y="-95" type="line"/>
      <point x="-374" y="-95" type="line"/>
    </contour>
  </outline>
</glyph>
<glyph name="strokelongcomb" format="2">
  <unicode hex="0336"/>
  <anchor x="-293" y="325" name="_center"/>
  <outline>
    <contour>
      <point x="-628" y="290" type="line"/>
      <point x="32" y="290" type="line"/>
      <point x="43" y="360" type="line"/>
      <point x="-617" y="360" type="line"/>
    </contour>
  </outline>
</glyph>
<glyph name="Delta" format="2">
  <advance width="600"/>
  <unicode hex="0394"/>
  <outline>
    <contour>
      <point x="6" y="0" type="line"/>
      <point x="506" y="0" type="line"/>
      <point x="433" y="730" type="line"/>
      <point x="312" y="730" type="line"/>
    </contour>
    <contour>
      <point x="132" y="80" type="line"/>
      <point x="301" y="496" type="line" smooth="yes"/>
      <point x="329" y="565"/>
      <point x="351" y="630"/>
      <point x="362" y="660" type="curve"/>
      <point x="363" y="630"/>
      <point x="366" y="564"/>
      <point x="372" y="495" type="curve" smooth="yes"/>
      <point x="410" y="80" type="line"/>
    </contour>
  </outline>
</glyph>
<glyph name="Theta" format="2">
  <advance width="600"/>
  <unicode hex="0398"/>
  <outline>
    <contour>
      <point x="254" y="-10" type="curve" smooth="yes"/>
      <point x="385" y="-10"/>
      <point x="479" y="69"/>
      <point x="500" y="200" type="curve" smooth="yes"/>
      <point x="552" y="531" type="line" smooth="yes"/>
      <point x="573" y="661"/>
      <point x="504" y="740"/>
      <point x="373" y="740" type="curve" smooth="yes"/>
      <point x="242" y="740"/>
      <point x="149" y="661"/>
      <point x="128" y="530" type="curve" smooth="yes"/>
      <point x="76" y="200" type="line" smooth="yes"/>
      <point x="55" y="69"/>
      <point x="123" y="-10"/>
    </contour>
    <contour>
      <point x="267" y="71" type="curve" smooth="yes"/>
      <point x="189" y="71"/>
      <point x="153" y="117"/>
      <point x="166" y="200" type="curve" smooth="yes"/>
      <point x="218" y="530" type="line" smooth="yes"/>
      <point x="231" y="613"/>
      <point x="282" y="659"/>
      <point x="360" y="659" type="curve" smooth="yes"/>
      <point x="438" y="659"/>
      <point x="475" y="613"/>
      <point x="462" y="530" type="curve" smooth="yes"/>
      <point x="410" y="200" type="line" smooth="yes"/>
      <point x="397" y="117"/>
      <point x="345" y="71"/>
    </contour>
    <contour>
      <point x="217" y="325" type="line"/>
      <point x="397" y="325" type="line"/>
      <point x="410" y="407" type="line"/>
      <point x="230" y="407" type="line"/>
    </contour>
  </outline>
</glyph>
<glyph name="Xi" format="2">
  <advance width="600"/>
  <unicode hex="039E"/>
  <outline>
    <contour>
      <point x="139" y="648" type="line"/>
      <point x="579" y="648" type="line"/>
      <point x="592" y="730" type="line"/>
      <point x="152" y="730" type="line"/>
    </contour>
    <contour>
      <point x="36" y="0" type="line"/>
      <point x="476" y="0" type="line"/>
      <point x="489" y="82" type="line"/>
      <point x="49" y="82" type="line"/>
    </contour>
    <contour>
      <point x="118" y="329" type="line"/>
      <point x="498" y="329" type="line"/>
      <point x="511" y="411" type="line"/>
      <point x="131" y="411" type="line"/>
    </contour>
  </outline>
</glyph>
<glyph name="Sigma" format="2">
  <advance width="600"/>
  <unicode hex="03A3"/>
  <outline>
    <contour>
      <point x="31" y="0" type="line"/>
      <point x="506" y="0" type="line"/>
      <point x="519" y="80" type="line"/>
      <point x="154" y="80" type="line"/>
      <point x="431" y="375" type="line"/>
      <point x="237" y="650" type="line"/>
      <point x="609" y="650" type="line"/>
      <point x="622" y="730" type="line"/>
      <point x="147" y="730" type="line"/>
      <point x="134" y="650" type="line"/>
      <point x="321" y="380" type="line"/>
      <point x="44" y="80" type="line"/>
    </contour>
  </outline>
</glyph>
<glyph name="Psi" format="2">
  <advance width="600"/>
  <unicode hex="03A8"/>
  <outline>
    <contour>
      <point x="214" y="0" type="line"/>
      <point x="298" y="0" type="line"/>
      <point x="325" y="170" type="line"/>
      <point x="448" y="170"/>
      <point x="542" y="252"/>
      <point x="562" y="378" type="curve" smooth="yes"/>
      <point x="618" y="730" type="line"/>
      <point x="534" y="730" type="line"/>
      <point x="478" y="378" type="line" smooth="yes"/>
      <point x="465" y="296"/>
      <point x="412" y="246"/>
      <point x="337" y="246" type="curve"/>
      <point x="414" y="730" type="line"/>
      <point x="330" y="730" type="line"/>
      <point x="253" y="246" type="line"/>
      <point x="178" y="246"/>
      <point x="141" y="296"/>
      <point x="154" y="378" type="curve" smooth="yes"/>
      <point x="210" y="730" type="line"/>
      <point x="126" y="730" type="line"/>
      <point x="70" y="378" type="line" smooth="yes"/>
      <point x="50" y="252"/>
      <point x="118" y="170"/>
      <point x="241" y="170" type="curve"/>
    </contour>
  </outline>
</glyph>
<glyph name="beta" format="2">
  <advance width="600"/>
  <unicode hex="03B2"/>
  <outline>
    <contour>
      <point x="19" y="-180" type="line"/>
      <point x="109" y="-180" type="line"/>
      <point x="138" y="0" type="line"/>
      <point x="271" y="0" type="line" smooth="yes"/>
      <point x="400" y="0"/>
      <point x="500" y="86"/>
      <point x="519" y="208" type="curve" smooth="yes"/>
      <point x="534" y="304"/>
      <point x="495" y="370"/>
      <point x="417" y="391" type="curve"/>
      <point x="493" y="412"/>
      <point x="547" y="473"/>
      <point x="560" y="554" type="curve" smooth="yes"/>
      <point x="579" y="674"/>
      <point x="504" y="740"/>
      <point x="376" y="740" type="curve" smooth="yes"/>
      <point x="248" y="740"/>
      <point x="152" y="658"/>
      <point x="133" y="534" type="curve" smooth="yes"/>
    </contour>
    <contour>
      <point x="151" y="82" type="line"/>
      <point x="223" y="534" type="line" smooth="yes"/>
      <point x="235" y="611"/>
      <point x="289" y="658"/>
      <point x="363" y="658" type="curve" smooth="yes"/>
      <point x="436" y="658"/>
      <point x="475" y="613"/>
      <point x="463" y="536" type="curve" smooth="yes"/>
      <point x="452" y="465"/>
      <point x="398" y="413"/>
      <point x="324" y="413" type="curve" smooth="yes"/>
      <point x="282" y="413" type="line"/>
      <point x="270" y="335" type="line"/>
      <point x="314" y="335" type="line" smooth="yes"/>
      <point x="395" y="335"/>
      <point x="437" y="288"/>
      <point x="424" y="211" type="curve" smooth="yes"/>
      <point x="412" y="134"/>
      <point x="354" y="82"/>
      <point x="274" y="82" type="curve" smooth="yes"/>
    </contour>
  </outline>
</glyph>
<glyph name="gamma" format="2">
  <advance width="600"/>
  <unicode hex="03B3"/>
  <outline>
    <contour>
      <point x="183" y="-180" type="line"/>
      <point x="273" y="-180" type="line"/>
      <point x="302" y="0" type="line"/>
      <point x="584" y="550" type="line"/>
      <point x="489" y="550" type="line"/>
      <point x="310" y="185" type="line" smooth="yes"/>
      <point x="288" y="139"/>
      <point x="281" y="103"/>
      <point x="274" y="81" type="curve"/>
      <point x="273" y="103"/>
      <point x="271" y="139"/>
      <point x="262" y="185" type="curve" smooth="yes"/>
      <point x="196" y="550" type="line"/>
      <point x="104" y="550" type="line"/>
      <point x="212" y="0" type="line"/>
    </contour>
  </outline>
</glyph>
<glyph name="delta" format="2">
  <advance width="600"/>
  <unicode hex="03B4"/>
  <outline>
    <contour>
      <point x="255" y="-10" type="curve" smooth="yes"/>
      <point x="386" y="-10"/>
      <point x="478" y="71"/>
      <point x="499" y="205" type="curve" smooth="yes"/>
      <point x="513" y="291" type="line" smooth="yes"/>
      <point x="525" y="366"/>
      <point x="503" y="427"/>
      <point x="449" y="481" type="curve" smooth="yes"/>
      <point x="280" y="655" type="line"/>
      <point x="541" y="655" type="line"/>
      <point x="553" y="730" type="line"/>
      <point x="181" y="730" type="line"/>
      <point x="169" y="655" type="line"/>
      <point x="357" y="458" type="line"/>
      <point x="352" y="454" type="line"/>
      <point x="341" y="464"/>
      <point x="313" y="486"/>
      <point x="268" y="486" type="curve" smooth="yes"/>
      <point x="181" y="486"/>
      <point x="111" y="407"/>
      <point x="93" y="288" type="curve" smooth="yes"/>
      <point x="79" y="205" type="line" smooth="yes"/>
      <point x="58" y="72"/>
      <point x="125" y="-10"/>
    </contour>
    <contour>
      <point x="268" y="70" type="curve" smooth="yes"/>
      <point x="192" y="70"/>
      <point x="156" y="119"/>
      <point x="169" y="205" type="curve" smooth="yes"/>
      <point x="183" y="291" type="line" smooth="yes"/>
      <point x="197" y="380"/>
      <point x="248" y="431"/>
      <point x="324" y="431" type="curve" smooth="yes"/>
      <point x="401" y="431"/>
      <point x="437" y="380"/>
      <point x="423" y="291" type="curve" smooth="yes"/>
      <point x="409" y="205" type="line" smooth="yes"/>
      <point x="396" y="119"/>
      <point x="344" y="70"/>
    </contour>
  </outline>
</glyph>
<glyph name="theta" format="2">
  <advance width="600"/>
  <unicode hex="03B8"/>
  <outline>
    <contour>
      <point x="254" y="-10" type="curve" smooth="yes"/>
      <point x="385" y="-10"/>
      <point x="479" y="69"/>
      <point x="500" y="200" type="curve" smooth="yes"/>
      <point x="551" y="521" type="line" smooth="yes"/>
      <point x="571" y="651"/>
      <point x="503" y="730"/>
      <point x="372" y="730" type="curve" smooth="yes"/>
      <point x="241" y="730"/>
      <point x="147" y="651"/>
      <point x="126" y="520" type="curve" smooth="yes"/>
      <point x="76" y="200" type="line" smooth="yes"/>
      <point x="55" y="69"/>
      <point x="123" y="-10"/>
    </contour>
    <contour>
      <point x="267" y="70" type="curve" smooth="yes"/>
      <point x="189" y="70"/>
      <point x="152" y="115"/>
      <point x="166" y="200" type="curve" smooth="yes"/>
      <point x="185" y="325" type="line"/>
      <point x="429" y="325" type="line"/>
      <point x="410" y="200" type="line" smooth="yes"/>
      <point x="396" y="115"/>
      <point x="345" y="70"/>
    </contour>
    <contour>
      <point x="198" y="403" type="line"/>
      <point x="216" y="520" type="line" smooth="yes"/>
      <point x="230" y="605"/>
      <point x="281" y="650"/>
      <point x="359" y="650" type="curve" smooth="yes"/>
      <point x="437" y="650"/>
      <point x="474" y="605"/>
      <point x="460" y="520" type="curve" smooth="yes"/>
      <point x="442" y="403" type="line"/>
    </contour>
  </outline>
</glyph>
<glyph name="lambda" format="2">
  <advance width="600"/>
  <unicode hex="03BB"/>
  <outline>
    <contour>
      <point x="7" y="0" type="line"/>
      <point x="108" y="0" type="line"/>
      <point x="290" y="357" type="line" smooth="yes"/>
      <point x="313" y="403"/>
      <point x="321" y="441"/>
      <point x="323" y="461" type="curve"/>
      <point x="327" y="441"/>
      <point x="330" y="403"/>
      <point x="340" y="357" type="curve" smooth="yes"/>
      <point x="414" y="0" type="line"/>
      <point x="507" y="0" type="line"/>
      <point x="349" y="730" type="line"/>
      <point x="253" y="730" type="line"/>
      <point x="297" y="541" type="line"/>
    </contour>
  </outline>
</glyph>
<glyph name="mu" format="2">
  <advance width="600"/>
  <unicode hex="03BC"/>
  <outline>
    <contour>
      <point x="21" y="-180" type="line"/>
      <point x="111" y="-180" type="line"/>
      <point x="137" y="-20" type="line"/>
      <point x="155" y="105" type="line"/>
      <point x="175" y="105" type="line"/>
      <point x="160" y="126" type="line"/>
      <point x="147" y="43"/>
      <point x="162" y="-10"/>
      <point x="252" y="-10" type="curve" smooth="yes"/>
      <point x="342" y="-10"/>
      <point x="381" y="43"/>
      <point x="394" y="126" type="curve"/>
      <point x="373" y="105" type="line"/>
      <point x="393" y="105" type="line"/>
      <point x="376" y="0" type="line"/>
      <point x="464" y="0" type="line"/>
      <point x="551" y="550" type="line"/>
      <point x="461" y="550" type="line"/>
      <point x="406" y="200" type="line" smooth="yes"/>
      <point x="393" y="117"/>
      <point x="340" y="68"/>
      <point x="266" y="68" type="curve" smooth="yes"/>
      <point x="192" y="68"/>
      <point x="159" y="117"/>
      <point x="172" y="200" type="curve" smooth="yes"/>
      <point x="227" y="550" type="line"/>
      <point x="137" y="550" type="line"/>
    </contour>
  </outline>
</glyph>
<glyph name="xi" format="2">
  <advance width="600"/>
  <unicode hex="03BE"/>
  <outline>
    <contour>
      <point x="403" y="-178" type="line"/>
      <point x="493" y="-178" type="line"/>
      <point x="513" y="-48" type="line" smooth="yes"/>
      <point x="526" y="32"/>
      <point x="481" y="82"/>
      <point x="396" y="82" type="curve" smooth="yes"/>
      <point x="300" y="82" type="line" smooth="yes"/>
      <point x="207" y="82"/>
      <point x="157" y="133"/>
      <point x="170" y="214" type="curve" smooth="yes"/>
      <point x="183" y="296"/>
      <point x="246" y="347"/>
      <point x="334" y="347" type="curve" smooth="yes"/>
      <point x="483" y="347" type="line"/>
      <point x="496" y="427" type="line"/>
      <point x="343" y="427" type="line" smooth="yes"/>
      <point x="267" y="427"/>
      <point x="226" y="470"/>
      <point x="237" y="538" type="curve" smooth="yes"/>
      <point x="248" y="606"/>
      <point x="302" y="648"/>
      <point x="378" y="648" type="curve" smooth="yes"/>
      <point x="563" y="648" type="line"/>
      <point x="576" y="730" type="line"/>
      <point x="391" y="730" type="line" smooth="yes"/>
      <point x="258" y="730"/>
      <point x="163" y="660"/>
      <point x="145" y="549" type="curve" smooth="yes"/>
      <point x="129" y="449"/>
      <point x="189" y="388"/>
      <point x="301" y="390" type="curve"/>
      <point x="302" y="400" type="line"/>
      <point x="181" y="402"/>
      <point x="93" y="330"/>
      <point x="75" y="214" type="curve" smooth="yes"/>
      <point x="54" y="83"/>
      <point x="136" y="0"/>
      <point x="287" y="0" type="curve" smooth="yes"/>
      <point x="383" y="0" type="line" smooth="yes"/>
      <point x="412" y="0"/>
      <point x="428" y="-19"/>
      <point x="423" y="-48" type="curve" smooth="yes"/>
    </contour>
  </outline>
</glyph>
<glyph name="pi" format="2">
  <advance width="600"/>
  <unicode hex="03C0"/>
  <outline>
    <contour>
      <point x="492" y="-5" type="curve" smooth="yes"/>
      <point x="511" y="-5" type="line"/>
      <point x="525" y="79" type="line"/>
      <point x="501" y="79" type="line" smooth="yes"/>
      <point x="454" y="79"/>
      <point x="429" y="109"/>
      <point x="438" y="164" type="curve" smooth="yes"/>
      <point x="486" y="470" type="line"/>
      <point x="586" y="470" type="line"/>
      <point x="598" y="550" type="line"/>
      <point x="69" y="550" type="line"/>
      <point x="57" y="470" type="line"/>
      <point x="141" y="470" type="line"/>
      <point x="66" y="0" type="line"/>
      <point x="153" y="0" type="line"/>
      <point x="227" y="470" type="line"/>
      <point x="400" y="470" type="line"/>
      <point x="353" y="170" type="line" smooth="yes"/>
      <point x="336" y="64"/>
      <point x="391" y="-5"/>
    </contour>
  </outline>
</glyph>
<glyph name="rho" format="2">
  <advance width="600"/>
  <unicode hex="03C1"/>
  <outline>
    <contour>
      <point x="19" y="-180" type="line"/>
      <point x="109" y="-180" type="line"/>
      <point x="135" y="-20" type="line"/>
      <point x="153" y="105" type="line"/>
      <point x="173" y="105" type="line"/>
      <point x="158" y="126" type="line"/>
      <point x="145" y="43"/>
      <point x="194" y="-10"/>
      <point x="284" y="-10" type="curve" smooth="yes"/>
      <point x="395" y="-10"/>
      <point x="475" y="68"/>
      <point x="495" y="195" type="curve" smooth="yes"/>
      <point x="520" y="356" type="line" smooth="yes"/>
      <point x="540" y="483"/>
      <point x="475" y="560"/>
      <point x="346" y="560" type="curve" smooth="yes"/>
      <point x="217" y="560"/>
      <point x="124" y="482"/>
      <point x="104" y="356" type="curve" smooth="yes"/>
    </contour>
    <contour>
      <point x="267" y="68" type="curve" smooth="yes"/>
      <point x="193" y="68"/>
      <point x="157" y="117"/>
      <point x="170" y="200" type="curve" smooth="yes"/>
      <point x="193" y="350" type="line" smooth="yes"/>
      <point x="207" y="435"/>
      <point x="256" y="482"/>
      <point x="332" y="482" type="curve" smooth="yes"/>
      <point x="408" y="482"/>
      <point x="443" y="435"/>
      <point x="429" y="350" type="curve" smooth="yes"/>
      <point x="406" y="200" type="line" smooth="yes"/>
      <point x="392" y="115"/>
      <point x="343" y="68"/>
    </contour>
  </outline>
</glyph>
<glyph name="sigmafinal" format="2">
  <advance width="600"/>
  <unicode hex="03C2"/>
  <outline>
    <contour>
      <point x="378" y="-180" type="line"/>
      <point x="468" y="-180" type="line"/>
      <point x="489" y="-48" type="line" smooth="yes"/>
      <point x="502" y="33"/>
      <point x="460" y="80"/>
      <point x="372" y="80" type="curve" smooth="yes"/>
      <point x="274" y="80" type="line" smooth="yes"/>
      <point x="195" y="80"/>
      <point x="151" y="117"/>
      <point x="164" y="200" type="curve" smooth="yes"/>
      <point x="188" y="351" type="line" smooth="yes"/>
      <point x="201" y="433"/>
      <point x="258" y="480"/>
      <point x="337" y="480" type="curve" smooth="yes"/>
      <point x="411" y="480"/>
      <point x="451" y="440"/>
      <point x="444" y="370" type="curve"/>
      <point x="534" y="370" type="line"/>
      <point x="548" y="487"/>
      <point x="477" y="560"/>
      <point x="350" y="560" type="curve" smooth="yes"/>
      <point x="217" y="560"/>
      <point x="118" y="481"/>
      <point x="97" y="350" type="curve" smooth="yes"/>
      <point x="74" y="200" type="line" smooth="yes"/>
      <point x="53" y="69"/>
      <point x="128" y="0"/>
      <point x="261" y="0" type="curve" smooth="yes"/>
      <point x="359" y="0" type="line" smooth="yes"/>
      <point x="390" y="0"/>
      <point x="404" y="-17"/>
      <point x="399" y="-48" type="curve" smooth="yes"/>
    </contour>
  </outline>
</glyph>
<glyph name="tau" format="2">
  <advance width="600"/>
  <unicode hex="03C4"/>
  <outline>
    <contour>
      <point x="341" y="0" type="curve" smooth="yes"/>
      <point x="466" y="0" type="line"/>
      <point x="479" y="82" type="line"/>
      <point x="354" y="82" type="line" smooth="yes"/>
      <point x="313" y="82"/>
      <point x="297" y="102"/>
      <point x="304" y="145" type="curve" smooth="yes"/>
      <point x="355" y="468" type="line"/>
      <point x="550" y="468" type="line"/>
      <point x="563" y="550" type="line"/>
      <point x="98" y="550" type="line"/>
      <point x="85" y="468" type="line"/>
      <point x="265" y="468" type="line"/>
      <point x="214" y="145" type="line" smooth="yes"/>
      <point x="199" y="53"/>
      <point x="246" y="0"/>
    </contour>
  </outline>
</glyph>
<glyph name="psi" format="2">
  <advance width="600"/>
  <unicode hex="03C8"/>
  <outline>
    <contour>
      <point x="186" y="-180" type="line"/>
      <point x="268" y="-180" type="line"/>
      <point x="297" y="0" type="line"/>
      <point x="426" y="0"/>
      <point x="514" y="78"/>
      <point x="534" y="202" type="curve" smooth="yes"/>
      <point x="589" y="550" type="line"/>
      <point x="506" y="550" type="line"/>
      <point x="451" y="202" type="line" smooth="yes"/>
      <point x="438" y="121"/>
      <point x="382" y="71"/>
      <point x="303" y="71" type="curve"/>
      <point x="379" y="550" type="line"/>
      <point x="307" y="550" type="line"/>
      <point x="231" y="71" type="line"/>
      <point x="152" y="71"/>
      <point x="112" y="121"/>
      <point x="125" y="202" type="curve" smooth="yes"/>
      <point x="180" y="550" type="line"/>
      <point x="97" y="550" type="line"/>
      <point x="42" y="202" type="line" smooth="yes"/>
      <point x="22" y="78"/>
      <point x="86" y="0"/>
      <point x="215" y="0" type="curve"/>
    </contour>
  </outline>
</glyph>
<glyph name="kaiSymbol" format="2">
  <advance width="600"/>
  <unicode hex="03D7"/>
  <outline>
    <contour>
      <point x="261" y="-180" type="line"/>
      <point x="290" y="-180" type="line" smooth="yes"/>
      <point x="412" y="-180"/>
      <point x="487" y="-117"/>
      <point x="506" y="0" type="curve" smooth="yes"/>
      <point x="517" y="71" type="line"/>
      <point x="473" y="71" type="line"/>
      <point x="549" y="550" type="line"/>
      <point x="434" y="550" type="line"/>
      <point x="138" y="80" type="line"/>
      <point x="149" y="119"/>
      <point x="166" y="192"/>
      <point x="176" y="250" type="curve" smooth="yes"/>
      <point x="223" y="550" type="line"/>
      <point x="137" y="550" type="line"/>
      <point x="50" y="0" type="line"/>
      <point x="165" y="0" type="line"/>
      <point x="462" y="471" type="line"/>
      <point x="450" y="432"/>
      <point x="433" y="358"/>
      <point x="424" y="300" type="curve" smooth="yes"/>
      <point x="376" y="0" type="line"/>
      <point x="420" y="0" type="line"/>
      <point x="420" y="-2" type="line" smooth="yes"/>
      <point x="410" y="-62"/>
      <point x="363" y="-101"/>
      <point x="303" y="-101" type="curve" smooth="yes"/>
      <point x="274" y="-101" type="line"/>
    </contour>
  </outline>
</glyph>
<glyph name="Ge-cy" format="2">
  <advance width="600"/>
  <unicode hex="0413"/>
  <anchor x="556" y="0" name="bottomright"/>
  <anchor x="392" y="730" name="top"/>
  <outline>
    <contour>
      <point x="86" y="0" type="line"/>
      <point x="176" y="0" type="line"/>
      <point x="279" y="648" type="line"/>
      <point x="614" y="648" type="line"/>
      <point x="627" y="730" type="line"/>
      <point x="202" y="730" type="line"/>
    </contour>
  </outline>
</glyph>
<glyph name="De-cy" format="2">
  <advance width="600"/>
  <unicode hex="0414"/>
  <outline>
    <contour>
      <point x="-41" y="-140" type="line"/>
      <point x="39" y="-140" type="line"/>
      <point x="61" y="0" type="line"/>
      <point x="451" y="0" type="line"/>
      <point x="429" y="-140" type="line"/>
      <point x="509" y="-140" type="line"/>
      <point x="543" y="77" type="line"/>
      <point x="473" y="77" type="line"/>
      <point x="577" y="730" type="line"/>
      <point x="203" y="730" type="line"/>
      <point x="127" y="298" type="line" smooth="yes"/>
      <point x="110" y="204"/>
      <point x="67" y="117"/>
      <point x="38" y="77" type="curve"/>
      <point x="-7" y="77" type="line"/>
    </contour>
    <contour>
      <point x="132" y="77" type="line"/>
      <point x="158" y="111"/>
      <point x="198" y="195"/>
      <point x="215" y="298" type="curve" smooth="yes"/>
      <point x="276" y="650" type="line"/>
      <point x="474" y="650" type="line"/>
      <point x="383" y="77" type="line"/>
    </contour>
  </outline>
</glyph>
<glyph name="Zhe-cy" format="2">
  <advance width="600"/>
  <unicode hex="0416"/>
  <outline>
    <contour>
      <point x="-32" y="0" type="line"/>
      <point x="62" y="0" type="line"/>
      <point x="229" y="342" type="line"/>
      <point x="272" y="342" type="line"/>
      <point x="218" y="0" type="line"/>
      <point x="294" y="0" type="line"/>
      <point x="348" y="342" type="line"/>
      <point x="395" y="342" type="line"/>
      <point x="453" y="0" type="line"/>
      <point x="544" y="0" type="line"/>
      <point x="473" y="372" type="line"/>
      <point x="650" y="730" type="line"/>
      <point x="554" y="730" type="line"/>
      <point x="399" y="406" type="line"/>
      <point x="358" y="406" type="line"/>
      <point x="410" y="730" type="line"/>
      <point x="334" y="730" type="line"/>
      <point x="282" y="406" type="line"/>
      <point x="238" y="406" type="line"/>
      <point x="186" y="730" type="line"/>
      <point x="94" y="730" type="line"/>
      <point x="160" y="379" type="line"/>
    </contour>
  </outline>
</glyph>
<glyph name="Ze-cy" format="2">
  <advance width="600"/>
  <unicode hex="0417"/>
  <outline>
    <contour>
      <point x="244" y="-10" type="curve" smooth="yes"/>
      <point x="389" y="-10"/>
      <point x="499" y="76"/>
      <point x="519" y="205" type="curve" smooth="yes"/>
      <point x="538" y="321"/>
      <point x="474" y="394"/>
      <point x="357" y="392" type="curve"/>
      <point x="356" y="382" type="line"/>
      <point x="462" y="380"/>
      <point x="540" y="444"/>
      <point x="556" y="546" type="curve" smooth="yes"/>
      <point x="575" y="663"/>
      <point x="499" y="740"/>
      <point x="365" y="740" type="curve" smooth="yes"/>
      <point x="227" y="740"/>
      <point x="123" y="658"/>
      <point x="104" y="535" type="curve"/>
      <point x="194" y="535" type="line"/>
      <point x="206" y="610"/>
      <point x="268" y="660"/>
      <point x="350" y="660" type="curve" smooth="yes"/>
      <point x="431" y="660"/>
      <point x="477" y="612"/>
      <point x="466" y="540" type="curve" smooth="yes"/>
      <point x="454" y="468"/>
      <point x="393" y="420"/>
      <point x="312" y="420" type="curve" smooth="yes"/>
      <point x="222" y="420" type="line"/>
      <point x="209" y="340" type="line"/>
      <point x="300" y="340" type="line" smooth="yes"/>
      <point x="390" y="340"/>
      <point x="441" y="286"/>
      <point x="428" y="205" type="curve" smooth="yes"/>
      <point x="416" y="124"/>
      <point x="347" y="70"/>
      <point x="257" y="70" type="curve" smooth="yes"/>
      <point x="172" y="70"/>
      <point x="122" y="119"/>
      <point x="131" y="192" type="curve"/>
      <point x="41" y="192" type="line"/>
      <point x="24" y="71"/>
      <point x="105" y="-10"/>
    </contour>
  </outline>
</glyph>
<glyph name="Ii-cy" format="2">
  <advance width="600"/>
  <unicode hex="0418"/>
  <anchor x="536" y="0" name="bottomright"/>
  <anchor x="372" y="730" name="top"/>
  <outline>
    <contour>
      <point x="46" y="0" type="line"/>
      <point x="166" y="0" type="line"/>
      <point x="488" y="625" type="line"/>
      <point x="476" y="576"/>
      <point x="455" y="483"/>
      <point x="444" y="410" type="curve" smooth="yes"/>
      <point x="379" y="0" type="line"/>
      <point x="466" y="0" type="line"/>
      <point x="582" y="730" type="line"/>
      <point x="462" y="730" type="line"/>
      <point x="141" y="105" type="line"/>
      <point x="152" y="154"/>
      <point x="172" y="247"/>
      <point x="184" y="320" type="curve" smooth="yes"/>
      <point x="249" y="730" type="line"/>
      <point x="162" y="730" type="line"/>
    </contour>
  </outline>
</glyph>
<glyph name="U-cy" format="2">
  <advance width="600"/>
  <unicode hex="0423"/>
  <anchor x="372" y="730" name="top"/>
  <outline>
    <contour>
      <point x="147" y="0" type="line"/>
      <point x="243" y="0" type="line"/>
      <point x="622" y="730" type="line"/>
      <point x="522" y="730" type="line"/>
      <point x="350" y="373" type="line" smooth="yes"/>
      <point x="328" y="327"/>
      <point x="313" y="283"/>
      <point x="307" y="263" type="curve"/>
      <point x="307" y="283"/>
      <point x="303" y="327"/>
      <point x="293" y="373" type="curve" smooth="yes"/>
      <point x="218" y="730" type="line"/>
      <point x="122" y="730" type="line"/>
      <point x="250" y="189" type="line"/>
    </contour>
  </outline>
</glyph>
<glyph name="Che-cy" format="2">
  <advance width="600"/>
  <unicode hex="0427"/>
  <outline>
    <contour>
      <point x="371" y="0" type="line"/>
      <point x="461" y="0" type="line"/>
      <point x="577" y="730" type="line"/>
      <point x="487" y="730" type="line"/>
      <point x="429" y="365" type="line"/>
      <point x="410" y="357"/>
      <point x="354" y="351"/>
      <point x="304" y="351" type="curve" smooth="yes"/>
      <point x="219" y="351"/>
      <point x="181" y="383"/>
      <point x="192" y="451" type="curve" smooth="yes"/>
      <point x="237" y="730" type="line"/>
      <point x="147" y="730" type="line"/>
      <point x="102" y="451" type="line" smooth="yes"/>
      <point x="83" y="336"/>
      <point x="147" y="271"/>
      <point x="276" y="271" type="curve" smooth="yes"/>
      <point x="328" y="271"/>
      <point x="391" y="278"/>
      <point x="416" y="286" type="curve"/>
    </contour>
  </outline>
</glyph>
<glyph name="Ereversed-cy" format="2">
  <advance width="600"/>
  <unicode hex="042D"/>
  <outline>
    <contour>
      <point x="250" y="-10" type="curve" smooth="yes"/>
      <point x="383" y="-10"/>
      <point x="477" y="69"/>
      <point x="498" y="200" type="curve" smooth="yes"/>
      <point x="550" y="530" type="line" smooth="yes"/>
      <point x="571" y="661"/>
      <point x="502" y="740"/>
      <point x="369" y="740" type="curve" smooth="yes"/>
      <point x="238" y="740"/>
      <point x="144" y="659"/>
      <point x="124" y="530" type="curve"/>
      <point x="214" y="530" type="line"/>
      <point x="227" y="613"/>
      <point x="279" y="660"/>
      <point x="357" y="660" type="curve" smooth="yes"/>
      <point x="436" y="660"/>
      <point x="473" y="613"/>
      <point x="460" y="531" type="curve" smooth="yes"/>
      <point x="441" y="409" type="line"/>
      <point x="216" y="409" type="line"/>
      <point x="203" y="327" type="line"/>
      <point x="428" y="327" type="line"/>
      <point x="408" y="200" type="line" smooth="yes"/>
      <point x="395" y="117"/>
      <point x="342" y="70"/>
      <point x="263" y="70" type="curve" smooth="yes"/>
      <point x="185" y="70"/>
      <point x="149" y="117"/>
      <point x="162" y="200" type="curve"/>
      <point x="72" y="200" type="line"/>
      <point x="51" y="71"/>
      <point x="119" y="-10"/>
    </contour>
  </outline>
</glyph>
<glyph name="Ia-cy" format="2">
  <advance width="600"/>
  <unicode hex="042F"/>
  <outline>
    <contour>
      <point x="12" y="0" type="line"/>
      <point x="113" y="0" type="line"/>
      <point x="304" y="310" type="line"/>
      <point x="420" y="310" type="line"/>
      <point x="371" y="0" type="line"/>
      <point x="461" y="0" type="line"/>
      <point x="577" y="730" type="line"/>
      <point x="353" y="730" type="line" smooth="yes"/>
      <point x="223" y="730"/>
      <point x="122" y="645"/>
      <point x="102" y="520" type="curve" smooth="yes"/>
      <point x="85" y="410"/>
      <point x="139" y="331"/>
      <point x="242" y="313" type="curve"/>
      <point x="238" y="354" type="line"/>
    </contour>
    <contour>
      <point x="299" y="390" type="line" smooth="yes"/>
      <point x="224" y="390"/>
      <point x="183" y="442"/>
      <point x="195" y="520" type="curve" smooth="yes"/>
      <point x="208" y="598"/>
      <point x="266" y="650"/>
      <point x="340" y="650" type="curve" smooth="yes"/>
      <point x="474" y="650" type="line"/>
      <point x="433" y="390" type="line"/>
    </contour>
  </outline>
</glyph>
<glyph name="ve-cy" format="2">
  <advance width="600"/>
  <unicode hex="0432"/>
  <outline>
    <contour>
      <point x="49" y="0" type="line"/>
      <point x="293" y="0" type="line" smooth="yes"/>
      <point x="409" y="0"/>
      <point x="492" y="60"/>
      <point x="507" y="155" type="curve" smooth="yes"/>
      <point x="519" y="236"/>
      <point x="474" y="289"/>
      <point x="391" y="291" type="curve"/>
      <point x="392" y="295" type="line"/>
      <point x="465" y="298"/>
      <point x="518" y="343"/>
      <point x="529" y="411" type="curve" smooth="yes"/>
      <point x="543" y="496"/>
      <point x="482" y="550"/>
      <point x="372" y="550" type="curve" smooth="yes"/>
      <point x="136" y="550" type="line"/>
    </contour>
    <contour>
      <point x="150" y="79" type="line"/>
      <point x="176" y="246" type="line"/>
      <point x="332" y="246" type="line" smooth="yes"/>
      <point x="395" y="246"/>
      <point x="427" y="215"/>
      <point x="419" y="163" type="curve" smooth="yes"/>
      <point x="410" y="110"/>
      <point x="369" y="79"/>
      <point x="306" y="79" type="curve" smooth="yes"/>
    </contour>
    <contour>
      <point x="188" y="320" type="line"/>
      <point x="212" y="471" type="line"/>
      <point x="360" y="471" type="line" smooth="yes"/>
      <point x="416" y="471"/>
      <point x="445" y="443"/>
      <point x="438" y="396" type="curve" smooth="yes"/>
      <point x="430" y="348"/>
      <point x="392" y="320"/>
      <point x="336" y="320" type="curve" smooth="yes"/>
    </contour>
  </outline>
</glyph>
<glyph name="ge-cy" format="2">
  <advance width="600"/>
  <unicode hex="0433"/>
  <anchor x="266" y="0" name="bottom"/>
  <anchor x="373" y="550" name="top"/>
  <outline>
    <contour>
      <point x="277" y="-10" type="line" smooth="yes"/>
      <point x="390" y="-10"/>
      <point x="469" y="47"/>
      <point x="493" y="135" type="curve"/>
      <point x="403" y="135" type="line"/>
      <point x="389" y="96"/>
      <point x="348" y="70"/>
      <point x="289" y="70" type="curve" smooth="yes"/>
      <point x="247" y="70" type="line" smooth="yes"/>
      <point x="176" y="70"/>
      <point x="148" y="103"/>
      <point x="155" y="151" type="curve" smooth="yes"/>
      <point x="163" y="198"/>
      <point x="199" y="226"/>
      <point x="261" y="236" type="curve" smooth="yes"/>
      <point x="337" y="248" type="line" smooth="yes"/>
      <point x="447" y="265"/>
      <point x="507" y="310"/>
      <point x="522" y="403" type="curve" smooth="yes"/>
      <point x="538" y="501"/>
      <point x="484" y="560"/>
      <point x="359" y="560" type="curve" smooth="yes"/>
      <point x="321" y="560" type="line" smooth="yes"/>
      <point x="216" y="560"/>
      <point x="140" y="505"/>
      <point x="114" y="421" type="curve"/>
      <point x="204" y="421" type="line"/>
      <point x="218" y="456"/>
      <point x="254" y="480"/>
      <point x="308" y="480" type="curve" smooth="yes"/>
      <point x="346" y="480" type="line" smooth="yes"/>
      <point x="414" y="480"/>
      <point x="439" y="452"/>
      <point x="432" y="402" type="curve" smooth="yes"/>
      <point x="424" y="357"/>
      <point x="396" y="337"/>
      <point x="337" y="328" type="curve" smooth="yes"/>
      <point x="262" y="316" type="line" smooth="yes"/>
      <point x="141" y="297"/>
      <point x="81" y="251"/>
      <point x="65" y="155" type="curve" smooth="yes"/>
      <point x="50" y="53"/>
      <point x="105" y="-10"/>
      <point x="235" y="-10" type="curve" smooth="yes"/>
    </contour>
  </outline>
</glyph>
<glyph name="de-cy" format="2">
  <advance width="600"/>
  <unicode hex="0434"/>
  <outline>
    <contour>
      <point x="254" y="-10" type="curve" smooth="yes"/>
      <point x="384" y="-10"/>
      <point x="477" y="72"/>
      <point x="498" y="205" type="curve" smooth="yes"/>
      <point x="537" y="455" type="line" smooth="yes"/>
      <point x="565" y="631"/>
      <point x="489" y="730"/>
      <point x="325" y="730" type="curve" smooth="yes"/>
      <point x="185" y="730" type="line"/>
      <point x="172" y="640" type="line"/>
      <point x="312" y="640" type="line" smooth="yes"/>
      <point x="420" y="640"/>
      <point x="466" y="575"/>
      <point x="447" y="455" type="curve" smooth="yes"/>
      <point x="437" y="390" type="line"/>
      <point x="423" y="390" type="line"/>
      <point x="433" y="370" type="line"/>
      <point x="445" y="449"/>
      <point x="398" y="495"/>
      <point x="308" y="495" type="curve" smooth="yes"/>
      <point x="192" y="495"/>
      <point x="111" y="416"/>
      <point x="90" y="285" type="curve" smooth="yes"/>
      <point x="78" y="205" type="line" smooth="yes"/>
      <point x="57" y="71"/>
      <point x="123" y="-10"/>
    </contour>
    <contour>
      <point x="266" y="70" type="curve" smooth="yes"/>
      <point x="189" y="70"/>
      <point x="154" y="118"/>
      <point x="168" y="205" type="curve" smooth="yes"/>
      <point x="180" y="285" type="line" smooth="yes"/>
      <point x="194" y="372"/>
      <point x="244" y="420"/>
      <point x="321" y="420" type="curve" smooth="yes"/>
      <point x="399" y="420"/>
      <point x="434" y="373"/>
      <point x="420" y="285" type="curve" smooth="yes"/>
      <point x="408" y="205" type="line" smooth="yes"/>
      <point x="394" y="118"/>
      <point x="343" y="70"/>
    </contour>
  </outline>
</glyph>
<glyph name="ka-cy" format="2">
  <advance width="600"/>
  <unicode hex="043A"/>
  <anchor x="343" y="550" name="top"/>
  <outline>
    <contour>
      <point x="53" y="0" type="line"/>
      <point x="143" y="0" type="line"/>
      <point x="182" y="245" type="line"/>
      <point x="279" y="245" type="line"/>
      <point x="400" y="0" type="line"/>
      <point x="503" y="0" type="line"/>
      <point x="361" y="285" type="line"/>
      <point x="587" y="550" type="line"/>
      <point x="482" y="550" type="line"/>
      <point x="286" y="323" type="line"/>
      <point x="194" y="323" type="line"/>
      <point x="230" y="550" type="line"/>
      <point x="140" y="550" type="line"/>
    </contour>
  </outline>
</glyph>
<glyph name="em-cy" format="2">
  <advance width="600"/>
  <unicode hex="043C"/>
  <outline>
    <contour>
      <point x="32" y="0" type="line"/>
      <point x="119" y="0" type="line"/>
      <point x="132" y="85" type="line" smooth="yes"/>
      <point x="152" y="216"/>
      <point x="175" y="385"/>
      <point x="186" y="476" type="curve"/>
      <point x="236" y="165" type="line"/>
      <point x="331" y="165" type="line"/>
      <point x="479" y="478" type="line"/>
      <point x="459" y="380"/>
      <point x="424" y="205"/>
      <point x="406" y="85" type="curve" smooth="yes"/>
      <point x="393" y="0" type="line"/>
      <point x="480" y="0" type="line"/>
      <point x="567" y="550" type="line"/>
      <point x="443" y="550" type="line"/>
      <point x="342" y="340" type="line" smooth="yes"/>
      <point x="321" y="296"/>
      <point x="302" y="250"/>
      <point x="293" y="227" type="curve"/>
      <point x="291" y="250"/>
      <point x="286" y="296"/>
      <point x="278" y="339" type="curve" smooth="yes"/>
      <point x="239" y="550" type="line"/>
      <point x="119" y="550" type="line"/>
    </contour>
  </outline>
</glyph>
<glyph name="ef-cy" format="2">
  <advance width="600"/>
  <unicode hex="0444"/>
  <outline>
    <contour>
      <point x="229" y="71" type="line"/>
      <point x="151" y="71"/>
      <point x="113" y="120"/>
      <point x="126" y="202" type="curve" smooth="yes"/>
      <point x="149" y="350" type="line" smooth="yes"/>
      <point x="162" y="431"/>
      <point x="216" y="479"/>
      <point x="294" y="479" type="curve"/>
    </contour>
    <contour>
      <point x="305" y="71" type="curve"/>
      <point x="370" y="479" type="line"/>
      <point x="448" y="479"/>
      <point x="486" y="431"/>
      <point x="473" y="350" type="curve" smooth="yes"/>
      <point x="450" y="202" type="line" smooth="yes"/>
      <point x="437" y="120"/>
      <point x="383" y="71"/>
    </contour>
    <contour>
      <point x="213" y="-20" type="line" smooth="yes"/>
      <point x="207" y="-74"/>
      <point x="174" y="-101"/>
      <point x="119" y="-101" type="curve" smooth="yes"/>
      <point x="4" y="-101" type="line"/>
      <point x="-9" y="-180" type="line"/>
      <point x="105" y="-180" type="line" smooth="yes"/>
      <point x="213" y="-180"/>
      <point x="283" y="-119"/>
      <point x="293" y="-20" type="curve" smooth="yes"/>
      <point x="296" y="0" type="line"/>
      <point x="424" y="0"/>
      <point x="514" y="77"/>
      <point x="534" y="202" type="curve" smooth="yes"/>
      <point x="557" y="350" type="line" smooth="yes"/>
      <point x="577" y="474"/>
      <point x="511" y="550"/>
      <point x="383" y="550" type="curve"/>
      <point x="386" y="570" type="line" smooth="yes"/>
      <point x="394" y="624"/>
      <point x="426" y="651"/>
      <point x="480" y="651" type="curve" smooth="yes"/>
      <point x="595" y="651" type="line"/>
      <point x="608" y="730" type="line"/>
      <point x="494" y="730" type="line" smooth="yes"/>
      <point x="386" y="730"/>
      <point x="321" y="669"/>
      <point x="306" y="570" type="curve" smooth="yes"/>
      <point x="303" y="550" type="line"/>
      <point x="176" y="550"/>
      <point x="85" y="474"/>
      <point x="65" y="350" type="curve" smooth="yes"/>
      <point x="42" y="202" type="line" smooth="yes"/>
      <point x="22" y="77"/>
      <point x="88" y="0"/>
      <point x="216" y="0" type="curve"/>
    </contour>
  </outline>
</glyph>
<glyph name="che-cy" format="2">
  <advance width="600"/>
  <unicode hex="0447"/>
  <outline>
    <contour>
      <point x="366" y="0" type="line"/>
      <point x="456" y="0" type="line"/>
      <point x="543" y="550" type="line"/>
      <point x="453" y="550" type="line"/>
      <point x="410" y="275" type="line"/>
      <point x="397" y="272"/>
      <point x="349" y="270"/>
      <point x="295" y="270" type="curve" smooth="yes"/>
      <point x="206" y="270"/>
      <point x="171" y="297"/>
      <point x="181" y="360" type="curve" smooth="yes"/>
      <point x="211" y="550" type="line"/>
      <point x="121" y="550" type="line"/>
      <point x="91" y="360" type="line" smooth="yes"/>
      <point x="73" y="247"/>
      <point x="137" y="188"/>
      <point x="279" y="189" type="curve" smooth="yes"/>
      <point x="331" y="189"/>
      <point x="382" y="193"/>
      <point x="397" y="196" type="curve"/>
    </contour>
  </outline>
</glyph>
<glyph name="ia-cy" format="2">
  <advance width="600"/>
  <unicode hex="044F"/>
  <outline>
    <contour>
      <point x="16" y="0" type="line"/>
      <point x="118" y="0" type="line"/>
      <point x="283" y="205" type="line"/>
      <point x="404" y="205" type="line"/>
      <point x="372" y="0" type="line"/>
      <point x="462" y="0" type="line"/>
      <point x="549" y="550" type="line"/>
      <point x="312" y="550" type="line" smooth="yes"/>
      <point x="188" y="550"/>
      <point x="102" y="485"/>
      <point x="85" y="377" type="curve" smooth="yes"/>
      <point x="69" y="280"/>
      <point x="120" y="218"/>
      <point x="223" y="206" type="curve"/>
      <point x="220" y="243" type="line"/>
    </contour>
    <contour>
      <point x="270" y="285" type="line" smooth="yes"/>
      <point x="203" y="285"/>
      <point x="168" y="320"/>
      <point x="177" y="377" type="curve" smooth="yes"/>
      <point x="186" y="435"/>
      <point x="232" y="470"/>
      <point x="299" y="470" type="curve" smooth="yes"/>
      <point x="446" y="470" type="line"/>
      <point x="417" y="285" type="line"/>
    </contour>
  </outline>
</glyph>
<glyph name="Gheupturn-cy" format="2">
  <advance width="600"/>
  <unicode hex="0490"/>
  <outline>
    <contour>
      <point x="86" y="0" type="line"/>
      <point x="176" y="0" type="line"/>
      <point x="279" y="648" type="line"/>
      <point x="614" y="648" type="line"/>
      <point x="642" y="825" type="line"/>
      <point x="557" y="825" type="line"/>
      <point x="542" y="730" type="line"/>
      <point x="202" y="730" type="line"/>
    </contour>
  </outline>
</glyph>
<glyph name="ghestroke-cy" format="2">
  <advance width="600"/>
  <unicode hex="0493"/>
  <anchor x="378" y="550" name="top"/>
  <outline>
    <contour>
      <point x="101" y="0" type="line"/>
      <point x="191" y="0" type="line"/>
      <point x="229" y="242" type="line"/>
      <point x="409" y="242" type="line"/>
      <point x="420" y="310" type="line"/>
      <point x="240" y="310" type="line"/>
      <point x="265" y="468" type="line"/>
      <point x="570" y="468" type="line"/>
      <point x="583" y="550" type="line"/>
      <point x="188" y="550" type="line"/>
      <point x="150" y="310" type="line"/>
      <point x="60" y="310" type="line"/>
      <point x="49" y="242" type="line"/>
      <point x="139" y="242" type="line"/>
    </contour>
  </outline>
</glyph>
<glyph name="endescender-cy" format="2">
  <advance width="600"/>
  <unicode hex="04A3"/>
  <anchor x="462" y="0" name="stick-cy"/>
  <outline>
    <contour>
      <point x="47" y="0" type="line"/>
      <point x="137" y="0" type="line"/>
      <point x="175" y="239" type="line"/>
      <point x="407" y="239" type="line"/>
      <point x="369" y="0" type="line"/>
      <point x="459" y="0" type="line"/>
      <point x="546" y="550" type="line"/>
      <point x="456" y="550" type="line"/>
      <point x="420" y="321" type="line"/>
      <point x="188" y="321" type="line"/>
      <point x="224" y="550" type="line"/>
      <point x="134" y="550" type="line"/>
    </contour>
    <contour>
      <point x="404" y="-140" type="line"/>
      <point x="484" y="-140" type="line"/>
      <point x="519" y="80" type="line"/>
      <point x="439" y="80" type="line"/>
    </contour>
  </outline>
</glyph>
<glyph name="Ustraightstroke-cy" format="2">
  <advance width="600"/>
  <unicode hex="04B0"/>
  <anchor x="256" y="0" name="bottom"/>
  <anchor x="372" y="730" name="top"/>
  <anchor x="92" y="730" name="topleft"/>
  <outline>
    <contour>
      <point x="112" y="198" type="line"/>
      <point x="462" y="198" type="line"/>
      <point x="474" y="273" type="line"/>
      <point x="124" y="273" type="line"/>
    </contour>
    <component base="Y"/>
  </outline>
</glyph>
<glyph name="Schwa-cy" format="2">
  <advance width="600"/>
  <unicode hex="04D8"/>
  <outline>
    <contour>
      <point x="251" y="-10" type="curve" smooth="yes"/>
      <point x="382" y="-10"/>
      <point x="477" y="71"/>
      <point x="498" y="200" type="curve" smooth="yes"/>
      <point x="550" y="530" type="line" smooth="yes"/>
      <point x="570" y="659"/>
      <point x="501" y="740"/>
      <point x="370" y="740" type="curve" smooth="yes"/>
      <point x="239" y="740"/>
      <point x="144" y="659"/>
      <point x="124" y="530" type="curve"/>
      <point x="214" y="530" type="line"/>
      <point x="227" y="610"/>
      <point x="282" y="660"/>
      <point x="358" y="660" type="curve" smooth="yes"/>
      <point x="434" y="660"/>
      <point x="473" y="610"/>
      <point x="460" y="531" type="curve" smooth="yes"/>
      <point x="441" y="409" type="line"/>
      <point x="105" y="409" type="line"/>
      <point x="72" y="200" type="line" smooth="yes"/>
      <point x="51" y="71"/>
      <point x="120" y="-10"/>
    </contour>
    <contour>
      <point x="264" y="70" type="curve" smooth="yes"/>
      <point x="188" y="70"/>
      <point x="149" y="120"/>
      <point x="162" y="200" type="curve" smooth="yes"/>
      <point x="182" y="327" type="line"/>
      <point x="428" y="327" type="line"/>
      <point x="408" y="200" type="line" smooth="yes"/>
      <point x="395" y="120"/>
      <point x="340" y="70"/>
    </contour>
  </outline>
</glyph>
<glyph name="endash" format="2">
  <advance width="600"/>
  <unicode hex="2013"/>
  <outline>
    <contour>
      <point x="82" y="290" type="line"/>
      <point x="522" y="290" type="line"/>
      <point x="535" y="370" type="line"/>
      <point x="95" y="370" type="line"/>
    </contour>
  </outline>
</glyph>
<glyph name="quotesinglbase" format="2">
  <advance width="600"/>
  <unicode hex="201A"/>
  <outline>
    <contour>
      <point x="149" y="-160" type="curve"/>
      <point x="243" y="-160" type="line"/>
      <point x="298" y="-83"/>
      <point x="342" y="-19"/>
      <point x="342" y="49" type="curve" smooth="yes"/>
      <point x="342" y="117"/>
      <point x="293" y="159"/>
      <point x="210" y="159" type="curve" smooth="yes"/>
      <point x="186" y="159" type="line"/>
      <point x="174" y="81" type="line"/>
      <point x="193" y="81" type="line" smooth="yes"/>
      <point x="232" y="81"/>
      <point x="255" y="62"/>
      <point x="255" y="30" type="curve" smooth="yes"/>
      <point x="255" y="-16"/>
      <point x="208" y="-77"/>
    </contour>
  </outline>
</glyph>
<glyph name="guilsinglleft" format="2">
  <advance width="600"/>
  <unicode hex="2039"/>
  <outline>
    <contour>
      <point x="311" y="40" type="line"/>
      <point x="412" y="40" type="line"/>
      <point x="248" y="278" type="line"/>
      <point x="493" y="520" type="line"/>
      <point x="387" y="520" type="line"/>
      <point x="147" y="280" type="line"/>
    </contour>
  </outline>
</glyph>
<glyph name="guilsinglright" format="2">
  <advance width="600"/>
  <unicode hex="203A"/>
  <outline>
    <contour>
      <point x="108" y="40" type="line"/>
      <point x="214" y="40" type="line"/>
      <point x="454" y="280" type="line"/>
      <point x="290" y="520" type="line"/>
      <point x="189" y="520" type="line"/>
      <point x="354" y="282" type="line"/>
    </contour>
  </outline>
</glyph>
<glyph name="undertie" format="2">
  <advance width="600"/>
  <unicode hex="203F"/>
  <outline>
    <contour>
      <point x="150" y="-180" type="curve" smooth="yes"/>
      <point x="450" y="-180" type="line" smooth="yes"/>
      <point x="553" y="-180"/>
      <point x="620" y="-113"/>
      <point x="620" y="-10" type="curve"/>
      <point x="530" y="-10" type="line"/>
      <point x="530" y="-64"/>
      <point x="494" y="-100"/>
      <point x="440" y="-100" type="curve" smooth="yes"/>
      <point x="160" y="-100" type="line" smooth="yes"/>
      <point x="106" y="-100"/>
      <point x="70" y="-64"/>
      <point x="70" y="-10" type="curve"/>
      <point x="-20" y="-10" type="line"/>
      <point x="-20" y="-113"/>
      <point x="47" y="-180"/>
    </contour>
  </outline>
</glyph>
<glyph name="foursuperior" format="2">
  <advance width="600"/>
  <unicode hex="2074"/>
  <outline>
    <contour>
      <point x="378" y="405" type="line"/>
      <point x="448" y="405" type="line"/>
      <point x="489" y="665" type="line"/>
      <point x="419" y="665" type="line"/>
      <point x="403" y="561" type="line"/>
      <point x="261" y="561" type="line"/>
      <point x="263" y="575" type="line"/>
      <point x="484" y="831" type="line"/>
      <point x="404" y="831" type="line"/>
      <point x="195" y="590" type="line"/>
      <point x="181" y="497" type="line"/>
      <point x="393" y="497" type="line"/>
    </contour>
  </outline>
</glyph>
<glyph name="fivesuperior" format="2">
  <advance width="600"/>
  <unicode hex="2075"/>
  <outline>
    <contour>
      <point x="304" y="395" type="curve" smooth="yes"/>
      <point x="396" y="395"/>
      <point x="462" y="450"/>
      <point x="476" y="538" type="curve" smooth="yes"/>
      <point x="489" y="620"/>
      <point x="449" y="672"/>
      <point x="373" y="672" type="curve" smooth="yes"/>
      <point x="322" y="672"/>
      <point x="280" y="644"/>
      <point x="264" y="599" type="curve"/>
      <point x="276" y="604" type="line"/>
      <point x="301" y="766" type="line"/>
      <point x="493" y="766" type="line"/>
      <point x="503" y="830" type="line"/>
      <point x="241" y="830" type="line"/>
      <point x="203" y="588" type="line"/>
      <point x="268" y="588" type="line"/>
      <point x="283" y="606"/>
      <point x="310" y="618"/>
      <point x="337" y="618" type="curve" smooth="yes"/>
      <point x="386" y="618"/>
      <point x="412" y="587"/>
      <point x="404" y="538" type="curve" smooth="yes"/>
      <point x="396" y="489"/>
      <point x="362" y="458"/>
      <point x="314" y="458" type="curve" smooth="yes"/>
      <point x="272" y="458"/>
      <point x="245" y="480"/>
      <point x="245" y="515" type="curve"/>
      <point x="175" y="515" type="line"/>
      <point x="172" y="441"/>
      <point x="222" y="395"/>
    </contour>
  </outline>
</glyph>
<glyph name="sixsuperior" format="2">
  <advance width="600"/>
  <unicode hex="2076"/>
  <outline>
    <contour>
      <point x="320" y="395" type="curve" smooth="yes"/>
      <point x="414" y="395"/>
      <point x="482" y="451"/>
      <point x="496" y="538" type="curve" smooth="yes"/>
      <point x="509" y="619"/>
      <point x="470" y="671"/>
      <point x="397" y="671" type="curve" smooth="yes"/>
      <point x="351" y="671"/>
      <point x="310" y="650"/>
      <point x="294" y="617" type="curve"/>
      <point x="334" y="637" type="line"/>
      <point x="300" y="637" type="line"/>
      <point x="455" y="830" type="line"/>
      <point x="379" y="830" type="line"/>
      <point x="247" y="668" type="line" smooth="yes"/>
      <point x="217" y="631"/>
      <point x="193" y="579"/>
      <point x="186" y="538" type="curve" smooth="yes"/>
      <point x="172" y="451"/>
      <point x="226" y="395"/>
    </contour>
    <contour>
      <point x="328" y="457" type="curve" smooth="yes"/>
      <point x="277" y="457"/>
      <point x="249" y="488"/>
      <point x="257" y="538" type="curve" smooth="yes"/>
      <point x="265" y="588"/>
      <point x="303" y="619"/>
      <point x="354" y="619" type="curve" smooth="yes"/>
      <point x="406" y="619"/>
      <point x="433" y="588"/>
      <point x="425" y="538" type="curve" smooth="yes"/>
      <point x="417" y="488"/>
      <point x="380" y="457"/>
    </contour>
  </outline>
</glyph>
<glyph name="sevensuperior" format="2">
  <advance width="600"/>
  <unicode hex="2077"/>
  <outline>
    <contour>
      <point x="231" y="405" type="line"/>
      <point x="312" y="405" type="line"/>
      <point x="520" y="750" type="line"/>
      <point x="532" y="830" type="line"/>
      <point x="242" y="830" type="line"/>
      <point x="222" y="703" type="line"/>
      <point x="291" y="703" type="line"/>
      <point x="301" y="766" type="line"/>
      <point x="453" y="766" type="line"/>
    </contour>
  </outline>
</glyph>
<glyph name="eightsuperior" format="2">
  <advance width="600"/>
  <unicode hex="2078"/>
  <outline>
    <contour>
      <point x="319" y="395" type="curve" smooth="yes"/>
      <point x="411" y="395"/>
      <point x="476" y="440"/>
      <point x="487" y="511" type="curve" smooth="yes"/>
      <point x="495" y="561"/>
      <point x="464" y="607"/>
      <point x="407" y="631" type="curve" smooth="yes"/>
      <point x="338" y="660" type="line" smooth="yes"/>
      <point x="309" y="672"/>
      <point x="294" y="696"/>
      <point x="298" y="721" type="curve" smooth="yes"/>
      <point x="304" y="757"/>
      <point x="335" y="780"/>
      <point x="379" y="780" type="curve" smooth="yes"/>
      <point x="424" y="780"/>
      <point x="449" y="758"/>
      <point x="443" y="722" type="curve" smooth="yes"/>
      <point x="439" y="695"/>
      <point x="418" y="671"/>
      <point x="389" y="660" type="curve" smooth="yes"/>
      <point x="306" y="629" type="line" smooth="yes"/>
      <point x="241" y="605"/>
      <point x="195" y="559"/>
      <point x="187" y="511" type="curve" smooth="yes"/>
      <point x="176" y="440"/>
      <point x="227" y="395"/>
    </contour>
    <contour>
      <point x="328" y="457" type="curve" smooth="yes"/>
      <point x="279" y="457"/>
      <point x="252" y="481"/>
      <point x="258" y="520" type="curve" smooth="yes"/>
      <point x="263" y="549"/>
      <point x="284" y="574"/>
      <point x="314" y="586" type="curve" smooth="yes"/>
      <point x="396" y="618" type="line" smooth="yes"/>
      <point x="462" y="644"/>
      <point x="508" y="688"/>
      <point x="515" y="733" type="curve" smooth="yes"/>
      <point x="526" y="799"/>
      <point x="477" y="840"/>
      <point x="389" y="840" type="curve" smooth="yes"/>
      <point x="302" y="840"/>
      <point x="241" y="799"/>
      <point x="230" y="733" type="curve" smooth="yes"/>
      <point x="223" y="689"/>
      <point x="255" y="644"/>
      <point x="314" y="617" type="curve" smooth="yes"/>
      <point x="382" y="586" type="line" smooth="yes"/>
      <point x="409" y="574"/>
      <point x="423" y="548"/>
      <point x="418" y="519" type="curve" smooth="yes"/>
      <point x="412" y="481"/>
      <point x="377" y="457"/>
    </contour>
  </outline>
</glyph>
<glyph name="numero" format="2">
  <advance width="600"/>
  <unicode hex="2116"/>
  <outline>
    <contour>
      <point x="-14" y="0" type="line"/>
      <point x="56" y="0" type="line"/>
      <point x="126" y="440" type="line" smooth="yes"/>
      <point x="135" y="495"/>
      <point x="143" y="590"/>
      <point x="148" y="646" type="curve"/>
      <point x="152" y="590"/>
      <point x="160" y="499"/>
      <point x="164" y="454" type="curve" smooth="yes"/>
      <point x="208" y="0" type="line"/>
      <point x="301" y="0" type="line"/>
      <point x="417" y="730" type="line"/>
      <point x="347" y="730" type="line"/>
      <point x="277" y="290" type="line" smooth="yes"/>
      <point x="269" y="239"/>
      <point x="261" y="143"/>
      <point x="256" y="85" type="curve"/>
      <point x="253" y="143"/>
      <point x="246" y="235"/>
      <point x="242" y="277" type="curve" smooth="yes"/>
      <point x="195" y="730" type="line"/>
      <point x="102" y="730" type="line"/>
    </contour>
    <contour>
      <point x="499" y="300" type="curve" smooth="yes"/>
      <point x="553" y="300"/>
      <point x="600" y="342"/>
      <point x="610" y="405" type="curve" smooth="yes"/>
      <point x="647" y="635" type="line" smooth="yes"/>
      <point x="657" y="698"/>
      <point x="622" y="740"/>
      <point x="568" y="740" type="curve" smooth="yes"/>
      <point x="514" y="740"/>
      <point x="467" y="698"/>
      <point x="457" y="635" type="curve" smooth="yes"/>
      <point x="420" y="405" type="line" smooth="yes"/>
      <point x="410" y="342"/>
      <point x="445" y="300"/>
    </contour>
    <contour>
      <point x="507" y="355" type="curve" smooth="yes"/>
      <point x="489" y="355"/>
      <point x="474" y="365"/>
      <point x="479" y="395" type="curve" smooth="yes"/>
      <point x="518" y="645" type="line" smooth="yes"/>
      <point x="522" y="669"/>
      <point x="541" y="685"/>
      <point x="559" y="685" type="curve" smooth="yes"/>
      <point x="577" y="685"/>
      <point x="592" y="669"/>
      <point x="588" y="645" type="curve" smooth="yes"/>
      <point x="549" y="395" type="line" smooth="yes"/>
      <point x="544" y="365"/>
      <point x="525" y="355"/>
    </contour>
  </outline>
</glyph>
<glyph name="universal" format="2">
  <advance width="600"/>
  <unicode hex="2200"/>
  <outline>
    <contour>
      <point x="195" y="0" type="line"/>
      <point x="316" y="0" type="line"/>
      <point x="622" y="730" type="line"/>
      <point x="527" y="730" type="line"/>
      <point x="445" y="528" type="line"/>
      <point x="228" y="528" type="line"/>
      <point x="210" y="730" type="line"/>
      <point x="122" y="730" type="line"/>
    </contour>
    <contour>
      <point x="265" y="70" type="curve"/>
      <point x="235" y="452" type="line"/>
      <point x="414" y="452" type="line"/>
      <point x="326" y="234" type="line" smooth="yes"/>
      <point x="298" y="165"/>
      <point x="276" y="100"/>
    </contour>
  </outline>
</glyph>
<glyph name="complement" format="2">
  <advance width="600"/>
  <unicode hex="2201"/>
  <outline>
    <contour>
      <point x="305" y="-10" type="curve" smooth="yes"/>
      <point x="396" y="-10"/>
      <point x="455" y="49"/>
      <point x="455" y="140" type="curve" smooth="yes"/>
      <point x="455" y="180" type="line"/>
      <point x="365" y="180" type="line"/>
      <point x="365" y="130" type="line" smooth="yes"/>
      <point x="365" y="94"/>
      <point x="341" y="70"/>
      <point x="305" y="70" type="curve" smooth="yes"/>
      <point x="269" y="70"/>
      <point x="245" y="94"/>
      <point x="245" y="130" type="curve" smooth="yes"/>
      <point x="245" y="420" type="line" smooth="yes"/>
      <point x="245" y="456"/>
      <point x="269" y="480"/>
      <point x="305" y="480" type="curve" smooth="yes"/>
      <point x="341" y="480"/>
      <point x="365" y="456"/>
      <point x="365" y="420" type="curve" smooth="yes"/>
      <point x="365" y="370" type="line"/>
      <point x="455" y="370" type="line"/>
      <point x="455" y="410" type="line" smooth="yes"/>
      <point x="455" y="501"/>
      <point x="396" y="560"/>
      <point x="305" y="560" type="curve" smooth="yes"/>
      <point x="214" y="560"/>
      <point x="155" y="501"/>
      <point x="155" y="410" type="curve" smooth="yes"/>
      <point x="155" y="140" type="line" smooth="yes"/>
      <point x="155" y="49"/>
      <point x="214" y="-10"/>
    </contour>
  </outline>
</glyph>
<glyph name="partialdiff" format="2">
  <advance width="600"/>
  <unicode hex="2202"/>
  <outline>
    <contour>
      <point x="254" y="-10" type="curve" smooth="yes"/>
      <point x="384" y="-10"/>
      <point x="477" y="72"/>
      <point x="498" y="205" type="curve" smooth="yes"/>
      <point x="530" y="405" type="line" smooth="yes"/>
      <point x="563" y="615"/>
      <point x="368" y="730"/>
      <point x="368" y="730" type="curve"/>
      <point x="233" y="730" type="line"/>
      <point x="336" y="680"/>
      <point x="465" y="560"/>
      <point x="442" y="415" type="curve" smooth="yes"/>
      <point x="438" y="390" type="line"/>
      <point x="424" y="390" type="line"/>
      <point x="435" y="370" type="line"/>
      <point x="446" y="449"/>
      <point x="398" y="495"/>
      <point x="308" y="495" type="curve" smooth="yes"/>
      <point x="192" y="495"/>
      <point x="112" y="416"/>
      <point x="91" y="285" type="curve" smooth="yes"/>
      <point x="78" y="205" type="line" smooth="yes"/>
      <point x="57" y="71"/>
      <point x="123" y="-10"/>
    </contour>
    <contour>
      <point x="267" y="70" type="curve" smooth="yes"/>
      <point x="190" y="70"/>
      <point x="155" y="118"/>
      <point x="168" y="205" type="curve" smooth="yes"/>
      <point x="181" y="285" type="line" smooth="yes"/>
      <point x="195" y="372"/>
      <point x="246" y="420"/>
      <point x="323" y="420" type="curve" smooth="yes"/>
      <point x="401" y="420"/>
      <point x="435" y="373"/>
      <point x="421" y="285" type="curve" smooth="yes"/>
      <point x="408" y="205" type="line" smooth="yes"/>
      <point x="395" y="118"/>
      <point x="344" y="70"/>
    </contour>
  </outline>
</glyph>
<glyph name="emptyset" format="2">
  <advance width="600"/>
  <unicode hex="2205"/>
  <outline>
    <contour>
      <point x="314" y="50" type="curve" smooth="yes"/>
      <point x="491" y="50"/>
      <point x="624" y="183"/>
      <point x="624" y="360" type="curve" smooth="yes"/>
      <point x="624" y="537"/>
      <point x="491" y="670"/>
      <point x="314" y="670" type="curve" smooth="yes"/>
      <point x="137" y="670"/>
      <point x="4" y="537"/>
      <point x="4" y="360" type="curve" smooth="yes"/>
      <point x="4" y="183"/>
      <point x="137" y="50"/>
    </contour>
    <contour>
      <point x="314" y="130" type="curve" smooth="yes"/>
      <point x="189" y="130"/>
      <point x="94" y="229"/>
      <point x="94" y="360" type="curve" smooth="yes"/>
      <point x="94" y="491"/>
      <point x="189" y="590"/>
      <point x="314" y="590" type="curve" smooth="yes"/>
      <point x="439" y="590"/>
      <point x="534" y="491"/>
      <point x="534" y="360" type="curve" smooth="yes"/>
      <point x="534" y="229"/>
      <point x="439" y="130"/>
    </contour>
    <contour>
      <point x="34" y="0" type="line"/>
      <point x="105" y="0" type="line"/>
      <point x="594" y="730" type="line"/>
      <point x="523" y="730" type="line"/>
    </contour>
  </outline>
</glyph>
<glyph name="notcontains" format="2">
  <advance width="600"/>
  <unicode hex="220C"/>
  <outline>
    <contour>
      <point x="66" y="-60" type="line"/>
      <point x="131" y="-60" type="line"/>
      <point x="560" y="780" type="line"/>
      <point x="495" y="780" type="line"/>
    </contour>
    <component base="suchthat"/>
  </outline>
</glyph>
<glyph name="radical" format="2">
  <advance width="600"/>
  <unicode hex="221A"/>
  <outline>
    <contour>
      <point x="224" y="0" type="line"/>
      <point x="329" y="0" type="line"/>
      <point x="657" y="730" type="line"/>
      <point x="571" y="730" type="line"/>
      <point x="322" y="161" type="line" smooth="yes"/>
      <point x="303" y="117"/>
      <point x="295" y="81"/>
      <point x="293" y="66" type="curve"/>
      <point x="248" y="550" type="line"/>
      <point x="73" y="550" type="line"/>
      <point x="60" y="470" type="line"/>
      <point x="171" y="470" type="line"/>
    </contour>
  </outline>
</glyph>
<glyph name="doesnotdivide" format="2">
  <advance width="600"/>
  <unicode hex="2224"/>
  <outline>
    <contour>
      <point x="104" y="140" type="line"/>
      <point x="174" y="140" type="line"/>
      <point x="525" y="590" type="line"/>
      <point x="455" y="590" type="line"/>
    </contour>
    <component base="divides"/>
  </outline>
</glyph>
<glyph name="logicaland" format="2">
  <advance width="600"/>
  <unicode hex="2227"/>
  <outline>
    <contour>
      <point x="24" y="50" type="line"/>
      <point x="118" y="50" type="line"/>
      <point x="332" y="481" type="line"/>
      <point x="415" y="50" type="line"/>
      <point x="504" y="50" type="line"/>
      <point x="404" y="550" type="line"/>
      <point x="282" y="550" type="line"/>
    </contour>
  </outline>
</glyph>
<glyph name="logicalor" format="2">
  <advance width="600"/>
  <unicode hex="2228"/>
  <outline>
    <contour>
      <point x="203" y="50" type="line"/>
      <point x="325" y="50" type="line"/>
      <point x="583" y="550" type="line"/>
      <point x="489" y="550" type="line"/>
      <point x="275" y="119" type="line"/>
      <point x="192" y="550" type="line"/>
      <point x="103" y="550" type="line"/>
    </contour>
  </outline>
</glyph>
<glyph name="union" format="2">
  <advance width="600"/>
  <unicode hex="222A"/>
  <outline>
    <contour>
      <point x="247" y="80" type="curve" smooth="yes"/>
      <point x="291" y="80" type="line" smooth="yes"/>
      <point x="423" y="80"/>
      <point x="523" y="167"/>
      <point x="544" y="300" type="curve" smooth="yes"/>
      <point x="593" y="615" type="line"/>
      <point x="503" y="615" type="line"/>
      <point x="454" y="300" type="line" smooth="yes"/>
      <point x="441" y="215"/>
      <point x="380" y="160"/>
      <point x="301" y="160" type="curve" smooth="yes"/>
      <point x="261" y="160" type="line" smooth="yes"/>
      <point x="182" y="160"/>
      <point x="140" y="215"/>
      <point x="153" y="300" type="curve" smooth="yes"/>
      <point x="203" y="615" type="line"/>
      <point x="113" y="615" type="line"/>
      <point x="64" y="300" type="line" smooth="yes"/>
      <point x="43" y="167"/>
      <point x="115" y="80"/>
    </contour>
  </outline>
</glyph>
<glyph name="ratio" format="2">
  <advance width="600"/>
  <unicode hex="2236"/>
  <outline>
    <contour>
      <point x="300" y="410" type="curve" smooth="yes"/>
      <point x="350" y="410"/>
      <point x="383" y="440"/>
      <point x="383" y="485" type="curve" smooth="yes"/>
      <point x="383" y="530"/>
      <point x="350" y="560"/>
      <point x="300" y="560" type="curve" smooth="yes"/>
      <point x="250" y="560"/>
      <point x="217" y="530"/>
      <point x="217" y="485" type="curve" smooth="yes"/>
      <point x="217" y="440"/>
      <point x="250" y="410"/>
    </contour>
    <contour>
      <point x="300" y="-10" type="curve" smooth="yes"/>
      <point x="350" y="-10"/>
      <point x="383" y="20"/>
      <point x="383" y="65" type="curve" smooth="yes"/>
      <point x="383" y="110"/>
      <point x="350" y="140"/>
      <point x="300" y="140" type="curve" smooth="yes"/>
      <point x="250" y="140"/>
      <point x="217" y="110"/>
      <point x="217" y="65" type="curve" smooth="yes"/>
      <point x="217" y="20"/>
      <point x="250" y="-10"/>
    </contour>
  </outline>
</glyph>
<glyph name="dotminus" format="2">
  <advance width="600"/>
  <unicode hex="2238"/>
  <outline>
    <contour>
      <point x="310" y="340" type="curve" smooth="yes"/>
      <point x="360" y="340"/>
      <point x="398" y="370"/>
      <point x="405" y="415" type="curve" smooth="yes"/>
      <point x="412" y="460"/>
      <point x="384" y="490"/>
      <point x="334" y="490" type="curve" smooth="yes"/>
      <point x="284" y="490"/>
      <point x="246" y="460"/>
      <point x="239" y="415" type="curve" smooth="yes"/>
      <point x="232" y="370"/>
      <point x="260" y="340"/>
    </contour>
    <component base="minus" xOffset="-19" yOffset="-120"/>
  </outline>
</glyph>
<glyph name="excess" format="2">
  <advance width="600"/>
  <unicode hex="2239"/>
  <outline>
    <contour>
      <point x="7" y="290" type="line"/>
      <point x="357" y="290" type="line"/>
      <point x="370" y="370" type="line"/>
      <point x="20" y="370" type="line"/>
    </contour>
    <contour>
      <point x="498" y="105" type="curve" smooth="yes"/>
      <point x="546" y="105"/>
      <point x="582" y="135"/>
      <point x="590" y="180" type="curve" smooth="yes"/>
      <point x="597" y="225"/>
      <point x="569" y="255"/>
      <point x="521" y="255" type="curve" smooth="yes"/>
      <point x="473" y="255"/>
      <point x="437" y="225"/>
      <point x="430" y="180" type="curve" smooth="yes"/>
      <point x="422" y="135"/>
      <point x="450" y="105"/>
    </contour>
    <contour>
      <point x="545" y="405" type="curve" smooth="yes"/>
      <point x="593" y="405"/>
      <point x="630" y="435"/>
      <point x="637" y="480" type="curve" smooth="yes"/>
      <point x="644" y="525"/>
      <point x="617" y="555"/>
      <point x="569" y="555" type="curve" smooth="yes"/>
      <point x="521" y="555"/>
      <point x="484" y="525"/>
      <point x="477" y="480" type="curve" smooth="yes"/>
      <point x="470" y="435"/>
      <point x="497" y="405"/>
    </contour>
  </outline>
</glyph>
<glyph name="congruent" format="2">
  <advance width="600"/>
  <unicode hex="2245"/>
  <outline>
    <contour>
      <point x="38" y="76" type="line"/>
      <point x="498" y="76" type="line"/>
      <point x="510" y="152" type="line"/>
      <point x="50" y="152" type="line"/>
    </contour>
    <contour>
      <point x="72" y="292" type="line"/>
      <point x="532" y="292" type="line"/>
      <point x="544" y="368" type="line"/>
      <point x="84" y="368" type="line"/>
    </contour>
    <component base="asciitilde" xOffset="35" yOffset="215"/>
  </outline>
</glyph>
<glyph name="notalmostequalto" format="2">
  <advance width="600"/>
  <unicode hex="2249"/>
  <outline>
    <contour>
      <point x="66" y="-60" type="line"/>
      <point x="131" y="-60" type="line"/>
      <point x="560" y="780" type="line"/>
      <point x="495" y="780" type="line"/>
    </contour>
    <component base="asciitilde" xOffset="16" yOffset="100"/>
    <component base="asciitilde" xOffset="-22" yOffset="-145"/>
  </outline>
</glyph>
<glyph name="colonequals" format="2">
  <advance width="600"/>
  <unicode hex="2254"/>
  <outline>
    <contour>
      <point x="271" y="410" type="line"/>
      <point x="621" y="410" type="line"/>
      <point x="634" y="490" type="line"/>
      <point x="284" y="490" type="line"/>
    </contour>
    <contour>
      <point x="52" y="100" type="curve" smooth="yes"/>
      <point x="101" y="100"/>
      <point x="137" y="131"/>
      <point x="145" y="180" type="curve" smooth="yes"/>
      <point x="152" y="229"/>
      <point x="126" y="260"/>
      <point x="77" y="260" type="curve" smooth="yes"/>
      <point x="27" y="260"/>
      <point x="-8" y="229"/>
      <point x="-15" y="180" type="curve" smooth="yes"/>
      <point x="-23" y="131"/>
      <point x="3" y="100"/>
    </contour>
    <contour>
      <point x="99" y="400" type="curve" smooth="yes"/>
      <point x="148" y="400"/>
      <point x="184" y="431"/>
      <point x="192" y="480" type="curve" smooth="yes"/>
      <point x="200" y="529"/>
      <point x="174" y="560"/>
      <point x="125" y="560" type="curve" smooth="yes"/>
      <point x="76" y="560"/>
      <point x="40" y="529"/>
      <point x="32" y="480" type="curve" smooth="yes"/>
      <point x="24" y="431"/>
      <point x="50" y="400"/>
    </contour>
    <contour>
      <point x="233" y="170" type="line"/>
      <point x="583" y="170" type="line"/>
      <point x="596" y="250" type="line"/>
      <point x="246" y="250" type="line"/>
    </contour>
  </outline>
</glyph>
<glyph name="ringequalto" format="2">
  <advance width="600"/>
  <unicode hex="2257"/>
  <outline>
    <contour>
      <point x="87" y="292" type="line"/>
      <point x="517" y="292" type="line"/>
      <point x="529" y="368" type="line"/>
      <point x="99" y="368" type="line"/>
    </contour>
    <contour>
      <point x="53" y="76" type="line"/>
      <point x="483" y="76" type="line"/>
      <point x="495" y="152" type="line"/>
      <point x="65" y="152" type="line"/>
    </contour>
    <component base="ringcomb" xOffset="582" yOffset="-115"/>
  </outline>
</glyph>
<glyph name="notequal" format="2">
  <advance width="600"/>
  <unicode hex="2260"/>
  <outline>
    <contour>
      <point x="66" y="-60" type="line"/>
      <point x="131" y="-60" type="line"/>
      <point x="560" y="780" type="line"/>
      <point x="495" y="780" type="line"/>
    </contour>
    <component base="equal"/>
  </outline>
</glyph>
<glyph name="notidentical" format="2">
  <advance width="600"/>
  <unicode hex="2262"/>
  <outline>
    <contour>
      <point x="84" y="-60" type="line"/>
      <point x="149" y="-60" type="line"/>
      <point x="531" y="729" type="line"/>
      <point x="466" y="729" type="line"/>
    </contour>
    <component base="equivalence"/>
  </outline>
</glyph>
<glyph name="muchless" format="2">
  <advance width="600"/>
  <unicode hex="226A"/>
  <outline>
    <contour>
      <point x="567" y="65" type="line"/>
      <point x="580" y="147" type="line"/>
      <point x="393" y="297" type="line" smooth="yes"/>
      <point x="373" y="313"/>
      <point x="351" y="325"/>
      <point x="338" y="330" type="curve"/>
      <point x="352" y="335"/>
      <point x="380" y="350"/>
      <point x="404" y="365" type="curve" smooth="yes"/>
      <point x="637" y="508" type="line"/>
      <point x="651" y="595" type="line"/>
      <point x="285" y="371" type="line"/>
      <point x="273" y="293" type="line"/>
    </contour>
    <contour>
      <point x="296" y="65" type="line"/>
      <point x="309" y="147" type="line"/>
      <point x="123" y="297" type="line" smooth="yes"/>
      <point x="103" y="313"/>
      <point x="81" y="325"/>
      <point x="68" y="330" type="curve"/>
      <point x="82" y="335"/>
      <point x="110" y="350"/>
      <point x="134" y="365" type="curve" smooth="yes"/>
      <point x="367" y="508" type="line"/>
      <point x="380" y="595" type="line"/>
      <point x="15" y="371" type="line"/>
      <point x="3" y="293" type="line"/>
    </contour>
  </outline>
</glyph>
<glyph name="notless" format="2">
  <advance width="600"/>
  <unicode hex="226E"/>
  <outline>
    <contour>
      <point x="70" y="-70" type="line"/>
      <point x="135" y="-70" type="line"/>
      <point x="539" y="730" type="line"/>
      <point x="474" y="730" type="line"/>
    </contour>
    <component base="less"/>
  </outline>
</glyph>
<glyph name="notgreater" format="2">
  <advance width="600"/>
  <unicode hex="226F"/>
  <outline>
    <contour>
      <point x="70" y="-70" type="line"/>
      <point x="135" y="-70" type="line"/>
      <point x="539" y="730" type="line"/>
      <point x="474" y="730" type="line"/>
    </contour>
    <component base="greater"/>
  </outline>
</glyph>
<glyph name="notlessnorequal" format="2">
  <advance width="600"/>
  <unicode hex="2270"/>
  <outline>
    <contour>
      <point x="40" y="0" type="line"/>
      <point x="470" y="0" type="line"/>
      <point x="483" y="82" type="line"/>
      <point x="53" y="82" type="line"/>
    </contour>
    <contour>
      <point x="56" y="-110" type="line"/>
      <point x="121" y="-110" type="line"/>
      <point x="559" y="780" type="line"/>
      <point x="494" y="780" type="line"/>
    </contour>
    <component base="less" xOffset="20" yOffset="125"/>
  </outline>
</glyph>
<glyph name="notgreaternorequal" format="2">
  <advance width="600"/>
  <unicode hex="2271"/>
  <outline>
    <contour>
      <point x="26" y="-110" type="line"/>
      <point x="91" y="-110" type="line"/>
      <point x="529" y="780" type="line"/>
      <point x="464" y="780" type="line"/>
    </contour>
    <contour>
      <point x="41" y="0" type="line"/>
      <point x="471" y="0" type="line"/>
      <point x="484" y="82" type="line"/>
      <point x="54" y="82" type="line"/>
    </contour>
    <component base="greater" xOffset="21" yOffset="126"/>
  </outline>
</glyph>
